<svg xmlns="http://www.w3.org/2000/svg" width="256" height="256"><path fill-opacity=".016" fill-rule="evenodd" d="M0 128.004v128.004l128.25-.254 128.25-.254.254-127.75L257.008 0H0zm.485.496c0 70.4.119 99.053.265 63.672s.146-92.98 0-128S.485 58.1.485 128.5"/><path fill-opacity=".079" fill-rule="evenodd" d="M105.922 1.492c-17.811 3.366-33.793 9.883-48.859 19.924C26.098 42.053 5.763 74.392.91 110.719-.698 122.75.305 146.15 2.872 156.5 15.131 205.93 49.91 240.594 100 253.307c7.271 1.846 11.319 2.158 28 2.158 21.391 0 27.26-.968 45.133-7.442 15.948-5.777 35.895-18.878 47.42-31.145 17.263-18.375 30.178-43.793 33.472-65.878.616-4.125 1.537-8.281 2.047-9.236 1.184-2.217 1.224-28.764.043-28.764-.486 0-1.207-2.583-1.602-5.74-1.571-12.578-8.422-31.719-15.714-43.906C220.296 32.43 192.404 11.917 156.5 2.828 145.856.134 117.124-.625 105.922 1.492m9.828 48.302c-3.162.88-5.75 2.147-5.75 2.814s1.159 5.57 2.576 10.893 2.364 9.893 2.104 10.153c-.975.975-10.692 3.135-11.104 2.469-.236-.383-1.549-5.103-2.917-10.49s-2.726-10.034-3.019-10.326c-.62-.62-9.538 1.394-11.474 2.591-1.061.655-.815 2.646 1.258 10.208 1.416 5.167 2.575 10.114 2.575 10.995.001 1.213-3.081 2.387-12.749 4.855-7.013 1.79-13.072 3.552-13.466 3.916-.619.571 1.685 11.456 2.811 13.281.221.358 2.5.021 5.063-.75 2.563-.772 5.888-1.403 7.39-1.403 5.674 0 6.344 1.566 14.944 34.922 4.456 17.282 7.968 32.342 7.805 33.467-.337 2.318-3.386 4.128-9.469 5.622l-4.171 1.024.558 7.732c.307 4.253.706 7.905.887 8.115.181.211 5.958-1.027 12.837-2.75 6.88-1.722 13.114-3.132 13.854-3.132.881 0 2.16 3.448 3.7 9.972 1.295 5.485 2.66 10.466 3.033 11.07.483.781 2.333.665 6.423-.403 3.16-.825 5.958-1.713 6.218-1.973s-.728-5.026-2.196-10.591-2.446-10.697-2.175-11.404c.449-1.169 9.743-3.965 10.539-3.17.185.186 1.44 4.762 2.788 10.168 1.349 5.407 2.629 10.351 2.847 10.986.29.849 2.074.742 6.712-.4 3.475-.856 6.417-1.625 6.538-1.709s-1.077-5.079-2.663-11.099-2.585-11.23-2.221-11.576c.365-.346 2.464-1.195 4.664-1.887 11.41-3.586 20.722-10.775 24.952-19.263 3.628-7.281 3.596-17.226-.08-24.603-3.188-6.396-10.217-12.253-17.602-14.666-2.898-.947-5.428-1.857-5.621-2.021-.193-.165.82-1.564 2.252-3.108 3.615-3.898 4.887-8.453 4.419-15.816-.548-8.601-4.351-14.683-11.82-18.901-5.182-2.926-6.166-3.118-17-3.308l-11.5-.203-3-11.043c-1.65-6.073-3.225-11.001-3.5-10.951-.275.051-3.088.812-6.25 1.693m-.623 40.238c-3.505 1.034-6.527 2.035-6.717 2.224s1.285 6.517 3.276 14.061l3.621 13.716 3.596-.651c17.042-3.086 26.106-9.72 26.093-19.1-.005-4.075-3.539-9.193-7.486-10.842-4.671-1.952-14.652-1.688-22.383.592M.397 128c0 7.975.156 11.238.346 7.25s.189-10.513 0-14.5c-.19-3.987-.346-.725-.346 7.25M136 129.065c-10.181 1.914-17 4.173-17 5.631 0 1.503 7.036 28.494 7.607 29.181.678.815 19.158-4.246 23.483-6.43 11.589-5.853 15.311-17.2 8.03-24.481-4.538-4.538-11.863-5.829-22.12-3.901"/><path fill-opacity=".148" fill-rule="evenodd" d="M111.635 1.065c-27.641 3.831-52.176 15.73-72.021 34.928C20.071 54.899 8.063 76.81 2.344 104c-2.469 11.734-2.469 36.266 0 48 5.719 27.19 17.727 49.101 37.27 68.007C57.625 237.431 78.346 248.26 104 253.656c11.734 2.469 36.266 2.469 48 0 25.693-5.404 46.372-16.222 64.462-33.723 20.528-19.859 34.282-46.286 37.698-72.433.575-4.4 1.449-8.781 1.943-9.736 1.147-2.221 1.183-21.059.038-20.351-.472.292-1.145-2.494-1.494-6.191-.883-9.345-4.977-23.957-9.783-34.914-6.15-14.024-14.742-26.357-26.775-38.437C199.358 19.07 178.602 7.874 152.5 2.494 142.876.51 121.126-.251 111.635 1.065m3.368 48.606c-3.023.819-5.587 1.58-5.697 1.69s1.061 5.186 2.603 11.281l2.804 11.081-5.033 1.162c-2.769.639-5.345.813-5.726.388S102.24 70.225 100.991 65s-2.433-9.795-2.631-10.155c-.295-.535-8.449 1.108-12.962 2.611-.737.246-.165 3.947 1.727 11.179 1.556 5.946 2.502 11.09 2.102 11.432s-6.464 2.107-13.477 3.924C66.8 86.309 63 87.725 63 88.743c0 1.377 2.964 12.432 3.498 13.049.139.161 3.268-.464 6.952-1.39 10.996-2.762 10.378-3.805 20.222 34.131 9.532 36.734 9.542 35.381-.266 37.576l-5.651 1.264.694 8.552c.382 4.703.787 8.644.901 8.758s6.256-1.318 13.65-3.183 13.607-3.226 13.808-3.026c.2.201 1.467 4.789 2.815 10.195 3.318 13.305 2.836 12.406 6.082 11.344 1.537-.504 4.655-1.39 6.929-1.971l4.134-1.057-2.883-10.742c-1.586-5.909-2.884-11.027-2.884-11.374-.001-.589 7.78-2.869 9.791-2.869.498 0 2.155 4.837 3.681 10.75 1.527 5.912 2.925 10.918 3.107 11.123.659.74 13.42-3.193 13.42-4.136 0-.532-1.156-5.21-2.569-10.396s-2.412-9.898-2.221-10.472 2.782-1.9 5.756-2.947c13.362-4.706 22.621-13.254 25.653-23.683 3.146-10.823.161-20.688-8.677-28.672-4.297-3.882-11.114-7.506-14.192-7.545-2.287-.029-2.214-.534.626-4.339 6.81-9.122 5.464-22.815-3.034-30.879-5.732-5.439-11.748-7.298-23.456-7.249l-10.615.045-1.748-7.416c-3.782-16.045-2.725-14.896-11.52-12.513m5.497 39.41c-9.526 2.343-11.501 3.065-11.514 4.208-.008.666 1.455 6.723 3.25 13.46 3.68 13.811 3.023 13.275 13.075 10.67 11.141-2.887 17.004-7.162 18.759-13.68 1.244-4.62-.884-9.878-5.307-13.11-3.183-2.326-12.045-3.077-18.263-1.548M.37 128c0 5.775.165 8.137.367 5.25s.202-7.612 0-10.5S.37 122.225.37 128m128.148 3.105c-4.391 1.078-8.316 2.293-8.722 2.699-.407.407.98 7.255 3.082 15.218 4.373 16.566 2.776 15.396 16.189 11.855 14.733-3.889 21.922-10.012 21.929-18.677.008-9.388-5.033-13.247-17.147-13.128-4.042.04-10.941.955-15.331 2.033"/><path fill-opacity=".111" fill-rule="evenodd" d="M121.632 1.102c-1.028.621-3.615.895-5.75.609s-4.161-.068-4.503.485-1.917.746-3.5.43c-1.755-.351-2.879-.153-2.879.507 0 .657-.986.836-2.5.456-1.567-.393-2.5-.203-2.5.509 0 .643-.867.909-2 .612-1.1-.287-2-.062-2 .5s-.9.788-2 .5c-1.1-.287-2-.067-2 .491 0 .557-.675.754-1.5.437-.825-.316-1.5-.091-1.5.5 0 .592-.62.838-1.378.547s-1.883-.024-2.5.593S84 9.053 84 8.629s-.733-.039-1.629.857-2.217 1.403-2.935 1.128c-.719-.276-1.448-.133-1.621.317-.488 1.271-12.496 7.055-13.195 6.356-.341-.341-.62-.069-.62.605s-.403.977-.895.673c-.493-.305-1.164.147-1.493 1.004s-1.004 1.307-1.5 1-1.171.143-1.5 1-1.051 1.278-1.605.935S56 22.258 56 22.717s-2.967 3.073-6.594 5.809C43.089 33.291 28 48.305 28 49.825c0 .401-1.325 2.18-2.944 3.952C23.437 55.55 22.343 57 22.624 57c.681 0-3.737 6.296-5.076 7.235-.576.404-.706.741-.288.75.902.018-4.318 10.364-5.475 10.85-.439.185-.543.747-.232 1.25s.184.915-.281.915c-.466 0-.922 1.006-1.015 2.235-.092 1.23-.613 2.384-1.156 2.565-.544.181-.741.975-.438 1.765S8.73 86 8.138 86c-.591 0-.816.675-.5 1.5.317.825.19 1.501-.281 1.502s-.96 1.46-1.086 3.243-.64 3.378-1.144 3.546-.685 1.183-.404 2.257.07 1.952-.468 1.952-.763 1.125-.5 2.5c.283 1.48.015 2.5-.657 2.5-.705 0-.904.927-.523 2.443.337 1.344.256 3.022-.181 3.728-1.929 3.122-1.929 30.536 0 33.658.437.706.518 2.384.181 3.728-.379 1.509-.182 2.443.514 2.443.704 0 .892.941.5 2.5-.393 1.567-.203 2.5.509 2.5.643 0 .909.867.612 2-.287 1.1-.062 2 .5 2s.788.9.5 2c-.287 1.1-.067 2 .491 2 .557 0 .754.675.437 1.5-.316.825-.091 1.5.5 1.5.592 0 .817.675.5 1.5s-.091 1.5.5 1.5c.592 0 .817.675.5 1.5s-.188 1.5.285 1.5c.766 0 2.495 4.91 2.073 5.888-.092.214.233.664.723 1 1.439.99 5.2 8.859 4.547 9.513-.33.329-.048.599.626.599s.948.45.608 1-.238 1 .225 1c.917 0 4.089 4.945 4.098 6.388.004.489.436 1.164.96 1.5.525.337 3.219 3.443 5.986 6.902 6.093 7.616 14.047 16.206 15.021 16.221.391.006 2.848 1.982 5.46 4.391 2.613 2.41 4.764 4.092 4.782 3.74.017-.353.692.232 1.5 1.299.807 1.068 1.468 1.624 1.468 1.236 0-.764 8.107 4.262 9.112 5.649.336.465.928.751 1.316.637.93-.274 7.978 3.324 8.407 4.293.185.416.747.502 1.25.191s.915-.184.915.281c0 .466 1.006.922 2.235 1.015 1.23.092 2.384.613 2.565 1.156.181.544.975.741 1.765.438s1.435-.067 1.435.525c0 .591.675.816 1.5.5.825-.317 1.5-.092 1.5.5 0 .591.675.816 1.5.5.825-.317 1.5-.12 1.5.437 0 .558.9.778 2 .491s2-.063 2 .5.9.787 2 .5c1.133-.297 2-.031 2 .612 0 .712.933.902 2.5.509 1.559-.392 2.5-.204 2.5.5 0 .689.929.894 2.391.527 1.315-.33 2.665-.156 3 .386.354.573 3.124.758 6.609.442 4.14-.375 6-.191 6 .595 0 .7 1.927 1.139 5 1.139s5-.439 5-1.139c0-.786 1.86-.97 6-.595 3.803.345 6 .167 6-.486 0-.611 1.22-.786 3-.43 1.857.371 3 .187 3-.483 0-.657.986-.836 2.5-.456 1.567.393 2.5.203 2.5-.509 0-.643.867-.909 2-.612 1.1.287 2 .062 2-.5s.9-.788 2-.5c1.1.287 2 .067 2-.491 0-.557.675-.754 1.5-.437.825.316 1.5.091 1.5-.5 0-.592.675-.817 1.5-.5s1.5.091 1.5-.5c0-.592.646-.828 1.435-.525.79.303 1.584.106 1.765-.438.181-.543 1.335-1.064 2.565-1.156 1.229-.093 2.235-.549 2.235-1.015s.412-.592.915-.281 1.065.225 1.25-.191c.459-1.036 8.034-4.816 9.031-4.506.442.138.804-.128.804-.589 0-.869 3.958-2.978 5.207-2.776.389.063 1.387-.785 2.218-1.885s1.533-1.55 1.559-1c.03.651.303.645.781-.019.404-.56 4.491-4.123 9.082-7.917 7.259-5.999 10.844-9.766 22.623-23.773 1.253-1.49 2.045-2.942 1.761-3.227s.22-.8 1.12-1.145c.901-.346 1.431-.963 1.178-1.372s.398-1.664 1.445-2.789 1.633-2.318 1.299-2.652c-.333-.333-.006-.606.727-.606s1.064-.27.734-.599c-.653-.654 3.108-8.523 4.547-9.513.49-.336.815-.786.723-1-.422-.978 1.307-5.888 2.073-5.888.473 0 .601-.675.285-1.5-.317-.825-.092-1.5.5-1.5.591 0 .816-.675.5-1.5-.317-.825-.19-1.501.281-1.502s.96-1.46 1.086-3.243.64-3.378 1.144-3.546.685-1.183.404-2.257c-.285-1.09-.009-1.952.625-1.952.712 0 .902-.933.509-2.5-.38-1.514-.201-2.5.456-2.5.66 0 .858-1.124.507-2.879-.316-1.583-.145-3.145.381-3.47.527-.325.749-2.76.494-5.41-.348-3.621-.064-5.15 1.144-6.152 1.098-.912 1.602-2.957 1.592-6.461-.011-3.497-.307-4.667-.932-3.68-1.296 2.05-2.47-2.993-1.741-7.484.31-1.908.098-3.711-.479-4.067-.569-.352-.775-1.935-.459-3.518.351-1.755.153-2.879-.507-2.879-.657 0-.836-.986-.456-2.5.393-1.567.203-2.5-.509-2.5-.634 0-.91-.862-.625-1.952.281-1.074.099-2.089-.404-2.257-.504-.168-1.018-1.764-1.144-3.546-.126-1.783-.615-3.242-1.086-3.243s-.598-.677-.281-1.502.091-1.5-.5-1.5c-.592 0-.817-.675-.5-1.5s.188-1.5-.285-1.5c-.786 0-2.254-4.114-2.01-5.634.057-.353-.326-.918-.85-1.254-1.362-.873-6.406-11.109-5.484-11.127.422-.009.295-.346-.281-.75-1.339-.939-5.757-7.235-5.076-7.235.281 0-.813-1.45-2.432-3.223S228 50.225 228 49.823s-1.012-1.821-2.25-3.152c-9.273-9.971-12.637-13.124-19.479-18.255-4.274-3.205-8.293-6.44-8.93-7.189s-1.41-1.218-1.718-1.044c-.307.175-1.473-.466-2.591-1.423-1.117-.957-2.032-1.513-2.032-1.236 0 .759-12.451-5.647-12.815-6.593-.173-.45-.902-.593-1.621-.317-.718.275-2.039-.232-2.935-1.128S172 8.204 172 8.629c0 .424-.505.266-1.122-.351s-1.742-.884-2.5-.593S167 7.73 167 7.138c0-.591-.675-.816-1.5-.5-.825.317-1.5.12-1.5-.437 0-.558-.9-.778-2-.491s-2 .063-2-.5-.9-.787-2-.5-2 .083-2-.455-1.125-.763-2.5-.5-2.5.04-2.5-.495-1.238-1.01-2.75-1.056c-2.629-.08-7.163-.476-19.25-1.683-3.307-.33-6.245-.098-7.368.581m-5.56 47.84c-3.535.893-6.593 2.121-6.796 2.729-.202.607.799 5.709 2.226 11.336 1.426 5.627 2.459 10.335 2.296 10.462-.593.461-9.241 2.422-9.506 2.156-.15-.15-1.481-4.965-2.957-10.699s-2.809-10.592-2.962-10.795c-.447-.594-14.374 3.019-14.367 3.727.003.353 1.315 5.472 2.916 11.376l2.91 10.734-3.666.96c-2.016.529-8.09 2.072-13.497 3.43-5.406 1.359-9.994 2.634-10.195 2.835s.433 3.502 1.408 7.336c1.984 7.8.898 7.291 12.647 5.931 4.837-.56 6.284-.391 7.317.855 1.713 2.064 17.287 62.483 16.932 65.685-.236 2.123-1.259 2.817-6.778 4.601l-6.5 2.102.284 4.898C88.205 185.88 89.082 191 89.907 191c.401 0 6.594-1.52 13.762-3.377l13.031-3.377 2.81 11.127c1.545 6.12 2.913 11.265 3.039 11.433.349.466 12.85-2.864 13.655-3.637.387-.372-.561-5.675-2.107-11.784l-2.81-11.108 5.006-1.155c2.754-.636 5.097-1.036 5.207-.889.111.147.967 3.417 1.902 7.267 3.874 15.942 3.279 14.809 7.418 14.125 2.024-.334 5.317-1.069 7.318-1.632l3.637-1.025-2.835-11.204c-1.559-6.161-2.746-11.249-2.637-11.304.108-.056 2.897-1.109 6.197-2.34 12.291-4.586 21.917-13.025 24.925-21.854 2.168-6.361 1.993-15.748-.39-20.998-3.401-7.491-12.258-14.496-22.372-17.692-1.703-.538-1.654-.798.664-3.553 3.586-4.261 5.006-9.417 4.408-16.007-.6-6.623-2.398-10.526-6.945-15.072-5.807-5.807-10.861-7.438-23.068-7.441l-10.777-.003-1.032-4c-2.119-8.212-4.839-17.757-5.121-17.966-.161-.119-3.184.515-6.72 1.408M125 88.64c-5.139.84-16 3.766-16 4.311 0 1.234 6.758 25.14 7.244 25.627.948.947 13.686-2.509 18.801-5.101 2.877-1.458 5.866-3.922 6.987-5.762 3.744-6.14 1.905-14.163-3.93-17.148-3.042-1.556-9.534-2.511-13.102-1.927M.3 128c0 3.025.187 4.262.416 2.75s.229-3.987 0-5.5S.3 124.975.3 128m132.7 2.454c-3.025.687-7.36 1.77-9.634 2.405l-4.134 1.156 2.763 10.242c1.52 5.634 3.285 12.155 3.923 14.493s1.704 4.243 2.371 4.235c2.116-.027 16.361-3.812 19.852-5.275 8.455-3.542 13.383-10.37 12.586-17.438-1.117-9.911-11.357-13.536-27.727-9.818"/></svg>