<svg xmlns="http://www.w3.org/2000/svg" width="256" height="256"><path fill-opacity=".016" fill-rule="evenodd" d="M0 128.004v128.004l128.25-.254 128.25-.254.254-127.75L257.008 0H0zm.485.496c0 70.4.119 99.053.265 63.672s.146-92.98 0-128S.485 58.1.485 128.5"/><path fill-opacity=".107" fill-rule="evenodd" d="M34.813 30.108c-.72 2.065-2.212 3.579-4.448 4.513C27.125 35.975 27 36.23 27 41.513 27 45.63 27.361 47 28.444 47c.795 0 2.64 1.028 4.1 2.284 2.007 1.726 2.656 3.213 2.656 6.079 0 4.218-3.261 8.637-6.374 8.637-1.565 0-1.826.858-1.826 6s.261 6 1.826 6c5.896 0 8.508 11.019 3.539 14.927-1.449 1.14-3.249 2.073-4 2.073C27.363 93 27 94.597 27 99c0 5.142.261 6 1.826 6 3.061 0 6.174 4.215 6.174 8.36 0 3.976-3.484 8.64-6.455 8.64-1.2 0-1.545 1.188-1.545 5.315 0 5.078.154 5.388 3.463 6.966 6.503 3.101 6.452 12.362-.087 15.48-3.198 1.524-3.376 1.885-3.376 6.826 0 4.911.178 5.279 3.034 6.275 2.038.71 3.521 2.221 4.514 4.598 2.079 4.976-.063 10.293-4.504 11.181-2.978.596-3.044.737-3.044 6.484 0 4.455.349 5.875 1.444 5.875.795 0 2.64 1.028 4.1 2.284 2.007 1.726 2.656 3.213 2.656 6.079 0 4.218-3.261 8.637-6.374 8.637-1.559 0-1.823.842-1.804 5.75.02 5.463.179 5.825 3.184 7.25 3.083 1.462 4.083 2.666 5.19 6.25.43 1.391 1.677 1.75 6.073 1.75 4.905 0 5.531-.231 5.531-2.045 0-3.134 4.406-6.955 8.02-6.955 4.412 0 6.931 1.639 8.578 5.58C64.953 228.823 65.284 229 70 229s5.047-.177 6.402-3.42c1.647-3.941 4.166-5.58 8.578-5.58 3.638 0 8.02 3.827 8.02 7.004 0 1.919.484 2.071 5.74 1.796 4.828-.252 5.798-.618 6.1-2.3 1.555-8.651 14.573-8.67 16.743-.025.58 2.31 1.094 2.525 6.025 2.525 3.997 0 5.392-.368 5.392-1.423 0-.783 1.165-2.808 2.589-4.5 4.58-5.443 13.277-3.443 15.007 3.451.562 2.239 1.118 2.472 5.904 2.472 4.816 0 5.339-.224 5.917-2.525 2.17-8.645 15.188-8.626 16.743.025.302 1.682 1.272 2.048 6.1 2.3 5.256.275 5.74.123 5.74-1.796 0-3.177 4.382-7.004 8.02-7.004 4.412 0 6.931 1.639 8.578 5.58 1.355 3.243 1.686 3.42 6.402 3.42 4.748 0 5.04-.16 6.451-3.536 1.013-2.424 2.589-4 5.013-5.013C228.84 219.04 229 218.748 229 214c0-4.716-.177-5.047-3.42-6.402-3.941-1.647-5.58-4.166-5.58-8.578 0-3.638 3.827-8.02 7.004-8.02 1.919 0 2.071-.484 1.796-5.74-.252-4.828-.618-5.798-2.3-6.1-8.651-1.555-8.67-14.573-.025-16.743 2.31-.58 2.525-1.094 2.525-6.025 0-3.997-.368-5.392-1.423-5.392-.783 0-2.808-1.165-4.5-2.589-5.515-4.64-3.528-12.68 3.673-14.863 1.973-.599 2.25-1.35 2.25-6.115 0-4.807-.236-5.433-2.045-5.433-1.125 0-3.15-1.105-4.5-2.455-4.751-4.75-2.327-13.56 4.045-14.705 1.649-.296 2.053-1.273 2.301-5.565.295-5.098.229-5.235-3.169-6.656-7.706-3.219-7.737-13.006-.052-16.217C228.823 75.047 229 74.716 229 70s-.177-5.047-3.42-6.402c-3.941-1.647-5.58-4.166-5.58-8.578 0-3.614 3.821-8.02 6.955-8.02 1.804 0 2.045-.627 2.045-5.32 0-5.041-.17-5.394-3.25-6.75-1.891-.832-3.877-2.78-4.75-4.658-1.433-3.085-1.755-3.23-7.25-3.25-4.908-.019-5.75.245-5.75 1.804 0 3.113-4.419 6.374-8.637 6.374-2.866 0-4.353-.649-6.079-2.656-1.256-1.46-2.284-3.305-2.284-4.1 0-1.085-1.379-1.444-5.552-1.444-5.313 0-5.599.134-6.635 3.108-1.57 4.502-6.546 6.448-11.353 4.44-2.377-.993-3.888-2.476-4.598-4.514-.998-2.862-1.357-3.034-6.339-3.034-4.971 0-5.356.183-6.574 3.123-1.84 4.442-6.763 6.399-11.314 4.498-2.236-.934-3.728-2.448-4.448-4.513-1.036-2.974-1.322-3.108-6.635-3.108-4.173 0-5.552.359-5.552 1.444 0 .795-1.028 2.64-2.284 4.1-1.726 2.007-3.213 2.656-6.079 2.656-4.218 0-8.637-3.261-8.637-6.374 0-1.565-.858-1.826-6-1.826-4.564 0-6 .346-6 1.444 0 .795-1.025 2.636-2.278 4.093-3.292 3.827-9.108 3.878-12.35.109C77.067 31.129 76 29.239 76 28.444 76 27.346 74.564 27 70 27c-5.142 0-6 .261-6 1.826 0 3.113-4.419 6.374-8.637 6.374-2.866 0-4.353-.649-6.079-2.656-1.256-1.46-2.284-3.305-2.284-4.1C47 27.359 45.621 27 41.448 27c-5.313 0-5.599.134-6.635 3.108m83.937 47.297c-4.307 1.088-4.293 1.029-2.103 8.833 1.826 6.509 1.353 7.717-3.156 8.052-2.664.198-2.943-.171-4.761-6.29-1.062-3.575-2.023-6.6-2.136-6.723-.114-.122-1.869.236-3.9.797-4.189 1.157-4.287 1.566-2.125 8.845.862 2.905 1.364 5.812 1.115 6.461s-4.105 2.235-8.568 3.525c-4.464 1.29-8.113 2.626-8.11 2.97s.486 2.356 1.073 4.472c.915 3.293 1.382 3.758 3.245 3.226 5.347-1.526 7.29-1.611 8.899-.385 1.869 1.424 14.156 42.383 13.347 44.491-.256.665-2.34 1.771-4.634 2.458l-4.169 1.249.586 4.943c.321 2.718.725 5.083.897 5.254.171.171 4.097-.789 8.723-2.134 9.596-2.79 9.1-3.052 11.59 6.146l1.661 6.136 3.98-1.011c4.426-1.123 4.459-1.329 1.735-10.938-.735-2.595-1.111-4.943-.835-5.219s2.028-.628 3.893-.782c3.366-.279 3.407-.232 5.331 6.219 1.067 3.575 2.007 6.59 2.088 6.699.082.109 1.993-.269 4.247-.841l4.098-1.041-1.873-6.158c-2.508-8.247-2.457-8.528 1.862-10.3 11.658-4.784 17.25-11.298 17.25-20.096C168 124.93 161.638 117 152.547 117h-2.518l1.982-3.25c3.938-6.459 1.825-16.591-4.384-21.02-2.664-1.9-4.426-2.23-11.9-2.23h-8.773l-2.227-7.021-2.227-7.021zm.475 26.258c-3.985 1.214-5.16 2.001-4.808 3.222 4.363 15.12 4.791 16.115 6.93 16.114 3.291-.001 14.36-5.583 15.575-7.854 1.629-3.043 1.295-7.655-.736-10.163-2.37-2.928-9.788-3.505-16.961-1.319m9.99 26.276c-3.457.989-6.527 2.04-6.824 2.337-.471.47 4.398 18.501 5.31 19.663.573.732 13.569-3.781 17.062-5.923 1.795-1.101 4-3.548 4.901-5.437 1.409-2.954 1.453-3.883.315-6.63-2.437-5.882-9.467-7.24-20.764-4.01"/><path fill-opacity=".112" fill-rule="evenodd" d="M34.93 30.25c-.859 1.952-2.728 3.821-4.68 4.68-3.08 1.356-3.25 1.709-3.25 6.75 0 4.469.29 5.32 1.811 5.32.997 0 2.791.912 3.988 2.028 4.787 4.459 3.794 11.261-2.114 14.472-3.45 1.875-3.68 2.299-3.682 6.802-.003 4.448.22 4.88 3.027 5.858C33.015 77.201 36 81.371 36 84.5c0 3.411-3.078 7.566-6.043 8.159-2.826.565-2.957.824-2.957 5.845 0 4.91.199 5.336 3.04 6.512 6.269 2.597 7.749 8.704 3.371 13.907-1.424 1.692-3.449 3.077-4.5 3.077-1.65 0-1.911.752-1.911 5.5 0 4.341.332 5.5 1.577 5.5 2.834 0 7.423 5.564 7.423 9s-4.589 9-7.423 9c-1.245 0-1.577 1.159-1.577 5.5s.332 5.5 1.577 5.5c.867 0 2.948 1.371 4.623 3.046 2.605 2.605 2.962 3.566 2.466 6.624-.682 4.203-2.859 6.911-6.24 7.759-2.199.552-2.426 1.122-2.426 6.09 0 4.624.283 5.481 1.811 5.481.997 0 2.791.912 3.988 2.028 4.787 4.459 3.794 11.261-2.114 14.472-3.409 1.853-3.68 2.335-3.682 6.565-.003 4.192.27 4.695 3.337 6.158 1.954.931 3.873 2.876 4.622 4.685 1.207 2.914 1.59 3.092 6.659 3.092 4.541 0 5.379-.284 5.379-1.826 0-2.15 3.568-5.662 6.724-6.618 3.233-.98 8.863 2.032 10.305 5.514 1.104 2.666 1.647 2.93 6.025 2.93 3.795 0 4.935-.389 5.396-1.842 1.086-3.421 5.415-6.558 9.05-6.558 3.873 0 8.5 3.579 8.5 6.574 0 1.539.836 1.826 5.315 1.826 5.06 0 5.392-.163 6.937-3.402 3.298-6.917 12.509-6.841 15.748.13 1.403 3.02 1.833 3.23 6.642 3.25 4.675.02 5.199-.208 5.776-2.509.88-3.504 6.253-6.651 10.082-5.905 3.215.627 7.5 4.621 7.5 6.992 0 1.078 1.33 1.439 5.25 1.422 4.931-.02 5.341-.217 6.75-3.25 3.239-6.971 12.45-7.047 15.748-.13 1.545 3.239 1.877 3.402 6.937 3.402 4.479 0 5.315-.287 5.315-1.826 0-2.995 4.627-6.574 8.5-6.574 3.635 0 7.964 3.137 9.05 6.558.461 1.453 1.601 1.842 5.396 1.842 4.445 0 4.91-.238 6.105-3.123.808-1.951 2.542-3.645 4.621-4.513 3.131-1.309 3.328-1.682 3.328-6.31 0-3.9-.382-5.04-1.842-5.504-3.421-1.086-6.558-5.415-6.558-9.05 0-3.873 3.579-8.5 6.574-8.5 1.539 0 1.826-.836 1.826-5.315 0-5.06-.163-5.392-3.402-6.937-6.917-3.298-6.841-12.509.13-15.748 3.006-1.397 3.23-1.847 3.25-6.531.021-4.686-.185-5.109-2.995-6.17-2.03-.765-3.534-2.374-4.594-4.911-1.441-3.449-1.437-4.064.048-7.178.975-2.045 2.812-3.855 4.594-4.528 2.776-1.048 2.969-1.464 2.969-6.401 0-4.446-.289-5.281-1.826-5.281-2.137 0-5.66-3.562-6.603-6.677-1.035-3.418 1.743-8.796 5.306-10.272 2.897-1.2 3.123-1.649 3.123-6.197 0-4.163-.34-5.033-2.25-5.764-8.11-3.102-8.11-14.078 0-17.18 1.91-.731 2.25-1.601 2.25-5.764 0-4.548-.226-4.997-3.123-6.197-3.563-1.476-6.341-6.854-5.306-10.272.943-3.115 4.466-6.677 6.603-6.677 1.542 0 1.826-.838 1.826-5.379 0-5.08-.173-5.45-3.123-6.672-1.951-.808-3.645-2.542-4.513-4.621-1.306-3.124-1.689-3.328-6.256-3.328-4.48 0-4.965.241-6.128 3.047-1.254 3.028-5.42 5.953-8.48 5.953-3.411 0-7.566-3.078-8.159-6.043-.566-2.834-.813-2.957-5.947-2.957-4.836 0-5.415.236-5.965 2.426-.848 3.381-3.556 5.558-7.759 6.24-3.058.496-4.019.139-6.624-2.466-1.675-1.675-3.046-3.756-3.046-4.623 0-1.245-1.159-1.577-5.5-1.577s-5.5.332-5.5 1.577c0 2.834-5.564 7.423-9 7.423s-9-4.589-9-7.423c0-1.245-1.159-1.577-5.5-1.577-4.748 0-5.5.261-5.5 1.911 0 2.664-5.581 7.089-8.942 7.089-3.49 0-7.634-3.175-8.465-6.484-.57-2.271-1.121-2.516-5.664-2.516-4.704 0-5.102.198-6.089 3.03-1.103 3.163-5.253 5.97-8.826 5.97-3.136 0-6.738-2.77-7.887-6.066-.94-2.697-1.411-2.934-5.825-2.931-4.518.002-4.92.223-6.802 3.73-2.205 4.108-5.814 5.907-9.832 4.899C50.48 34.831 47 31.272 47 28.811 47 27.29 46.149 27 41.68 27c-5.041 0-5.394.17-6.75 3.25m83.898 46.729c-4.698 1.418-4.783 1.686-2.754 8.781 1.059 3.703 1.926 6.804 1.926 6.889s-1.433.655-3.184 1.265c-3.787 1.32-4.024 1.054-5.847-6.543-.721-3.005-1.674-5.688-2.117-5.962-.697-.431-8.865 1.305-8.844 1.88.004.116.9 3.136 1.992 6.711s1.988 6.818 1.992 7.208c.007.594-3.778 1.858-16.166 5.4-1.483.424-1.533.96-.44 4.685l1.233 4.207 5.51-.32c3.689-.214 5.873.117 6.608 1.004C99.983 113.685 111 151.491 111 154.265c0 1.175-1.499 2.448-4.288 3.644-4.235 1.815-4.284 1.894-3.898 6.215.215 2.407.743 4.752 1.173 5.211s4.125-.104 8.211-1.25c4.086-1.147 7.944-2.085 8.573-2.085s2.089 3.172 3.244 7.049c1.685 5.658 2.433 6.951 3.792 6.548.931-.276 2.931-.797 4.443-1.158s2.75-.721 2.75-.801c0-.079-.9-3.292-2-7.138s-2-7.064-2-7.149c0-.173 6.12-2.351 6.607-2.351.17 0 1.26 3.194 2.422 7.098l2.114 7.098 3.678-.676c2.024-.372 4.012-.996 4.419-1.387.406-.392-.148-3.815-1.233-7.607-1.084-3.792-1.867-6.982-1.739-7.087.128-.106 2.866-1.428 6.086-2.938 7.804-3.659 12.157-7.655 14.217-13.048 4.247-11.119-3.248-25.438-13.321-25.449-1.787-.002-3.25-.134-3.25-.293s.9-2.053 2-4.211c2.578-5.056 2.522-8.042-.25-13.53-3.52-6.967-7.389-8.97-17.327-8.97h-8.281l-1.617-5.75c-2.656-9.441-1.972-8.698-6.697-7.271m2.226 26.585c-2.996.823-5.65 1.698-5.898 1.946-.743.743 4.055 17.49 5.011 17.49 2.774 0 12.615-4.375 15.017-6.676 5.403-5.176 2.638-12.487-5.184-13.709-1.925-.3-5.951.127-8.946.949m14.446 25.115c-8.652 1.933-12.498 3.505-12.476 5.099.013.947 1.078 5.322 2.367 9.722 2.149 7.337 2.54 7.971 4.715 7.647 4.818-.718 13.158-4.44 16.476-7.353 5.831-5.12 4.109-12.675-3.361-14.75-3.876-1.076-4.424-1.102-7.721-.365"/><path fill-opacity=".105" fill-rule="evenodd" d="M35 30.272c-.843 1.814-2.914 3.885-4.728 4.728-2.966 1.378-3.23 1.885-3.25 6.231-.02 4.228.245 4.798 2.494 5.362 3.53.886 6.484 5.041 6.484 9.119C36 59.434 31.552 65 28.577 65 27.351 65 27 66.114 27 70s.351 5 1.577 5C31.552 75 36 80.566 36 84.288c0 4.078-2.954 8.233-6.484 9.119-2.267.569-2.516 1.125-2.516 5.612 0 3.642.383 4.981 1.423 4.981.783 0 2.808 1.165 4.5 2.589 5.277 4.44 3.965 12.306-2.503 15.009-3.245 1.356-3.42 1.684-3.42 6.415 0 4.199.295 4.987 1.864 4.987 3.293 0 7.136 4.847 7.136 9s-3.843 9-7.136 9c-1.569 0-1.864.788-1.864 4.987 0 4.731.175 5.059 3.42 6.415 6.332 2.646 7.613 9.719 2.657 14.675-1.608 1.608-3.633 2.923-4.5 2.923-1.225 0-1.577 1.112-1.577 4.981 0 4.487.249 5.043 2.516 5.612 3.53.886 6.484 5.041 6.484 9.119 0 3.722-4.448 9.288-7.423 9.288-1.218 0-1.572 1.082-1.555 4.75.02 4.367.281 4.871 3.25 6.25 1.814.843 3.885 2.914 4.728 4.728 1.371 2.951 1.898 3.231 6.129 3.25 4.224.02 4.739-.244 5.891-3.025 1.402-3.387 5.501-5.953 9.507-5.953 2.916 0 8.473 4.869 8.473 7.423 0 1.226 1.114 1.577 5 1.577 3.609 0 5-.388 5-1.394 0-.767 1.306-2.792 2.901-4.5 4.893-5.238 12.312-3.834 15.083 2.854 1.159 2.799 1.645 3.04 6.137 3.04 3.776 0 4.879-.357 4.879-1.577 0-2.554 5.557-7.423 8.473-7.423 4.346 0 8.527 2.751 9.186 6.043.567 2.836.811 2.957 5.966 2.957 4.625 0 5.375-.267 5.375-1.911 0-2.692 5.582-7.089 9-7.089s9 4.397 9 7.089c0 1.623.743 1.911 4.933 1.911 4.017 0 5.047-.363 5.553-1.956.996-3.139 6.356-7.044 9.668-7.044 3.284 0 8.846 4.667 8.846 7.423 0 1.22 1.103 1.577 4.879 1.577 4.492 0 4.978-.241 6.137-3.04 2.723-6.573 10.048-8.05 15.061-3.037 1.608 1.608 2.923 3.633 2.923 4.5 0 1.218 1.082 1.572 4.75 1.555 4.367-.02 4.871-.281 6.25-3.25.873-1.878 2.859-3.826 4.75-4.658 3.019-1.329 3.25-1.773 3.25-6.25 0-3.722-.359-4.82-1.577-4.82-2.554 0-7.423-5.557-7.423-8.473 0-4.006 2.566-8.105 5.953-9.507 2.807-1.163 3.047-1.647 3.047-6.141 0-3.776-.357-4.879-1.577-4.879-2.756 0-7.423-5.562-7.423-8.846 0-3.571 4.324-9.154 7.089-9.154 1.65 0 1.911-.752 1.911-5.5s-.261-5.5-1.911-5.5c-2.765 0-7.089-5.583-7.089-9.154 0-3.284 4.667-8.846 7.423-8.846 1.228 0 1.577-1.118 1.577-5.052 0-4.635-.231-5.133-2.801-6.029-3.268-1.139-6.199-5.583-6.199-9.4 0-2.961 4.843-8.519 7.423-8.519 1.22 0 1.577-1.103 1.577-4.879 0-4.494-.24-4.978-3.047-6.141-7.949-3.292-7.417-14.926.797-17.429 1.937-.59 2.25-1.373 2.25-5.618 0-3.502-.396-4.933-1.365-4.933-2.601 0-6.561-4.09-7.186-7.422-.821-4.376 1.547-8.92 5.504-10.558 2.781-1.152 3.045-1.667 3.025-5.891-.019-4.231-.299-4.758-3.25-6.129-1.814-.843-3.885-2.914-4.728-4.728-1.379-2.969-1.883-3.23-6.25-3.25-3.668-.017-4.75.337-4.75 1.555 0 2.975-5.566 7.423-9.288 7.423-4.078 0-8.233-2.954-9.119-6.484-.569-2.267-1.125-2.516-5.612-2.516-3.869 0-4.981.352-4.981 1.577 0 .867-1.315 2.892-2.923 4.5-4.956 4.956-12.029 3.675-14.675-2.657-1.356-3.245-1.684-3.42-6.415-3.42-4.359 0-4.987.258-4.987 2.048 0 3.303-4.729 6.952-9.01 6.952-4.143 0-8.99-3.847-8.99-7.136 0-1.564-.786-1.864-4.879-1.864-4.492 0-4.978.241-6.137 3.04-1.67 4.031-4.621 5.96-9.118 5.96-2.891 0-4.248-.665-6.277-3.077-1.424-1.692-2.589-3.717-2.589-4.5 0-1.041-1.342-1.423-5-1.423-3.886 0-5 .351-5 1.577 0 .867-1.315 2.892-2.923 4.5C88.913 35.241 87.205 36 84.5 36s-4.413-.759-6.577-2.923C76.315 31.469 75 29.444 75 28.577 75 27.351 73.886 27 70 27s-5 .351-5 1.577C65 31.552 59.434 36 55.712 36c-4.078 0-8.233-2.954-9.119-6.484-.564-2.249-1.134-2.514-5.362-2.494-4.346.02-4.853.284-6.231 3.25m82.25 46.847c-1.787.516-3.25 1.264-3.25 1.663 0 .398.856 3.719 1.903 7.38l1.904 6.655-2.154.578c-3.979 1.068-4.505.626-6.128-5.145-.89-3.162-1.796-6.283-2.015-6.935-.295-.88-1.378-.92-4.204-.157-2.093.565-4.184 1.386-4.645 1.824-.462.438.047 3.928 1.13 7.755l1.969 6.959-8.13 2.298c-4.472 1.263-8.466 2.59-8.876 2.947s-.154 2.655.569 5.105c1.028 3.482 1.736 4.393 3.246 4.174 1.062-.154 3.574-.545 5.582-.869 2.923-.47 3.849-.215 4.64 1.281 1.816 3.432 12.405 41.414 11.908 42.711-.27.703-2.361 1.839-4.648 2.524l-4.157 1.245.628 4.694c.997 7.459.531 7.236 9.608 4.597 4.547-1.321 8.578-2.403 8.958-2.403.379 0 1.494 2.969 2.476 6.599.982 3.629 2.364 6.82 3.07 7.091 1.86.713 8.367-1.636 8.358-3.018-.004-.644-.845-3.927-1.869-7.294l-1.862-6.122 3.29-1.01 3.291-1.01 1.737 6.632c.955 3.648 2.004 6.94 2.329 7.318 1.087 1.259 9.092-1.51 9.084-3.143-.004-.848-.845-4.297-1.869-7.663l-1.861-6.121 5.559-2.304c6.567-2.722 12.949-8.174 14.832-12.673 1.631-3.897 1.718-9.406.232-14.759-1.278-4.604-7.695-11.523-10.686-11.523-4.488 0-5.161-.846-3.616-4.543 3.164-7.575.465-16.401-6.302-20.604-3.191-1.983-5.056-2.34-11.958-2.293l-8.177.056-1.766-6.808c-1.884-7.267-2.113-7.427-8.13-5.689m2.072 27.207c-1.748.646-3.41 1.411-3.693 1.7-.283.29.525 4.115 1.795 8.5 2.121 7.322 2.505 7.946 4.693 7.631 3.819-.551 11.586-4.172 13.512-6.299 2.604-2.878 2.319-8.672-.54-10.987-2.673-2.164-10.637-2.44-15.767-.545m9.351 26.348c-6.604 1.79-6.383.623-2.573 13.576 1.227 4.175 2.519 6.75 3.385 6.75.77 0 4.582-1.179 8.47-2.62 10.816-4.009 14.912-10.618 10.194-16.445-2.39-2.951-11.149-3.519-19.476-1.261"/></svg>