<svg xmlns="http://www.w3.org/2000/svg" width="256" height="256"><path fill-opacity=".016" fill-rule="evenodd" d="M0 128.004v128.004l128.25-.254 128.25-.254.254-127.75L257.008 0H0zm.485.496c0 70.4.119 99.053.265 63.672s.146-92.98 0-128S.485 58.1.485 128.5"/><path fill-opacity=".139" fill-rule="evenodd" d="M105.922 1.552C59.46 9.965 21.396 42.712 6.599 87 1.869 101.16 0 112.769 0 128c0 60.448 39.508 109.954 100 125.307 7.271 1.846 11.319 2.158 28 2.158s20.729-.312 28-2.158c38.417-9.75 67.832-32.313 85.534-65.609 5.12-9.631 10.878-26.306 12.498-36.198.631-3.85 1.557-7.781 2.058-8.736 1.065-2.032 1.253-31.441.194-30.381-.394.393-1.305-2.769-2.024-7.029-5.916-35.027-27.961-67.15-59.792-87.125-11.842-7.431-29.655-14.031-45.178-16.738-10.573-1.843-33.025-1.812-43.368.061m9.828 48.286c-3.162.865-5.75 1.961-5.75 2.436s1.146 5.386 2.548 10.914c1.401 5.527 2.347 10.25 2.103 10.494-.954.955-10.67 3.096-11.075 2.441-.236-.383-1.549-5.103-2.917-10.49s-2.741-10.048-3.052-10.359c-.524-.525-11.384 2.17-12.255 3.041-.216.215.741 4.62 2.126 9.788s2.518 10.114 2.519 10.99c.002 1.202-3.124 2.401-12.747 4.887-7.013 1.811-13.079 3.583-13.481 3.938-.402.354.076 3.555 1.062 7.113 1.264 4.558 2.218 6.367 3.231 6.124 10.021-2.401 12.131-2.557 14.751-1.091 2.492 1.394 3.285 3.783 10.941 32.969 4.54 17.307 8.14 32.578 8 33.935-.282 2.741-2.958 4.455-9.444 6.048l-4.19 1.029.567 7.227c.312 3.976.894 7.589 1.292 8.03.399.441 6.165-.571 12.815-2.25S115.503 184 116.261 184c.922 0 2.159 3.305 3.732 9.972 1.295 5.485 2.665 10.475 3.045 11.09.496.802 2.423.632 6.826-.604 3.375-.947 6.133-2 6.13-2.34s-1.315-5.448-2.916-11.352l-2.91-10.734 4.166-1.076c2.291-.591 4.93-1.296 5.864-1.566 1.79-.518 1.817-.447 5.284 13.61.882 3.575 1.781 7.027 1.999 7.671.294.871 1.887.782 6.207-.346 3.197-.834 6.117-1.705 6.489-1.935.373-.23-.618-5.248-2.202-11.152s-2.564-11.018-2.177-11.365c.386-.347 2.502-1.197 4.702-1.889 11.41-3.586 20.722-10.775 24.952-19.263 2.984-5.988 3.503-16.5 1.099-22.253-3.364-8.05-11.279-14.888-20.301-17.537-2.338-.686-4.25-1.42-4.25-1.631s.953-1.377 2.118-2.592c7.093-7.397 6.425-22.608-1.356-30.873-5.33-5.662-10.225-7.286-22.738-7.543l-11.476-.235-1.132-3.279c-.623-1.803-1.954-6.765-2.957-11.028-1.004-4.263-2.08-7.69-2.392-7.617s-3.155.84-6.317 1.705m-.535 40.101c-3.457.989-6.483 1.995-6.724 2.237-.414.414 6.323 26.935 7.028 27.664.181.188 4.026-.594 8.545-1.737 14.036-3.549 20.929-9.182 20.929-17.103 0-4.427-3.026-9.448-6.899-11.451-4.018-2.078-14.894-1.893-22.879.39M.402 128c0 8.525.154 12.012.341 7.75s.188-11.237 0-15.5c-.187-4.263-.341-.775-.341 7.75m137.098.705c-1.65.224-6.488 1.33-10.75 2.46-5.577 1.478-7.75 2.502-7.75 3.652 0 1.56 6.996 28.327 7.591 29.045.675.814 16.307-3.223 21.671-5.596 12.971-5.74 17.583-17.575 9.858-25.3-4.233-4.233-10.797-5.589-20.62-4.261"/><path fill-opacity=".204" fill-rule="evenodd" d="M108 1.651c-5.225.799-14.072 2.979-19.66 4.844-20.441 6.819-34.765 15.741-50.435 31.41C22.16 53.65 13.128 68.196 6.464 88.541-5.789 125.946-.007 166.661 22.293 200c6.446 9.636 24.071 27.261 33.707 33.707 44.131 29.519 99.869 29.519 144 0 9.636-6.446 27.261-24.071 33.707-33.707 10.408-15.56 18.048-34.779 20.298-51.062.642-4.641 1.578-9.219 2.081-10.174 1.115-2.119 1.232-23.079.125-22.395-.433.268-1.331-3.497-1.994-8.367-1.439-10.565-6.599-26.84-11.76-37.087-12.041-23.911-33.511-45.399-57.297-57.345C162.107 1.993 134.063-2.339 108 1.651m7.003 48.02c-3.023.819-5.587 1.58-5.697 1.69s1.069 5.217 2.621 11.35l2.821 11.15-4.955 1.189c-2.786.668-5.298.808-5.738.319-.431-.478-1.322-3.119-1.98-5.869a284 284 0 0 0-2.665-10.107l-1.469-5.106-6.47 1.548c-4.552 1.089-6.465 2.01-6.451 3.107.011.857 1.11 5.805 2.443 10.996s2.23 9.749 1.995 10.13-6.285 2.148-13.443 3.928S63 87.65 63 88.161c0 .51.739 3.869 1.642 7.463 1.47 5.854 1.861 6.473 3.75 5.937 9.384-2.662 11.813-2.799 14.475-.815 2.353 1.753 3.509 5.354 10.872 33.853 4.532 17.541 8.005 32.634 7.717 33.539-.544 1.714-3.497 3.168-9.456 4.654l-3.5.873.321 8.405c.176 4.622.428 8.512.56 8.645s6.234-1.341 13.56-3.274c7.326-1.932 13.509-3.324 13.741-3.093.231.232 1.593 4.861 3.026 10.287s2.937 10.245 3.344 10.71c.991 1.134 12.03-1.394 12.602-2.886.249-.648-.722-5.811-2.158-11.474-2.07-8.167-2.344-10.461-1.323-11.092 1.57-.97 8.798-2.255 9.385-1.668.233.232 1.631 5.115 3.107 10.849s2.78 10.564 2.899 10.732c.226.321 12.719-2.771 13.234-3.276.163-.161-.873-4.909-2.303-10.551-1.431-5.643-2.404-10.773-2.163-11.401.24-.627 2.932-1.926 5.982-2.888 10.63-3.351 20.698-11.687 24.18-20.023 4.512-10.797 2.355-21.963-5.81-30.087-5.273-5.246-12.895-9.58-16.847-9.58h-2.186l2.058-2.25c10.75-11.757 6.187-31.112-8.915-37.816-4.502-1.999-6.881-2.345-15.901-2.311l-10.607.04-1.755-7.447c-3.792-16.082-2.732-14.928-11.528-12.545m6.497 38.978c-9.672 2.509-12.5 3.642-12.5 5.01 0 .834 1.463 6.919 3.25 13.523l3.25 12.007 4.835-.64c17.104-2.265 28.436-13.423 23.022-22.67-3.115-5.318-6.629-7.258-13.618-7.517-3.431-.128-7.139.002-8.239.287M.378 128c0 6.325.163 8.912.361 5.75s.198-8.338 0-11.5-.361-.575-.361 5.75m127.122 3.24c-4.4 1.124-8.169 2.187-8.375 2.361-.304.256 5.905 24.795 7.356 29.074.3.884 1.964.82 6.709-.257 20.681-4.697 27.798-10.078 27.806-21.022.004-5.626-2.565-9.521-7.523-11.406-4.189-1.593-17.326-.961-25.973 1.25"/><path fill-opacity=".139" fill-rule="evenodd" d="M115.265.972C65.517 6.612 24.452 38.966 7.641 85.766c-9.362 26.065-9.362 58.403 0 84.468 15.375 42.802 50.825 73.524 95.625 82.87 14.256 2.974 35.212 2.974 49.468 0 44.864-9.359 80.218-39.999 95.624-82.87 3.266-9.091 6.642-25.425 6.642-32.141 0-2.801.45-5.093 1-5.093.562 0 .993-2.74.985-6.25-.011-4.404-.302-5.807-.985-4.75-.693 1.072-.974-.024-.985-3.843-.008-2.939-.922-9.794-2.031-15.234-10.299-50.54-49.455-89.735-99.75-99.849C141.643.743 125.278-.163 115.265.972m-.6 48.517c-2.659.741-5.043 1.555-5.297 1.81-.255.255.683 4.986 2.084 10.513S114 72.268 114 72.763c0 1.311-9.352 3.285-10.069 2.126-.321-.52-1.643-5.432-2.938-10.917C99.699 58.487 98.264 54 97.805 54c-.853 0-13.061 3.198-13.604 3.563-.164.111 1.039 5.196 2.675 11.301l2.974 11.099-4.175 1.09c-10.387 2.711-23.193 6.183-23.371 6.336-.107.093.603 3.306 1.578 7.14 1.984 7.8.898 7.291 12.647 5.931 4.858-.562 6.282-.393 7.33.871C85.312 103.08 101 162.605 101 166.365c0 2.935-1.454 4.182-6 5.147-7.869 1.67-7.669 1.367-6.888 10.459.386 4.497.914 8.389 1.173 8.647s6.564-1.065 14.011-2.941l13.541-3.413 2.699 10.882c1.485 5.985 3.018 11.078 3.407 11.319.851.526 12.249-2.33 13.292-3.331.588-.563-2.081-12.405-4.791-21.254-.356-1.163.324-1.784 2.413-2.201 1.6-.32 4-.856 5.332-1.19 2.338-.587 2.505-.259 4.79 9.424 1.303 5.517 2.704 10.574 3.113 11.236.581.94 1.92.941 6.077.004 8.771-1.978 8.659-1.759 6.058-11.863a2202 2202 0 0 0-2.83-10.919c-.497-1.868.197-2.388 5.645-4.228 11.181-3.776 19.616-10.47 24.121-19.143 3.094-5.957 3.322-18.517.441-24.317-3.689-7.428-12.106-13.981-22.004-17.131-1.835-.584-1.828-.681.202-2.842 3.022-3.216 5.198-8.998 5.198-13.812 0-7.082-2.112-12.043-7.479-17.562-6.489-6.674-12.989-8.772-25.189-8.132l-8.351.438-1.13-4.071a706 706 0 0 1-2.8-10.571c-1.893-7.37-2.518-7.702-10.386-5.511m9.835 39.165c-8.607 1.818-15.5 3.655-15.5 4.13 0 1.535 6.381 24.821 6.991 25.513 1.008 1.143 13.7-1.97 19.009-4.662 8.979-4.553 12.033-14.756 6.171-20.618-3.934-3.934-10.529-5.66-16.671-4.363M.32 128c0 3.575.182 5.037.403 3.25s.222-4.713 0-6.5C.502 122.963.32 124.425.32 128m133.773 2.084c-2.424.476-6.779 1.555-9.678 2.398l-5.271 1.532 2.481 9.243a1697 1697 0 0 0 3.979 14.572l1.498 5.33 4.199-.693c13.974-2.305 24.795-7.884 28.25-14.565 3.494-6.756.71-14.64-6.187-17.522-3.619-1.512-12.385-1.646-19.271-.295"/></svg>