<?xml version="1.0" encoding="UTF-8"?>
<svg id="Layer_1" data-name="Layer 1" xmlns="http://www.w3.org/2000/svg" xmlns:xlink="http://www.w3.org/1999/xlink" viewBox="0 0 974.65 505.26">
  <defs>
    <linearGradient id="linear-gradient" x1="209.88" y1="515.04" x2="209.88" y2="1.16" gradientTransform="translate(0 506.42) scale(1 -1)" gradientUnits="userSpaceOnUse">
      <stop offset="0" stop-color="#a7d736"/>
      <stop offset="1" stop-color="#bce474"/>
    </linearGradient>
    <linearGradient id="linear-gradient-2" x1="42.92" y1="147.08" x2="448.34" y2="258.74" gradientTransform="translate(0 506.42) scale(1 -1)" gradientUnits="userSpaceOnUse">
      <stop offset=".51" stop-color="#a7d939"/>
      <stop offset="1" stop-color="#c4e892" stop-opacity=".44"/>
    </linearGradient>
    <linearGradient id="linear-gradient-3" x1="787.92" y1="522.22" x2="559.72" y2="358.65" gradientTransform="translate(0 506.42) scale(1 -1)" gradientUnits="userSpaceOnUse">
      <stop offset=".39" stop-color="#abdb51"/>
      <stop offset="1" stop-color="#c4e892" stop-opacity=".44"/>
    </linearGradient>
    <linearGradient id="linear-gradient-4" x1="910.65" y1="327.42" x2="682.43" y2="163.84" gradientTransform="translate(0 506.42) scale(1 -1)" gradientUnits="userSpaceOnUse">
      <stop offset=".39" stop-color="#abdb51"/>
      <stop offset="1" stop-color="#c4e892" stop-opacity=".44"/>
    </linearGradient>
    <linearGradient id="linear-gradient-5" x1="876.9" y1="213.36" x2="648.24" y2="49.46" gradientTransform="translate(0 506.42) scale(1 -1)" gradientUnits="userSpaceOnUse">
      <stop offset=".39" stop-color="#abdb51"/>
      <stop offset="1" stop-color="#c4e892" stop-opacity=".44"/>
    </linearGradient>
    <linearGradient id="linear-gradient-6" x1="812.06" y1="180.66" x2="634.83" y2="47.31" gradientTransform="translate(0 506.42) scale(1 -1)" gradientUnits="userSpaceOnUse">
      <stop offset=".39" stop-color="#abdb51"/>
      <stop offset="1" stop-color="#c4e892" stop-opacity=".44"/>
    </linearGradient>
    <linearGradient id="linear-gradient-7" x1="656.77" y1="200.91" x2="480.98" y2="68.63" gradientTransform="translate(0 506.42) scale(1 -1)" gradientUnits="userSpaceOnUse">
      <stop offset=".39" stop-color="#abdb51"/>
      <stop offset="1" stop-color="#c4e892" stop-opacity=".44"/>
    </linearGradient>
    <linearGradient id="linear-gradient-8" x1="291.21" y1="80.34" x2="251.33" y2="295.56" gradientTransform="translate(0 506.42) scale(1 -1)" gradientUnits="userSpaceOnUse">
      <stop offset=".39" stop-color="#abdb51"/>
      <stop offset="1" stop-color="#c4e892" stop-opacity=".44"/>
    </linearGradient>
    <linearGradient id="linear-gradient-9" x1="274.01" y1="411.52" x2="408.33" y2="233.57" gradientTransform="translate(0 506.42) scale(1 -1)" gradientUnits="userSpaceOnUse">
      <stop offset=".39" stop-color="#a1d23a"/>
      <stop offset="1" stop-color="#c4e892" stop-opacity=".44"/>
    </linearGradient>
  </defs>
  <path d="M.05.21h974.1v505.05H.05V.21Z" style="fill: #e8f1b8;"/>
  <path d="M419.7,301.77l-196.97,203.49H.05l419.65-203.49Z" style="fill: url(#linear-gradient);"/>
  <path d="M461.39,253.23L.05,504.77V237.54l461.34,15.69Z" style="fill: url(#linear-gradient-2); fill-opacity: .56;"/>
  <path d="M495.15,242.48L348.15.7,576.58,0l-81.42,242.48Z" style="fill: rgba(216, 238, 138, .56);"/>
  <path d="M521.65,261.15L621.62,0h288.53s-388.5,261.15-388.5,261.15Z" style="fill: url(#linear-gradient-3); fill-opacity: .56;"/>
  <path d="M514.89,276.88L973.65.7v318.93l-458.76-42.75Z" style="fill: url(#linear-gradient-4); fill-opacity: .56;"/>
  <path d="M495.9,285.1l477.75-130.92v350.59l-477.75-219.67Z" style="fill: url(#linear-gradient-5); fill-opacity: .56;"/>
  <path d="M486.65,297.36l450,207.91h-356l-94-207.91Z" style="fill: url(#linear-gradient-6); fill-opacity: .56;"/>
  <path d="M461.15,283.14l155.5,222.12H227.15l234-222.12Z" style="fill: url(#linear-gradient-7); fill-opacity: .56;"/>
  <path d="M470.6,248.29L.05.7h352.99l117.55,247.59Z" style="fill: url(#linear-gradient-8); fill-opacity: .56;"/>
  <path d="M469.87,248.29L53.65.7h298.5s117.72,247.59,117.72,247.59Z" style="fill: url(#linear-gradient-9); fill-opacity: .56;"/>
  <path d="M441.42,241.96H0L.21,9.21l441.21,232.75Z" style="fill: rgba(169, 214, 61, .62);"/>
  <path d="M441.42,241.96H0L.21,9.21l441.21,232.75Z" style="fill: rgba(184, 226, 105, .37);"/>
  <rect x="294.65" y=".21" width="21" height="505.05"/>
  <rect x="647.65" y=".21" width="21" height="505.05"/>
  <path d="M568.24,216.14c17.68-13.68,26.47-33.1,17.73-60.59-11.88-37.57-49.26-43.2-93.83-37.73l-11.12-53.23-33.94,7.08,10.81,51.84c-8.93,1.86-18,3.93-27.02,5.99l-10.89-52.17-33.91,7.07,11.1,53.22c-7.32,1.68-14.51,3.32-21.55,4.79l-.03-.16-46.81,9.75,7.23,34.6s24.97-5.68,24.65-5.16c13.74-2.86,19.82,3.83,22.48,10.14l12.66,60.64,17.77,85.19c.26,4.25-.91,11.38-10.52,13.4.51.28-24.69,5.15-24.69,5.15l1.34,40.1,44.16-9.21c8.23-1.71,16.34-3.27,24.28-4.87l11.26,53.83,33.9-7.06-11.13-53.27c9.36-1.76,18.38-3.56,27.17-5.41l11.05,53.03,33.94-7.08-11.2-53.75c56.39-15.03,93.46-37.09,87.75-89.29-4.59-42.03-28.73-56.18-62.66-56.84ZM439.64,167.43c19.14-3.99,78.12-22.38,86.1,15.81,7.63,36.61-53.44,44.89-72.6,48.89l-13.5-64.7ZM474.82,336.12l-14.87-71.34c22.99-4.8,93.81-26.17,102.57,15.8,8.41,40.25-64.7,50.72-87.7,55.54Z" style="fill: rgba(151, 222, 98, .73);"/>
  <rect x="42.15" y="54.71" width="200" height="200" rx="8.5" ry="8.5" style="fill: #fff; stroke: #000; stroke-width: 7px;"/>
  <path d="M174.54,379.51l.1.37h9.52v17.97h5.98v30.58h-5.98v18.28h-86.02v-66.83h10.63l.1-.05,43.36-20.95,5.27,10.38.18.36.39-.1,12.71-3.38,3.75,13.39ZM167.05,373.19l-.13-.48-.48.13-5.66,1.51-6.41,1.71-10.66,2.84.13.98h25.09l-.18-.64-1.69-6.05ZM178.15,441.35h.5v-12.92h-33.27v-30.58h33.27v-12.61h-74.97v56.11h74.47ZM184.13,423.07h.5v-19.85h-33.73v19.85h33.23ZM149.97,366.51l-.22-.44-.44.21-20.89,10.1.35.93,22.92-6.1.6-.16-.28-.55-2.03-3.99Z" style="stroke: #15ff00;"/>
  <path d="M163.88,411.31v-.63h5.39v5.23h-5.39v-4.6Z" style="stroke: #15ff00;"/>
  <rect x="148.65" y="399.02" width="37" height="28.19"/>
  <path d="M174.98,411c1.38-.99,2.07-2.34,1.41-4.18-.89-2.5-3.79-2.74-7.24-2.21l-.82-3.57-2.63.61.8,3.48c-.69.16-1.4.33-2.1.51l-.81-3.5-2.63.61.82,3.57c-.57.14-1.12.28-1.67.4h0s-3.63.83-3.63.83l.54,2.32s1.94-.48,1.91-.44c1.07-.24,1.53.18,1.73.6l.94,4.07,1.32,5.71c.02.29-.08.78-.82.95.04.02-1.91.44-1.91.44l.08,2.71,3.43-.79c.64-.15,1.27-.28,1.88-.42l.84,3.61,2.63-.61-.83-3.57c.73-.15,1.43-.31,2.11-.47l.82,3.56,2.63-.61-.83-3.6c4.38-1.23,7.26-2.87,6.85-6.39-.33-2.83-2.19-3.7-4.81-3.62ZM165.05,408.18c1.49-.34,6.06-1.81,6.65.75.57,2.45-4.17,3.25-5.65,3.59l-1-4.34ZM167.66,419.49l-1.1-4.78c1.78-.41,7.28-2.13,7.93.69.62,2.7-5.04,3.68-6.83,4.1Z" style="fill: #fff;"/>
  <rect x="724.15" y="208.71" width="200" height="200" rx="8.5" ry="8.5" style="fill: #fff; stroke: #000; stroke-width: 7px;"/>
  <path d="M833.21,113.22c2.39-3.32,6.44-5.51,11.06-5.51,7.4,0,13.35,5.61,13.35,12.45,0,6.24-4.93,11.44-11.41,12.32.03-.4.04-.81.04-1.22,0-8.19-5.43-15.17-13.04-18.05Z" style="stroke: #15ff00;"/>
  <path d="M824.29,128.31v3.11h1.68c1.2,0,2.01-.79,2.01-1.56l-3.69-1.55ZM824.29,128.31h1.68c1.2,0,2.01.79,2.01,1.55l-3.69-1.55Z" style="stroke: #15ff00;"/>
  <path d="M831.77,132.86h0c0-2.76-2.69-4.84-5.79-4.84h-3.85c-.86,0-1.61.66-1.61,1.54v10.63c0,.88.75,1.54,1.61,1.54h.56c.86,0,1.61-.66,1.61-1.54v-2.49h1.68c3.1,0,5.79-2.08,5.79-4.84ZM810.15,134.27c0-7.87,6.83-14.3,15.33-14.3s15.33,6.44,15.33,14.3-6.83,14.3-15.33,14.3-15.33-6.43-15.33-14.3Z" style="stroke: #15ff00;"/>
  <path d="M823.24,161.04v.03c-1.3,0-2.41.97-2.47,2.26h0c-.04,1.32,1.05,2.38,2.39,2.42h.1s.07-.03.07-.03h20.66l.12-.07-.26-.43q.26.43.26.42h0s0,0,0,0l.04-.02.14-.09.54-.34c.47-.29,1.14-.7,1.96-1.21,1.63-1.01,3.83-2.37,6.11-3.8,4.52-2.83,9.4-5.93,10.69-6.93,1.28-.88,2.88-1.43,4.4-1.5,1.53-.07,2.93.34,3.9,1.33h0c1.01,1.03,1.49,2.2,1.48,3.32-.02,1.11-.52,2.22-1.61,3.16-1.26.98-10.26,6.91-18.99,12.63-4.37,2.86-8.66,5.66-11.86,7.75-1.6,1.04-2.93,1.91-3.85,2.51l-1.07.7-.28.18-.07.05h-.02s0,.01,0,.01h0s0,0,.27.42l-.27-.42h0c-1.42.94-3.19,1.31-4.91,1.02l-26.41-4.49h0c-.91-.15-1.85.08-2.56.65h0s-16.95,13.6-16.95,13.6c-.11.09-.27.11-.42.05-.14-.06-.2-.18-.2-.28v-23.82c0-.55.26-1.08.71-1.45h0s8.77-7.17,8.77-7.17h.01s.01-.02.01-.02c.41-.38.81-.77,1.21-1.15,2.01-1.93,4.03-3.86,6.83-5.42,3.34-1.86,7.79-3.19,14.63-3.19h22.09c2.81,0,5.02,2.12,5.02,4.67s-2.22,4.67-5.02,4.67v.5-.5h-15.19Z" style="stroke: #15ff00;"/>
  <circle cx="824.65" cy="133.21" r="10"/>
  <path d="M830.58,131.52c1.06-.78,1.58-1.84,1.07-3.29-.7-1.98-2.93-2.19-5.59-1.78l-.65-2.83-2.03.47.64,2.75c-.53.12-1.07.26-1.61.39l-.64-2.77-2.02.47.65,2.83c-.44.11-.87.21-1.29.31h0s-2.79.64-2.79.64l.42,1.84s1.49-.37,1.47-.34c.82-.19,1.18.15,1.34.49l.74,3.22,1.04,4.52c.02.23-.06.61-.63.75.03.01-1.47.34-1.47.34l.07,2.15,2.64-.61c.49-.11.98-.22,1.45-.32l.66,2.86,2.02-.47-.65-2.83c.56-.12,1.1-.24,1.62-.36l.65,2.82,2.03-.47-.66-2.85c3.37-.95,5.58-2.23,5.25-5.02-.27-2.24-1.7-2.94-3.73-2.89ZM822.92,129.25c1.14-.26,4.66-1.4,5.13.62.45,1.94-3.2,2.55-4.34,2.81l-.79-3.43ZM824.98,138.2l-.87-3.79c1.37-.32,5.6-1.65,6.12.58.49,2.14-3.87,2.89-5.24,3.21Z" style="fill: #fff;"/>
  <g>
    <path d="M309.79,496.98c0,.48-.02.97-.06,1.48s-.1.96-.19,1.37l-8.04-1.92c-.09-.46-.15-.93-.18-1.43-.03-.5-.05-.96-.05-1.37,0-.48.05-.89.15-1.24.1-.35.23-.63.4-.85s.37-.38.59-.49c.23-.11.47-.16.73-.16.18,0,.36.02.55.05.19.04.38.11.57.22s.37.26.53.44c.17.19.32.43.46.74.16-.36.38-.62.65-.79s.58-.25.92-.25c.38,0,.75.08,1.11.23.36.15.67.4.95.73.28.34.5.77.66,1.31.16.54.25,1.19.25,1.96ZM304.65,496.8v-1.18c0-.48-.1-.84-.31-1.07-.21-.24-.46-.35-.74-.35-.15,0-.28.03-.39.1-.11.07-.19.16-.26.27-.06.11-.11.24-.14.38-.03.14-.04.29-.04.44,0,.17,0,.35.02.54.01.19.03.34.04.43l1.82.43ZM306.05,497.15l2.16.52c.02-.13.04-.29.05-.49.01-.2.02-.38.02-.55,0-.24-.02-.48-.05-.71-.04-.24-.1-.45-.2-.64-.1-.19-.23-.34-.4-.46-.17-.12-.38-.18-.65-.18-.11,0-.22.02-.34.07-.11.04-.21.11-.3.21-.09.1-.16.22-.22.38-.06.16-.08.34-.08.56v1.29Z" style="fill: #fff;"/>
    <path d="M302.61,489.35c0,.25-.07.47-.22.67-.15.2-.37.3-.68.3-.17,0-.33-.03-.47-.1-.15-.07-.28-.16-.38-.27s-.19-.24-.26-.39c-.06-.15-.1-.31-.1-.47,0-.25.07-.47.22-.67.15-.2.37-.3.68-.3.17,0,.33.03.47.1.15.07.28.16.38.27.11.11.19.24.26.39s.1.31.1.47ZM309.69,490.21v1.78l-6.31-1.5v-1.79l6.31,1.51Z" style="fill: #fff;"/>
    <path d="M301.8,486.88l-.29-1.86,1.86.46v-1.99l1.46.36v1.98l2.21.53c.18.05.36.08.52.09s.3,0,.41-.06c.12-.05.21-.14.27-.27.06-.13.1-.3.1-.53,0-.19-.02-.38-.05-.56s-.09-.36-.15-.55l1.37-.13c.09.24.16.5.23.78.06.28.1.61.1,1,0,.55-.08.98-.25,1.29-.16.3-.39.52-.67.65s-.61.18-.98.17-.76-.07-1.16-.17l-4.97-1.18Z" style="fill: #fff;"/>
    <path d="M307.17,483.42c-.54,0-1.06-.09-1.54-.26s-.9-.43-1.26-.76c-.36-.33-.64-.73-.85-1.19-.21-.47-.31-.99-.31-1.57,0-.36.03-.68.1-.97.07-.28.16-.54.27-.77l1.39.61c-.06.16-.12.33-.17.5-.05.17-.08.38-.08.63,0,.6.2,1.07.61,1.42.4.34.95.52,1.65.52.41,0,.74-.09.99-.26.25-.18.38-.5.38-.97,0-.23-.02-.46-.07-.67-.05-.22-.11-.41-.18-.58l1.43-.13c.09.22.17.47.23.74.07.27.1.59.1.98,0,.5-.07.92-.22,1.26s-.34.63-.58.85c-.24.22-.53.39-.86.49s-.67.15-1.03.15Z" style="fill: #fff;"/>
    <path d="M309.85,475.46c0,.42-.06.79-.19,1.1-.13.31-.31.57-.54.77s-.51.36-.82.46c-.32.1-.67.16-1.05.16-.48,0-.96-.08-1.44-.23-.48-.16-.91-.39-1.3-.69-.38-.3-.7-.68-.94-1.12-.24-.44-.37-.94-.37-1.51,0-.42.06-.78.19-1.1.13-.32.31-.58.54-.78.23-.2.51-.36.82-.46.32-.1.67-.16,1.05-.16.48,0,.96.08,1.44.23s.91.38,1.3.67c.38.3.7.67.94,1.11.24.44.37.96.37,1.54ZM304.72,474.58c0,.26.08.5.23.7.15.2.34.37.58.5.23.14.49.24.76.31.28.07.54.1.79.1.41,0,.72-.06.94-.19.22-.13.33-.36.33-.7,0-.26-.08-.5-.23-.7-.15-.2-.34-.37-.58-.5-.23-.14-.49-.24-.76-.31-.28-.07-.54-.1-.79-.1-.41,0-.72.06-.94.19-.22.13-.33.36-.33.7Z" style="fill: #fff;"/>
    <path d="M302.61,468.79c0,.25-.07.47-.22.67-.15.2-.37.3-.68.3-.17,0-.33-.03-.47-.1-.15-.07-.28-.16-.38-.27s-.19-.24-.26-.39c-.06-.15-.1-.31-.1-.47,0-.25.07-.47.22-.67.15-.2.37-.3.68-.3.17,0,.33.03.47.1.15.07.28.16.38.27.11.11.19.24.26.39.06.15.1.31.1.47ZM309.69,469.66v1.78l-6.31-1.5v-1.79l6.31,1.51Z" style="fill: #fff;"/>
    <path d="M303.66,466.58c-.04-.14-.09-.29-.14-.45-.05-.16-.1-.35-.14-.55-.04-.2-.08-.43-.11-.68-.03-.25-.04-.54-.04-.86,0-.94.27-1.59.82-1.94.54-.35,1.29-.41,2.23-.18l3.41.82v1.79l-3.34-.79c-.21-.05-.41-.09-.61-.12-.2-.03-.37-.03-.52,0s-.27.11-.36.22c-.09.12-.14.29-.14.53s.02.47.07.71l4.88,1.16v1.79l-6.02-1.45Z" style="fill: #fff;"/>
    <path d="M309.33,454.7c.16.33.29.69.38,1.09.1.4.14.89.14,1.46,0,.5-.08.95-.25,1.36-.16.41-.4.76-.7,1.06-.3.29-.67.52-1.11.68s-.93.24-1.47.24c-.62,0-1.24-.11-1.86-.33-.62-.22-1.17-.54-1.65-.97-.48-.43-.88-.95-1.18-1.57-.3-.62-.46-1.33-.46-2.14,0-.38.04-.76.13-1.13.09-.37.24-.76.47-1.17l1.45.67c-.18.34-.3.64-.36.9s-.1.55-.1.85c0,.46.09.87.28,1.23.18.36.43.68.75.94.32.26.68.46,1.1.59s.86.2,1.32.2c.7,0,1.22-.15,1.54-.46.32-.31.48-.75.48-1.33,0-.38-.04-.74-.12-1.06-.08-.32-.18-.63-.31-.91l1.52-.21Z" style="fill: #fff;"/>
    <path d="M306.96,447.9c.46.11.91.14,1.37.1.46-.05.87-.14,1.23-.28l.23,1.6c-.1.05-.19.09-.28.13s-.19.08-.3.12c.18.22.34.47.46.74.12.27.18.58.18.91,0,.4-.07.74-.21,1.03-.14.28-.33.52-.56.7s-.51.31-.83.39c-.32.08-.65.12-1.01.12-.55,0-1.07-.1-1.56-.29-.49-.2-.91-.47-1.28-.82-.36-.35-.65-.76-.86-1.23s-.31-.98-.31-1.54c0-.07,0-.2.01-.38,0-.18.03-.39.05-.62.03-.23.07-.48.14-.73.06-.26.15-.5.26-.73l3.26.78ZM304.75,449.15c-.02.1-.03.2-.04.28,0,.08-.01.19-.01.31,0,.27.07.53.2.76s.31.44.53.62c.22.18.47.31.76.41s.59.15.9.15c.38,0,.69-.06.91-.19s.34-.36.34-.71c0-.18-.04-.35-.11-.5-.07-.15-.19-.31-.36-.47-.2-.02-.41-.04-.63-.08-.22-.04-.42-.07-.61-.11l-1.9-.47Z" style="fill: #fff;"/>
    <path d="M308.41,444.71c0-.41-.06-.69-.17-.84-.12-.15-.24-.23-.38-.23-.09,0-.16.01-.23.04-.06.03-.12.07-.18.14s-.11.15-.17.26c-.06.11-.13.26-.21.43-.09.2-.18.39-.28.56s-.22.33-.36.46c-.14.13-.3.24-.48.31-.18.08-.39.12-.64.12-.65,0-1.16-.24-1.54-.71-.38-.48-.56-1.17-.56-2.08,0-.43.05-.82.14-1.15.1-.34.2-.61.31-.82l1.33.61c-.09.17-.17.38-.25.65-.08.26-.12.52-.12.78,0,.11,0,.22.02.33.01.11.04.21.08.3.04.09.1.17.17.22.07.06.17.08.29.08.16,0,.28-.06.36-.19s.18-.3.29-.52c.15-.31.29-.57.42-.78.13-.21.26-.37.41-.5s.31-.21.49-.27c.18-.06.4-.08.65-.08s.51.05.76.16c.25.11.47.28.66.51.19.23.35.53.47.89.12.36.18.79.18,1.3,0,.31-.02.59-.06.85s-.09.47-.15.67-.12.35-.19.49-.12.23-.16.31l-1.37-.61c.08-.14.18-.35.3-.64.12-.29.18-.64.18-1.04Z" style="fill: #fff;"/>
    <path d="M303.27,436.7c0-.34.05-.64.15-.89s.24-.45.42-.61c.18-.16.39-.28.64-.36s.52-.12.8-.12c.34,0,.67.04,1,.12l3.41.82v1.79l-3.34-.79c-.14-.03-.28-.06-.43-.09-.15-.03-.3-.04-.43-.04-.21,0-.39.05-.53.16-.15.11-.22.31-.22.62,0,.13,0,.25.02.37.02.12.04.23.06.34l4.87,1.16v1.79l-9.02-2.16-.29-1.86,3.01.73c-.03-.16-.06-.32-.08-.49-.02-.16-.04-.33-.04-.49Z" style="fill: #fff;"/>
    <path d="M309.79,425.52c0,.48-.02.97-.06,1.48s-.1.96-.19,1.37l-8.04-1.92c-.09-.46-.15-.93-.18-1.43-.03-.5-.05-.96-.05-1.37,0-.48.05-.89.15-1.24.1-.35.23-.63.4-.85.17-.22.37-.38.59-.49s.47-.16.73-.16c.18,0,.36.02.55.05.19.04.38.11.57.21.19.11.37.26.53.44s.32.43.46.74c.16-.36.38-.62.65-.79s.58-.25.92-.25c.38,0,.75.08,1.11.23.36.15.67.4.95.73.28.34.5.77.66,1.31.16.54.25,1.19.25,1.96ZM304.65,425.34v-1.18c0-.48-.1-.84-.31-1.07s-.46-.35-.74-.35c-.15,0-.28.04-.39.1-.11.07-.19.16-.26.27-.06.11-.11.24-.14.38-.03.14-.04.29-.04.44,0,.17,0,.35.02.54.01.19.03.34.04.43l1.82.43ZM306.05,425.69l2.16.52c.02-.13.04-.29.05-.49.01-.2.02-.38.02-.55,0-.24-.02-.48-.05-.71s-.1-.45-.2-.64c-.1-.19-.23-.34-.4-.46-.17-.12-.38-.18-.65-.18-.11,0-.22.02-.34.07-.11.04-.21.12-.3.21s-.16.22-.22.38c-.06.16-.08.34-.08.56v1.3Z" style="fill: #fff;"/>
    <path d="M302.61,417.89c0,.25-.07.47-.22.67-.15.2-.37.3-.68.3-.17,0-.33-.04-.47-.1-.15-.07-.28-.16-.38-.27-.11-.11-.19-.24-.26-.39-.06-.15-.1-.31-.1-.47,0-.25.07-.47.22-.67.15-.2.37-.3.68-.3.17,0,.33.04.47.1s.28.16.38.27.19.24.26.39c.06.15.1.31.1.47ZM309.69,418.75v1.78l-6.31-1.5v-1.79l6.31,1.51Z" style="fill: #fff;"/>
    <path d="M301.8,415.42l-.29-1.86,1.86.46v-1.99l1.46.36v1.98l2.21.53c.18.05.36.08.52.09s.3,0,.41-.06c.12-.05.21-.14.27-.27.06-.13.1-.3.1-.53,0-.19-.02-.38-.05-.56s-.09-.36-.15-.55l1.37-.13c.09.24.16.5.23.78.06.28.1.61.1,1,0,.55-.08.98-.25,1.29-.16.3-.39.52-.67.65s-.61.18-.98.17-.76-.07-1.16-.17l-4.97-1.18Z" style="fill: #fff;"/>
    <path d="M307.17,411.96c-.54,0-1.06-.09-1.54-.26s-.9-.43-1.26-.76-.64-.73-.85-1.19-.31-.99-.31-1.57c0-.36.03-.68.1-.97.07-.28.16-.54.27-.77l1.39.61c-.06.16-.12.33-.17.5-.05.17-.08.38-.08.63,0,.6.2,1.07.61,1.42.4.34.95.52,1.65.52.41,0,.74-.09.99-.26s.38-.5.38-.97c0-.23-.02-.46-.07-.67s-.11-.41-.18-.58l1.43-.13c.09.22.17.47.23.74s.1.59.1.98c0,.5-.07.92-.22,1.26-.14.34-.34.63-.58.85s-.53.39-.86.49c-.33.1-.67.15-1.03.15Z" style="fill: #fff;"/>
    <path d="M309.85,404.01c0,.42-.06.79-.19,1.1s-.31.57-.54.77c-.23.21-.51.36-.82.46-.32.1-.67.16-1.05.16-.48,0-.96-.08-1.44-.23s-.91-.39-1.3-.69c-.38-.3-.7-.68-.94-1.12-.24-.44-.37-.94-.37-1.51,0-.42.06-.78.19-1.1s.31-.58.54-.78.51-.36.82-.46.67-.16,1.05-.16c.48,0,.96.08,1.44.23.48.15.91.38,1.3.67.38.3.7.67.94,1.11.24.44.37.96.37,1.54ZM304.72,403.12c0,.26.08.5.23.7.15.2.34.37.58.5.23.14.49.24.76.31.28.07.54.1.79.1.41,0,.72-.06.94-.19.22-.13.33-.36.33-.7,0-.26-.08-.5-.23-.7-.15-.2-.34-.37-.58-.5-.23-.13-.49-.24-.76-.31-.28-.07-.54-.1-.79-.1-.41,0-.72.06-.94.19-.22.13-.33.36-.33.7Z" style="fill: #fff;"/>
    <path d="M302.61,397.33c0,.25-.07.47-.22.67s-.37.3-.68.3c-.17,0-.33-.03-.47-.1-.15-.07-.28-.16-.38-.27-.11-.11-.19-.24-.26-.39-.06-.15-.1-.31-.1-.47,0-.25.07-.47.22-.67.15-.2.37-.3.68-.3.17,0,.33.03.47.1s.28.16.38.27c.11.11.19.24.26.39s.1.31.1.47ZM309.69,398.2v1.78l-6.31-1.5v-1.79l6.31,1.51Z" style="fill: #fff;"/>
    <path d="M303.66,395.13c-.04-.14-.09-.29-.14-.45-.05-.16-.1-.35-.14-.55-.04-.2-.08-.43-.11-.68-.03-.25-.04-.54-.04-.86,0-.94.27-1.59.82-1.94.54-.35,1.29-.41,2.23-.18l3.41.82v1.79l-3.34-.79c-.21-.05-.41-.09-.61-.12-.2-.03-.37-.03-.52,0s-.27.11-.36.22c-.09.12-.14.29-.14.53s.02.47.07.71l4.88,1.16v1.79l-6.02-1.45Z" style="fill: #fff;"/>
    <path d="M309.33,383.25c.16.33.29.69.38,1.09.1.4.14.89.14,1.46,0,.5-.08.95-.25,1.36-.16.41-.4.76-.7,1.06-.3.29-.67.52-1.11.68s-.93.24-1.47.24c-.62,0-1.24-.11-1.86-.33-.62-.22-1.17-.54-1.65-.97-.48-.43-.88-.95-1.18-1.57-.3-.62-.46-1.33-.46-2.14,0-.38.04-.76.13-1.13s.24-.76.47-1.17l1.45.67c-.18.34-.3.64-.36.9-.06.26-.1.55-.1.85,0,.46.09.87.28,1.23.18.37.43.68.75.94.32.26.68.46,1.1.59.42.13.86.2,1.32.2.7,0,1.22-.15,1.54-.46.32-.31.48-.75.48-1.33,0-.38-.04-.74-.12-1.06s-.18-.63-.31-.91l1.52-.2Z" style="fill: #fff;"/>
    <path d="M306.96,376.44c.46.11.91.14,1.37.1.46-.05.87-.14,1.23-.28l.23,1.6c-.1.05-.19.09-.28.13s-.19.08-.3.12c.18.22.34.47.46.74.12.27.18.58.18.91,0,.4-.07.74-.21,1.03-.14.28-.33.52-.56.7s-.51.31-.83.39c-.32.08-.65.12-1.01.12-.55,0-1.07-.1-1.56-.29-.49-.2-.91-.47-1.28-.82-.36-.35-.65-.76-.86-1.23s-.31-.98-.31-1.54c0-.07,0-.2.01-.38,0-.18.03-.39.05-.62.03-.23.07-.48.14-.73.06-.26.15-.5.26-.73l3.26.78ZM304.75,377.69c-.02.1-.03.2-.04.28,0,.08-.01.19-.01.31,0,.27.07.53.2.76s.31.44.53.62c.22.18.47.31.76.41s.59.15.9.15c.38,0,.69-.06.91-.19s.34-.36.34-.71c0-.18-.04-.35-.11-.5-.07-.15-.19-.31-.36-.47-.2-.02-.41-.04-.63-.08-.22-.04-.42-.07-.61-.11l-1.9-.47Z" style="fill: #fff;"/>
    <path d="M308.41,373.25c0-.41-.06-.69-.17-.84-.12-.15-.24-.23-.38-.23-.09,0-.16.01-.23.04s-.12.07-.18.14c-.06.06-.11.15-.17.26-.06.11-.13.26-.21.43-.09.2-.18.39-.28.56-.1.18-.22.33-.36.46-.14.13-.3.24-.48.31-.18.08-.39.11-.64.11-.65,0-1.16-.24-1.54-.71-.38-.47-.56-1.17-.56-2.08,0-.43.05-.82.14-1.15.1-.34.2-.61.31-.82l1.33.61c-.09.17-.17.38-.25.65s-.12.52-.12.78c0,.11,0,.22.02.33.01.11.04.21.08.3s.1.17.17.22c.07.06.17.08.29.08.16,0,.28-.06.36-.19.08-.12.18-.3.29-.52.15-.31.29-.57.42-.78s.26-.37.41-.5c.14-.12.31-.21.49-.27s.4-.08.65-.08.51.05.76.16c.25.11.47.28.66.51s.35.53.47.89c.12.36.18.79.18,1.3,0,.31-.02.59-.06.85s-.09.47-.15.67c-.06.19-.12.35-.19.49-.06.13-.12.23-.16.3l-1.37-.61c.08-.14.18-.35.3-.64.12-.29.18-.63.18-1.04Z" style="fill: #fff;"/>
    <path d="M303.27,365.25c0-.34.05-.64.15-.89s.24-.45.42-.61c.18-.16.39-.28.64-.36s.52-.12.8-.12c.34,0,.67.04,1,.12l3.41.82v1.79l-3.34-.79c-.14-.03-.28-.06-.43-.09-.15-.03-.3-.04-.43-.04-.21,0-.39.05-.53.16s-.22.31-.22.62c0,.13,0,.25.02.37.02.12.04.23.06.34l4.87,1.16v1.79l-9.02-2.16-.29-1.86,3.01.73c-.03-.16-.06-.32-.08-.49-.02-.16-.04-.33-.04-.49Z" style="fill: #fff;"/>
    <path d="M309.79,354.06c0,.48-.02.97-.06,1.48s-.1.96-.19,1.37l-8.04-1.92c-.09-.46-.15-.93-.18-1.43-.03-.5-.05-.96-.05-1.38,0-.48.05-.89.15-1.24.1-.35.23-.63.4-.85.17-.22.37-.38.59-.49.23-.11.47-.16.73-.16.18,0,.36.02.55.05.19.04.38.11.57.22s.37.26.53.44c.17.19.32.43.46.74.16-.36.38-.62.65-.79s.58-.25.92-.25c.38,0,.75.08,1.11.23s.67.4.95.73c.28.34.5.77.66,1.31.16.54.25,1.19.25,1.96ZM304.65,353.88v-1.18c0-.48-.1-.84-.31-1.07-.21-.24-.46-.35-.74-.35-.15,0-.28.03-.39.1-.11.07-.19.16-.26.27-.06.11-.11.24-.14.38-.03.14-.04.29-.04.44,0,.17,0,.35.02.54.01.19.03.34.04.43l1.82.43ZM306.05,354.23l2.16.52c.02-.13.04-.29.05-.49.01-.2.02-.38.02-.54,0-.24-.02-.48-.05-.71s-.1-.45-.2-.64c-.1-.19-.23-.34-.4-.46-.17-.12-.38-.18-.65-.18-.11,0-.22.02-.34.07-.11.04-.21.11-.3.21s-.16.22-.22.38c-.06.16-.08.34-.08.56v1.3Z" style="fill: #fff;"/>
    <path d="M302.61,346.43c0,.25-.07.47-.22.67-.15.2-.37.3-.68.3-.17,0-.33-.03-.47-.1-.15-.07-.28-.16-.38-.27s-.19-.24-.26-.39c-.06-.15-.1-.31-.1-.47,0-.25.07-.47.22-.67.15-.2.37-.3.68-.3.17,0,.33.03.47.1.15.07.28.16.38.27.11.11.19.24.26.39.06.15.1.31.1.47ZM309.69,347.29v1.78l-6.31-1.5v-1.79l6.31,1.51Z" style="fill: #fff;"/>
    <path d="M301.8,343.96l-.29-1.86,1.86.46v-1.99l1.46.36v1.98l2.21.53c.18.05.36.08.52.09.16.01.3,0,.41-.06.12-.05.21-.14.27-.27.06-.13.1-.3.1-.53,0-.19-.02-.38-.05-.56-.04-.18-.09-.36-.15-.54l1.37-.13c.09.24.16.5.23.78s.1.61.1,1c0,.55-.08.98-.25,1.28s-.39.52-.67.65c-.28.13-.61.18-.98.17-.37-.02-.76-.07-1.16-.17l-4.97-1.18Z" style="fill: #fff;"/>
    <path d="M307.17,340.5c-.54,0-1.06-.09-1.54-.26s-.9-.43-1.26-.76-.64-.73-.85-1.19c-.21-.47-.31-.99-.31-1.57,0-.36.03-.68.1-.97s.16-.54.27-.77l1.39.61c-.06.16-.12.33-.17.5-.05.17-.08.38-.08.63,0,.6.2,1.07.61,1.42.4.34.95.52,1.65.52.41,0,.74-.09.99-.26s.38-.5.38-.97c0-.23-.02-.46-.07-.67-.05-.21-.11-.41-.18-.58l1.43-.13c.09.22.17.47.23.74.07.27.1.59.1.98,0,.5-.07.92-.22,1.26-.14.34-.34.63-.58.85-.24.22-.53.39-.86.49-.33.1-.67.15-1.03.15Z" style="fill: #fff;"/>
    <path d="M309.85,332.55c0,.42-.06.79-.19,1.1s-.31.57-.54.77c-.23.21-.51.36-.82.46-.32.1-.67.16-1.05.16-.48,0-.96-.08-1.44-.23s-.91-.39-1.3-.69c-.38-.3-.7-.68-.94-1.12-.24-.44-.37-.94-.37-1.51,0-.42.06-.78.19-1.1s.31-.58.54-.78.51-.36.82-.46.67-.16,1.05-.16c.48,0,.96.08,1.44.23.48.15.91.38,1.3.67.38.3.7.67.94,1.11.24.44.37.96.37,1.54ZM304.72,331.66c0,.26.08.5.23.7.15.2.34.37.58.5.23.14.49.24.76.31.28.07.54.1.79.1.41,0,.72-.06.94-.19.22-.13.33-.36.33-.7,0-.26-.08-.5-.23-.7-.15-.2-.34-.37-.58-.5-.23-.13-.49-.24-.76-.31-.28-.07-.54-.1-.79-.1-.41,0-.72.06-.94.19-.22.13-.33.36-.33.7Z" style="fill: #fff;"/>
    <path d="M302.61,325.88c0,.25-.07.47-.22.67-.15.2-.37.3-.68.3-.17,0-.33-.03-.47-.1-.15-.07-.28-.16-.38-.27s-.19-.24-.26-.39c-.06-.15-.1-.31-.1-.47,0-.25.07-.47.22-.67.15-.2.37-.3.68-.3.17,0,.33.03.47.1.15.07.28.16.38.27.11.11.19.24.26.39s.1.31.1.47ZM309.69,326.74v1.78l-6.31-1.5v-1.79l6.31,1.51Z" style="fill: #fff;"/>
    <path d="M303.66,323.67c-.04-.13-.09-.29-.14-.45-.05-.16-.1-.35-.14-.55-.04-.2-.08-.43-.11-.68-.03-.25-.04-.54-.04-.86,0-.94.27-1.59.82-1.94.54-.35,1.29-.41,2.23-.18l3.41.82v1.79l-3.34-.79c-.21-.05-.41-.09-.61-.11s-.37-.03-.52,0c-.15.03-.27.11-.36.22-.09.12-.14.29-.14.54s.02.47.07.71l4.88,1.16v1.79l-6.02-1.45Z" style="fill: #fff;"/>
    <path d="M309.33,311.79c.16.33.29.69.38,1.09.1.4.14.89.14,1.46,0,.5-.08.95-.25,1.36-.16.41-.4.76-.7,1.06-.3.29-.67.52-1.11.68s-.93.24-1.47.24c-.62,0-1.24-.11-1.86-.33-.62-.22-1.17-.54-1.65-.97-.48-.43-.88-.95-1.18-1.57-.3-.62-.46-1.33-.46-2.14,0-.38.04-.76.13-1.13.09-.37.24-.76.47-1.17l1.45.67c-.18.34-.3.64-.36.9-.06.26-.1.55-.1.85,0,.46.09.87.28,1.23.18.36.43.68.75.94.32.26.68.46,1.1.59.42.14.86.2,1.32.2.7,0,1.22-.15,1.54-.46.32-.31.48-.75.48-1.33,0-.38-.04-.74-.12-1.06s-.18-.62-.31-.91l1.52-.2Z" style="fill: #fff;"/>
    <path d="M306.96,304.98c.46.11.91.14,1.37.1.46-.05.87-.14,1.23-.28l.23,1.6c-.1.05-.19.09-.28.13-.09.04-.19.08-.3.12.18.22.34.47.46.74.12.27.18.58.18.91,0,.4-.07.74-.21,1.03s-.33.52-.56.7c-.24.18-.51.31-.83.39-.32.08-.65.12-1.01.12-.55,0-1.07-.1-1.56-.29-.49-.2-.91-.47-1.28-.82-.36-.35-.65-.76-.86-1.23-.21-.47-.31-.98-.31-1.54,0-.07,0-.2.01-.38s.03-.39.05-.62c.03-.23.07-.48.14-.73.06-.26.15-.5.26-.73l3.26.78ZM304.75,306.23c-.02.1-.03.2-.04.28,0,.08-.01.19-.01.31,0,.27.07.53.2.76.14.24.31.44.53.62.22.18.47.31.76.41.29.1.59.15.9.15.38,0,.69-.06.91-.19.22-.13.34-.36.34-.71,0-.18-.04-.35-.11-.5-.07-.15-.19-.31-.36-.47-.2-.02-.41-.04-.63-.08-.22-.04-.42-.07-.61-.11l-1.9-.47Z" style="fill: #fff;"/>
    <path d="M308.41,301.79c0-.41-.06-.69-.17-.84-.12-.15-.24-.23-.38-.23-.09,0-.16.01-.23.04-.06.03-.12.07-.18.14s-.11.15-.17.26c-.06.11-.13.26-.21.43-.09.2-.18.39-.28.56-.1.18-.22.33-.36.46-.14.13-.3.24-.48.31-.18.08-.39.11-.64.11-.65,0-1.16-.24-1.54-.71s-.56-1.17-.56-2.08c0-.43.05-.82.14-1.15.1-.34.2-.61.31-.82l1.33.61c-.09.17-.17.38-.25.65s-.12.52-.12.78c0,.11,0,.22.02.33.01.11.04.21.08.3s.1.17.17.22c.07.06.17.08.29.08.16,0,.28-.06.36-.19s.18-.3.29-.52c.15-.31.29-.57.42-.78s.26-.37.41-.5.31-.21.49-.27c.18-.06.4-.08.65-.08s.51.05.76.16c.25.11.47.28.66.51.19.23.35.53.47.89.12.36.18.79.18,1.3,0,.31-.02.59-.06.85s-.09.47-.15.67-.12.35-.19.49c-.06.13-.12.23-.16.31l-1.37-.61c.08-.14.18-.35.3-.64.12-.29.18-.64.18-1.04Z" style="fill: #fff;"/>
    <path d="M303.27,293.79c0-.34.05-.64.15-.89s.24-.45.42-.61c.18-.16.39-.28.64-.36s.52-.12.8-.12c.34,0,.67.04,1,.12l3.41.82v1.79l-3.34-.79c-.14-.03-.28-.06-.43-.09-.15-.03-.3-.04-.43-.04-.21,0-.39.05-.53.16-.15.11-.22.31-.22.62,0,.13,0,.25.02.37.02.12.04.23.06.34l4.87,1.16v1.79l-9.02-2.16-.29-1.86,3.01.73c-.03-.16-.06-.32-.08-.49-.02-.16-.04-.33-.04-.49Z" style="fill: #fff;"/>
    <path d="M309.79,282.6c0,.48-.02.97-.06,1.48s-.1.96-.19,1.37l-8.04-1.92c-.09-.46-.15-.93-.18-1.43-.03-.5-.05-.96-.05-1.37,0-.48.05-.89.15-1.24.1-.35.23-.63.4-.85.17-.22.37-.38.59-.49s.47-.16.73-.16c.18,0,.36.02.55.05.19.04.38.11.57.22.19.11.37.26.53.44s.32.43.46.74c.16-.36.38-.62.65-.79s.58-.25.92-.25c.38,0,.75.08,1.11.23s.67.4.95.73c.28.34.5.77.66,1.31.16.54.25,1.19.25,1.96ZM304.65,282.42v-1.18c0-.48-.1-.84-.31-1.07s-.46-.35-.74-.35c-.15,0-.28.03-.39.1-.11.07-.19.16-.26.27-.06.11-.11.24-.14.38-.03.14-.04.29-.04.44,0,.17,0,.35.02.54.01.19.03.34.04.43l1.82.43ZM306.05,282.77l2.16.52c.02-.13.04-.29.05-.49.01-.2.02-.38.02-.55,0-.24-.02-.48-.05-.71-.04-.24-.1-.45-.2-.63-.1-.19-.23-.34-.4-.46-.17-.12-.38-.18-.65-.18-.11,0-.22.02-.34.07-.11.04-.21.11-.3.21-.09.1-.16.22-.22.38-.06.16-.08.34-.08.56v1.3Z" style="fill: #fff;"/>
    <path d="M302.61,274.97c0,.25-.07.47-.22.67s-.37.3-.68.3c-.17,0-.33-.03-.47-.1-.15-.07-.28-.16-.38-.27-.11-.11-.19-.24-.26-.39-.06-.15-.1-.31-.1-.47,0-.25.07-.47.22-.67.15-.2.37-.3.68-.3.17,0,.33.03.47.1s.28.16.38.27c.11.11.19.24.26.39s.1.31.1.47ZM309.69,275.84v1.78l-6.31-1.5v-1.79l6.31,1.51Z" style="fill: #fff;"/>
    <path d="M301.8,272.5l-.29-1.86,1.86.46v-1.99l1.46.36v1.98l2.21.53c.18.05.36.08.52.09.16.01.3,0,.41-.06.12-.05.21-.14.27-.27s.1-.3.1-.53c0-.19-.02-.38-.05-.56-.04-.18-.09-.36-.15-.55l1.37-.13c.09.24.16.5.23.78.06.28.1.61.1,1,0,.55-.08.98-.25,1.28-.16.3-.39.52-.67.65s-.61.18-.98.17-.76-.07-1.16-.17l-4.97-1.18Z" style="fill: #fff;"/>
    <path d="M307.17,269.04c-.54,0-1.06-.09-1.54-.26s-.9-.43-1.26-.76c-.36-.33-.64-.72-.85-1.19-.21-.47-.31-.99-.31-1.57,0-.36.03-.68.1-.96.07-.29.16-.54.27-.78l1.39.61c-.06.16-.12.33-.17.5-.05.17-.08.38-.08.63,0,.6.2,1.07.61,1.42.4.34.95.52,1.65.52.41,0,.74-.09.99-.26.25-.18.38-.5.38-.97,0-.23-.02-.46-.07-.67s-.11-.41-.18-.58l1.43-.13c.09.22.17.47.23.74s.1.59.1.98c0,.5-.07.92-.22,1.26s-.34.63-.58.85-.53.39-.86.49-.67.15-1.03.15Z" style="fill: #fff;"/>
    <path d="M309.85,261.09c0,.42-.06.79-.19,1.1-.13.31-.31.57-.54.77s-.51.36-.82.46c-.32.1-.67.16-1.05.16-.48,0-.96-.08-1.44-.23s-.91-.39-1.3-.69c-.38-.3-.7-.68-.94-1.12-.24-.44-.37-.94-.37-1.51,0-.42.06-.78.19-1.1s.31-.58.54-.78c.23-.21.51-.36.82-.46.32-.1.67-.16,1.05-.16.48,0,.96.08,1.44.23s.91.38,1.3.67c.38.3.7.67.94,1.11.24.44.37.96.37,1.54ZM304.72,260.2c0,.26.08.5.23.7.15.2.34.37.58.5.23.13.49.24.76.3.28.07.54.1.79.1.41,0,.72-.06.94-.19.22-.13.33-.36.33-.7,0-.26-.08-.5-.23-.7s-.34-.37-.58-.5-.49-.24-.76-.31c-.28-.07-.54-.1-.79-.1-.41,0-.72.06-.94.19-.22.13-.33.36-.33.7Z" style="fill: #fff;"/>
    <path d="M302.61,254.42c0,.25-.07.47-.22.67-.15.2-.37.3-.68.3-.17,0-.33-.04-.47-.1-.15-.07-.28-.16-.38-.27-.11-.11-.19-.24-.26-.39-.06-.15-.1-.31-.1-.47,0-.25.07-.47.22-.67.15-.2.37-.3.68-.3.17,0,.33.03.47.1s.28.16.38.27.19.24.26.39c.06.15.1.31.1.47ZM309.69,255.28v1.78l-6.31-1.5v-1.79l6.31,1.51Z" style="fill: #fff;"/>
    <path d="M303.66,252.21c-.04-.14-.09-.29-.14-.45-.05-.16-.1-.35-.14-.55-.04-.2-.08-.43-.11-.68-.03-.25-.04-.54-.04-.86,0-.94.27-1.59.82-1.94.54-.35,1.29-.41,2.23-.18l3.41.82v1.79l-3.34-.79c-.21-.05-.41-.09-.61-.11-.2-.03-.37-.03-.52,0-.15.03-.27.11-.36.22-.09.12-.14.29-.14.53s.02.47.07.71l4.88,1.16v1.79l-6.02-1.45Z" style="fill: #fff;"/>
    <path d="M309.33,240.33c.16.33.29.69.38,1.09.1.4.14.89.14,1.46,0,.5-.08.95-.25,1.36-.16.41-.4.76-.7,1.06-.3.29-.67.52-1.11.68s-.93.24-1.47.24c-.62,0-1.24-.11-1.86-.33-.62-.22-1.17-.54-1.65-.97-.48-.43-.88-.95-1.18-1.57-.3-.62-.46-1.33-.46-2.14,0-.38.04-.76.13-1.13s.24-.76.47-1.17l1.45.67c-.18.34-.3.64-.36.9-.06.26-.1.55-.1.85,0,.46.09.87.28,1.23.18.36.43.68.75.94.32.26.68.46,1.1.59.42.14.86.2,1.32.2.7,0,1.22-.15,1.54-.46.32-.31.48-.75.48-1.33,0-.38-.04-.74-.12-1.06-.08-.32-.18-.63-.31-.91l1.52-.2Z" style="fill: #fff;"/>
    <path d="M306.96,233.52c.46.11.91.14,1.37.1.46-.05.87-.14,1.23-.28l.23,1.6c-.1.05-.19.09-.28.13s-.19.08-.3.12c.18.22.34.47.46.74.12.27.18.58.18.91,0,.4-.07.74-.21,1.03-.14.28-.33.52-.56.7s-.51.31-.83.39c-.32.08-.65.12-1.01.12-.55,0-1.07-.1-1.56-.29-.49-.2-.91-.47-1.28-.82-.36-.35-.65-.76-.86-1.23-.21-.47-.31-.98-.31-1.54,0-.07,0-.2.01-.38,0-.18.03-.39.05-.62.03-.23.07-.48.14-.73.06-.26.15-.5.26-.73l3.26.78ZM304.75,234.77c-.02.1-.03.2-.04.28,0,.08-.01.19-.01.31,0,.27.07.53.2.76.14.24.31.44.53.62.22.18.47.31.76.41s.59.15.9.15c.38,0,.69-.06.91-.19s.34-.36.34-.71c0-.18-.04-.35-.11-.5-.07-.15-.19-.31-.36-.47-.2-.02-.41-.04-.63-.08-.22-.04-.42-.07-.61-.11l-1.9-.47Z" style="fill: #fff;"/>
    <path d="M308.41,230.33c0-.41-.06-.69-.17-.84-.12-.15-.24-.23-.38-.23-.09,0-.16.01-.23.04-.06.03-.12.07-.18.14s-.11.15-.17.26c-.06.11-.13.26-.21.43-.09.2-.18.39-.28.56-.1.18-.22.33-.36.46-.14.13-.3.24-.48.31-.18.08-.39.11-.64.11-.65,0-1.16-.24-1.54-.71-.38-.48-.56-1.17-.56-2.08,0-.43.05-.82.14-1.15.1-.34.2-.61.31-.82l1.33.61c-.09.17-.17.38-.25.65-.08.26-.12.52-.12.78,0,.11,0,.22.02.33.01.11.04.21.08.3.04.09.1.17.17.22.07.06.17.08.29.08.16,0,.28-.06.36-.19s.18-.3.29-.52c.15-.31.29-.57.42-.78.13-.21.26-.37.41-.5s.31-.21.49-.27c.18-.06.4-.08.65-.08s.51.05.76.16c.25.11.47.28.66.51s.35.53.47.89c.12.36.18.79.18,1.3,0,.31-.02.59-.06.85s-.09.47-.15.67-.12.35-.19.49c-.06.13-.12.23-.16.31l-1.37-.61c.08-.14.18-.35.3-.64.12-.29.18-.64.18-1.04Z" style="fill: #fff;"/>
    <path d="M303.27,222.33c0-.34.05-.64.15-.89s.24-.45.42-.61c.18-.16.39-.28.64-.36s.52-.12.8-.12c.34,0,.67.04,1,.12l3.41.82v1.79l-3.34-.79c-.14-.03-.28-.06-.43-.09-.15-.03-.3-.04-.43-.04-.21,0-.39.05-.53.16-.15.11-.22.31-.22.62,0,.13,0,.25.02.37.02.12.04.23.06.34l4.87,1.16v1.79l-9.02-2.16-.29-1.86,3.01.73c-.03-.16-.06-.32-.08-.49-.02-.16-.04-.33-.04-.49Z" style="fill: #fff;"/>
    <path d="M309.79,211.14c0,.48-.02.97-.06,1.48s-.1.96-.19,1.37l-8.04-1.92c-.09-.46-.15-.93-.18-1.43-.03-.5-.05-.96-.05-1.37,0-.48.05-.89.15-1.24.1-.35.23-.63.4-.85.17-.22.37-.38.59-.49s.47-.16.73-.16c.18,0,.36.02.55.05.19.04.38.11.57.22s.37.26.53.44.32.43.46.74c.16-.36.38-.62.65-.79s.58-.25.92-.25c.38,0,.75.08,1.11.23.36.15.67.4.95.73.28.34.5.77.66,1.31.16.54.25,1.19.25,1.96ZM304.65,210.97v-1.18c0-.48-.1-.84-.31-1.07s-.46-.35-.74-.35c-.15,0-.28.03-.39.1-.11.07-.19.16-.26.27-.06.11-.11.24-.14.38-.03.14-.04.29-.04.44,0,.17,0,.35.02.54.01.19.03.34.04.43l1.82.43ZM306.05,211.31l2.16.52c.02-.13.04-.29.05-.49.01-.2.02-.38.02-.55,0-.24-.02-.48-.05-.71-.04-.24-.1-.45-.2-.64-.1-.19-.23-.34-.4-.46-.17-.12-.38-.18-.65-.18-.11,0-.22.02-.34.07-.11.04-.21.11-.3.21-.09.1-.16.22-.22.38-.06.16-.08.34-.08.56v1.3Z" style="fill: #fff;"/>
    <path d="M302.61,203.51c0,.25-.07.47-.22.67-.15.2-.37.3-.68.3-.17,0-.33-.03-.47-.1-.15-.07-.28-.16-.38-.27s-.19-.24-.26-.39c-.06-.15-.1-.31-.1-.47,0-.25.07-.47.22-.67.15-.2.37-.3.68-.3.17,0,.33.03.47.1s.28.16.38.27c.11.11.19.24.26.39.06.15.1.31.1.47ZM309.69,204.38v1.78l-6.31-1.5v-1.79l6.31,1.51Z" style="fill: #fff;"/>
    <path d="M301.8,201.04l-.29-1.86,1.86.46v-1.99l1.46.36v1.98l2.21.53c.18.05.36.08.52.09.16.01.3,0,.41-.06.12-.05.21-.14.27-.27.06-.13.1-.3.1-.53,0-.19-.02-.38-.05-.56-.04-.18-.09-.36-.15-.55l1.37-.13c.09.24.16.5.23.78.06.28.1.61.1,1,0,.55-.08.98-.25,1.28s-.39.52-.67.65-.61.18-.98.17-.76-.07-1.16-.17l-4.97-1.18Z" style="fill: #fff;"/>
    <path d="M307.17,197.59c-.54,0-1.06-.09-1.54-.26s-.9-.43-1.26-.76c-.36-.33-.64-.73-.85-1.19-.21-.47-.31-.99-.31-1.57,0-.36.03-.68.1-.97.07-.28.16-.54.27-.77l1.39.61c-.06.16-.12.33-.17.5-.05.17-.08.38-.08.63,0,.6.2,1.07.61,1.42.4.34.95.52,1.65.52.41,0,.74-.09.99-.26.25-.18.38-.5.38-.97,0-.23-.02-.46-.07-.67s-.11-.41-.18-.58l1.43-.13c.09.22.17.47.23.74s.1.59.1.98c0,.5-.07.92-.22,1.26-.14.34-.34.63-.58.85s-.53.39-.86.49c-.33.1-.67.15-1.03.15Z" style="fill: #fff;"/>
    <path d="M309.85,189.63c0,.42-.06.79-.19,1.1s-.31.57-.54.77-.51.36-.82.46c-.32.1-.67.16-1.05.16-.48,0-.96-.08-1.44-.23-.48-.16-.91-.39-1.3-.69-.38-.3-.7-.68-.94-1.12-.24-.44-.37-.94-.37-1.51,0-.42.06-.78.19-1.1.13-.32.31-.58.54-.78s.51-.36.82-.46.67-.16,1.05-.16c.48,0,.96.08,1.44.23s.91.38,1.3.67c.38.3.7.67.94,1.11.24.44.37.96.37,1.54ZM304.72,188.74c0,.26.08.5.23.7.15.2.34.37.58.5.23.14.49.24.76.31.28.07.54.1.79.1.41,0,.72-.06.94-.19.22-.13.33-.36.33-.7,0-.26-.08-.5-.23-.7-.15-.2-.34-.37-.58-.5-.23-.14-.49-.24-.76-.31-.28-.07-.54-.1-.79-.1-.41,0-.72.06-.94.19-.22.13-.33.36-.33.7Z" style="fill: #fff;"/>
    <path d="M302.61,182.96c0,.25-.07.47-.22.67-.15.2-.37.3-.68.3-.17,0-.33-.03-.47-.1-.15-.07-.28-.16-.38-.27s-.19-.24-.26-.39c-.06-.15-.1-.31-.1-.47,0-.25.07-.47.22-.67.15-.2.37-.3.68-.3.17,0,.33.03.47.1s.28.16.38.27c.11.11.19.24.26.39.06.15.1.31.1.47ZM309.69,183.82v1.78l-6.31-1.5v-1.79l6.31,1.51Z" style="fill: #fff;"/>
    <path d="M303.66,180.75c-.04-.14-.09-.29-.14-.45-.05-.16-.1-.35-.14-.55-.04-.2-.08-.43-.11-.68-.03-.25-.04-.54-.04-.86,0-.94.27-1.59.82-1.94.54-.35,1.29-.41,2.23-.18l3.41.82v1.79l-3.34-.79c-.21-.05-.41-.09-.61-.11-.2-.03-.37-.03-.52,0-.15.03-.27.11-.36.22-.09.12-.14.29-.14.53s.02.47.07.71l4.88,1.16v1.79l-6.02-1.45Z" style="fill: #fff;"/>
    <path d="M309.33,168.87c.16.33.29.69.38,1.09.1.4.14.89.14,1.46,0,.5-.08.95-.25,1.36-.16.41-.4.76-.7,1.06-.3.29-.67.52-1.11.68s-.93.24-1.47.24c-.62,0-1.24-.11-1.86-.33-.62-.22-1.17-.54-1.65-.97-.48-.43-.88-.95-1.18-1.57-.3-.62-.46-1.33-.46-2.14,0-.38.04-.76.13-1.13s.24-.76.47-1.17l1.45.67c-.18.34-.3.64-.36.9-.06.26-.1.55-.1.85,0,.46.09.87.28,1.23.18.36.43.68.75.94.32.26.68.46,1.1.59.42.14.86.2,1.32.2.7,0,1.22-.15,1.54-.46.32-.31.48-.75.48-1.33,0-.38-.04-.74-.12-1.06-.08-.32-.18-.63-.31-.91l1.52-.2Z" style="fill: #fff;"/>
    <path d="M306.96,162.07c.46.11.91.14,1.37.1.46-.05.87-.14,1.23-.28l.23,1.6c-.1.05-.19.09-.28.13s-.19.08-.3.12c.18.22.34.47.46.74.12.27.18.58.18.91,0,.4-.07.74-.21,1.03-.14.28-.33.52-.56.7s-.51.31-.83.39c-.32.08-.65.12-1.01.12-.55,0-1.07-.1-1.56-.29-.49-.2-.91-.47-1.28-.82-.36-.35-.65-.76-.86-1.23-.21-.47-.31-.98-.31-1.54,0-.07,0-.2.01-.38,0-.18.03-.39.05-.62.03-.23.07-.48.14-.73.06-.26.15-.5.26-.73l3.26.78ZM304.75,163.31c-.02.1-.03.2-.04.28,0,.08-.01.19-.01.31,0,.27.07.53.2.76.14.24.31.44.53.62.22.18.47.31.76.41s.59.15.9.15c.38,0,.69-.06.91-.19s.34-.36.34-.71c0-.18-.04-.35-.11-.5-.07-.15-.19-.31-.36-.47-.2-.02-.41-.04-.63-.08-.22-.04-.42-.07-.61-.11l-1.9-.47Z" style="fill: #fff;"/>
    <path d="M308.41,158.87c0-.41-.06-.69-.17-.84-.12-.15-.24-.23-.38-.23-.09,0-.16.01-.23.04-.06.03-.12.07-.18.14s-.11.15-.17.26c-.06.11-.13.26-.21.43-.09.2-.18.39-.28.56-.1.18-.22.33-.36.46-.14.13-.3.24-.48.31-.18.08-.39.11-.64.11-.65,0-1.16-.24-1.54-.71-.38-.48-.56-1.17-.56-2.08,0-.43.05-.82.14-1.15.1-.34.2-.61.31-.82l1.33.61c-.09.17-.17.38-.25.65-.08.26-.12.52-.12.78,0,.11,0,.22.02.33.01.11.04.21.08.3.04.09.1.17.17.22.07.06.17.08.29.08.16,0,.28-.06.36-.19s.18-.3.29-.52c.15-.31.29-.57.42-.78.13-.21.26-.37.41-.5s.31-.21.49-.27c.18-.06.4-.08.65-.08s.51.05.76.16c.25.11.47.28.66.51s.35.53.47.89c.12.36.18.79.18,1.3,0,.31-.02.59-.06.85s-.09.47-.15.67-.12.35-.19.49c-.06.13-.12.23-.16.31l-1.37-.61c.08-.14.18-.35.3-.64.12-.29.18-.64.18-1.04Z" style="fill: #fff;"/>
    <path d="M303.27,150.87c0-.34.05-.64.15-.89s.24-.45.42-.61c.18-.16.39-.28.64-.36s.52-.12.8-.12c.34,0,.67.04,1,.12l3.41.82v1.79l-3.34-.79c-.14-.03-.28-.06-.43-.09-.15-.03-.3-.04-.43-.04-.21,0-.39.05-.53.16-.15.11-.22.31-.22.62,0,.13,0,.25.02.37.02.12.04.23.06.34l4.87,1.16v1.79l-9.02-2.16-.29-1.86,3.01.73c-.03-.16-.06-.32-.08-.49-.02-.16-.04-.33-.04-.49Z" style="fill: #fff;"/>
    <path d="M309.79,139.69c0,.48-.02.97-.06,1.48s-.1.96-.19,1.37l-8.04-1.92c-.09-.46-.15-.93-.18-1.43-.03-.5-.05-.96-.05-1.37,0-.48.05-.89.15-1.24.1-.35.23-.63.4-.85.17-.22.37-.38.59-.49s.47-.16.73-.16c.18,0,.36.02.55.05.19.04.38.11.57.22s.37.26.53.44.32.43.46.74c.16-.36.38-.62.65-.79s.58-.25.92-.25c.38,0,.75.08,1.11.23.36.15.67.4.95.73.28.34.5.77.66,1.31.16.54.25,1.19.25,1.96ZM304.65,139.51v-1.18c0-.48-.1-.84-.31-1.07s-.46-.35-.74-.35c-.15,0-.28.03-.39.1-.11.07-.19.16-.26.27-.06.11-.11.24-.14.38-.03.14-.04.29-.04.44,0,.17,0,.35.02.54.01.19.03.34.04.43l1.82.43ZM306.05,139.85l2.16.52c.02-.13.04-.29.05-.49.01-.2.02-.38.02-.55,0-.24-.02-.48-.05-.71-.04-.24-.1-.45-.2-.64-.1-.19-.23-.34-.4-.46-.17-.12-.38-.18-.65-.18-.11,0-.22.02-.34.07-.11.04-.21.11-.3.21-.09.1-.16.22-.22.38-.06.16-.08.34-.08.56v1.3Z" style="fill: #fff;"/>
    <path d="M302.61,132.06c0,.25-.07.47-.22.67-.15.2-.37.3-.68.3-.17,0-.33-.03-.47-.1-.15-.07-.28-.16-.38-.27s-.19-.24-.26-.39c-.06-.15-.1-.31-.1-.47,0-.25.07-.47.22-.67.15-.2.37-.3.68-.3.17,0,.33.03.47.1s.28.16.38.27c.11.11.19.24.26.39.06.15.1.31.1.47ZM309.69,132.92v1.78l-6.31-1.5v-1.79l6.31,1.51Z" style="fill: #fff;"/>
    <path d="M301.8,129.58l-.29-1.86,1.86.46v-1.99l1.46.36v1.98l2.21.53c.18.05.36.08.52.09.16.01.3,0,.41-.06.12-.05.21-.14.27-.27.06-.13.1-.3.1-.53,0-.19-.02-.38-.05-.56-.04-.18-.09-.36-.15-.55l1.37-.13c.09.24.16.5.23.78.06.28.1.61.1,1,0,.55-.08.98-.25,1.28s-.39.52-.67.65-.61.18-.98.17-.76-.07-1.16-.17l-4.97-1.18Z" style="fill: #fff;"/>
    <path d="M307.17,126.13c-.54,0-1.06-.09-1.54-.26s-.9-.43-1.26-.76c-.36-.33-.64-.73-.85-1.19-.21-.47-.31-.99-.31-1.57,0-.36.03-.68.1-.97.07-.28.16-.54.27-.77l1.39.61c-.06.16-.12.33-.17.5-.05.17-.08.38-.08.63,0,.6.2,1.07.61,1.42.4.34.95.52,1.65.52.41,0,.74-.09.99-.26.25-.18.38-.5.38-.97,0-.23-.02-.46-.07-.67s-.11-.41-.18-.58l1.43-.13c.09.22.17.47.23.74s.1.59.1.98c0,.5-.07.92-.22,1.26-.14.34-.34.63-.58.85s-.53.39-.86.49c-.33.1-.67.15-1.03.15Z" style="fill: #fff;"/>
    <path d="M309.85,118.17c0,.42-.06.79-.19,1.1s-.31.57-.54.77-.51.36-.82.46c-.32.1-.67.16-1.05.16-.48,0-.96-.08-1.44-.23-.48-.16-.91-.39-1.3-.69-.38-.3-.7-.68-.94-1.12-.24-.44-.37-.94-.37-1.51,0-.42.06-.78.19-1.1.13-.32.31-.58.54-.78s.51-.36.82-.46.67-.16,1.05-.16c.48,0,.96.08,1.44.23s.91.38,1.3.67c.38.3.7.67.94,1.11.24.44.37.96.37,1.54ZM304.72,117.28c0,.26.08.5.23.7.15.2.34.37.58.5.23.14.49.24.76.31.28.07.54.1.79.1.41,0,.72-.06.94-.19.22-.13.33-.36.33-.7,0-.26-.08-.5-.23-.7-.15-.2-.34-.37-.58-.5-.23-.14-.49-.24-.76-.31-.28-.07-.54-.1-.79-.1-.41,0-.72.06-.94.19-.22.13-.33.36-.33.7Z" style="fill: #fff;"/>
    <path d="M302.61,111.5c0,.25-.07.47-.22.67-.15.2-.37.3-.68.3-.17,0-.33-.03-.47-.1-.15-.07-.28-.16-.38-.27s-.19-.24-.26-.39c-.06-.15-.1-.31-.1-.47,0-.25.07-.47.22-.67.15-.2.37-.3.68-.3.17,0,.33.03.47.1s.28.16.38.27c.11.11.19.24.26.39.06.15.1.31.1.47ZM309.69,112.36v1.78l-6.31-1.5v-1.79l6.31,1.51Z" style="fill: #fff;"/>
    <path d="M303.66,109.29c-.04-.14-.09-.29-.14-.45-.05-.16-.1-.35-.14-.55-.04-.2-.08-.43-.11-.68-.03-.25-.04-.54-.04-.86,0-.94.27-1.59.82-1.94.54-.35,1.29-.41,2.23-.18l3.41.82v1.79l-3.34-.79c-.21-.05-.41-.09-.61-.11-.2-.03-.37-.03-.52,0-.15.03-.27.11-.36.22-.09.12-.14.29-.14.53s.02.47.07.71l4.88,1.16v1.79l-6.02-1.45Z" style="fill: #fff;"/>
    <path d="M309.33,97.41c.16.33.29.69.38,1.09.1.4.14.89.14,1.46,0,.5-.08.95-.25,1.36-.16.41-.4.76-.7,1.06-.3.29-.67.52-1.11.68s-.93.24-1.47.24c-.62,0-1.24-.11-1.86-.33-.62-.22-1.17-.54-1.65-.97-.48-.43-.88-.95-1.18-1.57-.3-.62-.46-1.33-.46-2.14,0-.38.04-.76.13-1.13s.24-.76.47-1.17l1.45.67c-.18.34-.3.64-.36.9-.06.26-.1.55-.1.85,0,.46.09.87.28,1.23.18.36.43.68.75.94.32.26.68.46,1.1.59.42.14.86.2,1.32.2.7,0,1.22-.15,1.54-.46.32-.31.48-.75.48-1.33,0-.38-.04-.74-.12-1.06-.08-.32-.18-.63-.31-.91l1.52-.2Z" style="fill: #fff;"/>
    <path d="M306.96,90.61c.46.11.91.14,1.37.1.46-.05.87-.14,1.23-.28l.23,1.6c-.1.05-.19.09-.28.13s-.19.08-.3.12c.18.22.34.47.46.74.12.27.18.58.18.91,0,.4-.07.74-.21,1.03-.14.28-.33.52-.56.7s-.51.31-.83.39c-.32.08-.65.12-1.01.12-.55,0-1.07-.1-1.56-.29-.49-.2-.91-.47-1.28-.82-.36-.35-.65-.76-.86-1.23-.21-.47-.31-.98-.31-1.54,0-.07,0-.2.01-.38,0-.18.03-.39.05-.62.03-.23.07-.48.14-.73.06-.26.15-.5.26-.73l3.26.78ZM304.75,91.86c-.02.1-.03.2-.04.28,0,.08-.01.19-.01.31,0,.27.07.53.2.76.14.24.31.44.53.62.22.18.47.31.76.41s.59.15.9.15c.38,0,.69-.06.91-.19s.34-.36.34-.71c0-.18-.04-.35-.11-.5-.07-.15-.19-.31-.36-.47-.2-.02-.41-.04-.63-.08-.22-.04-.42-.07-.61-.11l-1.9-.47Z" style="fill: #fff;"/>
    <path d="M308.41,87.42c0-.41-.06-.69-.17-.84-.12-.15-.24-.23-.38-.23-.09,0-.16.01-.23.04-.06.03-.12.07-.18.14s-.11.15-.17.26c-.06.11-.13.26-.21.43-.09.2-.18.39-.28.56-.1.18-.22.33-.36.46-.14.13-.3.24-.48.31-.18.08-.39.11-.64.11-.65,0-1.16-.24-1.54-.71-.38-.48-.56-1.17-.56-2.08,0-.43.05-.82.14-1.15.1-.34.2-.61.31-.82l1.33.61c-.09.17-.17.38-.25.65-.08.26-.12.52-.12.78,0,.11,0,.22.02.33.01.11.04.21.08.3.04.09.1.17.17.22.07.06.17.08.29.08.16,0,.28-.06.36-.19s.18-.3.29-.52c.15-.31.29-.57.42-.78.13-.21.26-.37.41-.5s.31-.21.49-.27c.18-.06.4-.08.65-.08s.51.05.76.16c.25.11.47.28.66.51s.35.53.47.89c.12.36.18.79.18,1.3,0,.31-.02.59-.06.85s-.09.47-.15.67-.12.35-.19.49c-.06.13-.12.23-.16.31l-1.37-.61c.08-.14.18-.35.3-.64.12-.29.18-.64.18-1.04Z" style="fill: #fff;"/>
    <path d="M303.27,79.41c0-.34.05-.64.15-.89s.24-.45.42-.61c.18-.16.39-.28.64-.36s.52-.12.8-.12c.34,0,.67.04,1,.12l3.41.82v1.79l-3.34-.79c-.14-.03-.28-.06-.43-.09-.15-.03-.3-.04-.43-.04-.21,0-.39.05-.53.16-.15.11-.22.31-.22.62,0,.13,0,.25.02.37.02.12.04.23.06.34l4.87,1.16v1.79l-9.02-2.16-.29-1.86,3.01.73c-.03-.16-.06-.32-.08-.49-.02-.16-.04-.33-.04-.49Z" style="fill: #fff;"/>
    <path d="M309.79,68.23c0,.48-.02.97-.06,1.48s-.1.96-.19,1.37l-8.04-1.92c-.09-.46-.15-.93-.18-1.43-.03-.5-.05-.96-.05-1.37,0-.48.05-.89.15-1.24.1-.35.23-.63.4-.85.17-.22.37-.38.59-.49s.47-.16.73-.16c.18,0,.36.02.55.05.19.04.38.11.57.22s.37.26.53.44.32.43.46.74c.16-.36.38-.62.65-.79s.58-.25.92-.25c.38,0,.75.08,1.11.23.36.15.67.4.95.73.28.34.5.77.66,1.31.16.54.25,1.19.25,1.96ZM304.65,68.05v-1.18c0-.48-.1-.84-.31-1.07s-.46-.35-.74-.35c-.15,0-.28.03-.39.1-.11.07-.19.16-.26.27-.06.11-.11.24-.14.38-.03.14-.04.29-.04.44,0,.17,0,.35.02.54.01.19.03.34.04.43l1.82.43ZM306.05,68.4l2.16.52c.02-.13.04-.29.05-.49.01-.2.02-.38.02-.55,0-.24-.02-.48-.05-.71-.04-.24-.1-.45-.2-.64-.1-.19-.23-.34-.4-.46-.17-.12-.38-.18-.65-.18-.11,0-.22.02-.34.07-.11.04-.21.11-.3.21-.09.1-.16.22-.22.38-.06.16-.08.34-.08.56v1.3Z" style="fill: #fff;"/>
    <path d="M302.61,60.6c0,.25-.07.47-.22.67-.15.2-.37.3-.68.3-.17,0-.33-.03-.47-.1-.15-.07-.28-.16-.38-.27s-.19-.24-.26-.39c-.06-.15-.1-.31-.1-.47,0-.25.07-.47.22-.67.15-.2.37-.3.68-.3.17,0,.33.03.47.1s.28.16.38.27c.11.11.19.24.26.39.06.15.1.31.1.47ZM309.69,61.46v1.78l-6.31-1.5v-1.79l6.31,1.51Z" style="fill: #fff;"/>
    <path d="M301.8,58.12l-.29-1.86,1.86.46v-1.99l1.46.36v1.98l2.21.53c.18.05.36.08.52.09.16.01.3,0,.41-.06.12-.05.21-.14.27-.27.06-.13.1-.3.1-.53,0-.19-.02-.38-.05-.56-.04-.18-.09-.36-.15-.55l1.37-.13c.09.24.16.5.23.78.06.28.1.61.1,1,0,.55-.08.98-.25,1.28s-.39.52-.67.65-.61.18-.98.17-.76-.07-1.16-.17l-4.97-1.18Z" style="fill: #fff;"/>
    <path d="M307.17,54.67c-.54,0-1.06-.09-1.54-.26s-.9-.43-1.26-.76c-.36-.33-.64-.73-.85-1.19-.21-.47-.31-.99-.31-1.57,0-.36.03-.68.1-.97.07-.28.16-.54.27-.77l1.39.61c-.06.16-.12.33-.17.5-.05.17-.08.38-.08.63,0,.6.2,1.07.61,1.42.4.34.95.52,1.65.52.41,0,.74-.09.99-.26.25-.18.38-.5.38-.97,0-.23-.02-.46-.07-.67s-.11-.41-.18-.58l1.43-.13c.09.22.17.47.23.74s.1.59.1.98c0,.5-.07.92-.22,1.26-.14.34-.34.63-.58.85s-.53.39-.86.49c-.33.1-.67.15-1.03.15Z" style="fill: #fff;"/>
    <path d="M309.85,46.71c0,.42-.06.79-.19,1.1s-.31.57-.54.77-.51.36-.82.46c-.32.1-.67.16-1.05.16-.48,0-.96-.08-1.44-.23-.48-.16-.91-.39-1.3-.69-.38-.3-.7-.68-.94-1.12-.24-.44-.37-.94-.37-1.51,0-.42.06-.78.19-1.1.13-.32.31-.58.54-.78s.51-.36.82-.46c.32-.1.67-.16,1.05-.16.48,0,.96.08,1.44.23.48.15.91.38,1.3.67.38.3.7.67.94,1.11.24.44.37.96.37,1.54ZM304.72,45.82c0,.26.08.5.23.7.15.2.34.37.58.5.23.14.49.24.76.31.28.07.54.1.79.1.41,0,.72-.06.94-.19.22-.13.33-.36.33-.7,0-.26-.08-.5-.23-.7-.15-.2-.34-.37-.58-.5-.23-.14-.49-.24-.76-.31-.28-.07-.54-.1-.79-.1-.41,0-.72.06-.94.19-.22.13-.33.36-.33.7Z" style="fill: #fff;"/>
    <path d="M302.61,40.04c0,.25-.07.47-.22.67-.15.2-.37.3-.68.3-.17,0-.33-.03-.47-.1-.15-.07-.28-.16-.38-.27s-.19-.24-.26-.39c-.06-.15-.1-.31-.1-.47,0-.25.07-.47.22-.67.15-.2.37-.3.68-.3.17,0,.33.03.47.1.15.07.28.16.38.27s.19.24.26.39c.06.15.1.31.1.47ZM309.69,40.9v1.78l-6.31-1.5v-1.79l6.31,1.51Z" style="fill: #fff;"/>
    <path d="M303.66,37.83c-.04-.14-.09-.29-.14-.45-.05-.16-.1-.35-.14-.55-.04-.2-.08-.43-.11-.68-.03-.25-.04-.54-.04-.86,0-.94.27-1.59.82-1.94.54-.35,1.29-.41,2.23-.18l3.41.82v1.79l-3.34-.79c-.21-.05-.41-.08-.61-.11s-.37-.03-.52,0-.27.11-.36.22c-.09.12-.14.29-.14.53s.02.47.07.71l4.88,1.16v1.79l-6.02-1.45Z" style="fill: #fff;"/>
    <path d="M309.33,25.95c.16.33.29.69.38,1.09.1.4.14.89.14,1.46,0,.5-.08.95-.25,1.36-.16.41-.4.76-.7,1.06-.3.29-.67.52-1.11.68s-.93.24-1.47.24c-.62,0-1.24-.11-1.86-.33-.62-.22-1.17-.54-1.65-.97-.48-.43-.88-.95-1.18-1.57-.3-.62-.46-1.33-.46-2.14,0-.38.04-.76.13-1.13s.24-.76.47-1.17l1.45.67c-.18.34-.3.64-.36.9-.06.26-.1.55-.1.85,0,.46.09.87.28,1.23.18.36.43.68.75.94.32.26.68.46,1.1.59.42.14.86.2,1.32.2.7,0,1.22-.15,1.54-.46.32-.31.48-.75.48-1.33,0-.38-.04-.74-.12-1.06s-.18-.63-.31-.91l1.52-.2Z" style="fill: #fff;"/>
    <path d="M306.96,19.15c.46.11.91.14,1.37.1.46-.05.87-.14,1.23-.28l.23,1.6c-.1.05-.19.09-.28.13s-.19.08-.3.12c.18.22.34.47.46.74.12.27.18.58.18.91,0,.4-.07.74-.21,1.03-.14.28-.33.52-.56.7s-.51.31-.83.39c-.32.08-.65.12-1.01.12-.55,0-1.07-.1-1.56-.29-.49-.2-.91-.47-1.28-.82-.36-.35-.65-.76-.86-1.23s-.31-.98-.31-1.54c0-.07,0-.2.01-.38s.03-.39.05-.62c.03-.23.07-.48.14-.73s.15-.5.26-.73l3.26.78ZM304.75,20.4c-.02.1-.03.2-.04.28,0,.08-.01.19-.01.31,0,.27.07.53.2.76.14.24.31.44.53.62.22.18.47.31.76.41.29.1.59.15.9.15.38,0,.69-.06.91-.19s.34-.36.34-.71c0-.18-.04-.35-.11-.5-.07-.15-.19-.31-.36-.47-.2-.02-.41-.04-.63-.08-.22-.04-.42-.07-.61-.11l-1.9-.47Z" style="fill: #fff;"/>
    <path d="M308.41,15.96c0-.41-.06-.69-.17-.84-.12-.15-.24-.23-.38-.23-.09,0-.16.01-.23.04s-.12.07-.18.14c-.06.06-.11.15-.17.26-.06.11-.13.26-.21.43-.09.2-.18.39-.28.56-.1.18-.22.33-.36.46-.14.13-.3.24-.48.31-.18.08-.39.11-.64.11-.65,0-1.16-.24-1.54-.71-.38-.48-.56-1.17-.56-2.08,0-.43.05-.82.14-1.15.1-.34.2-.61.31-.82l1.33.61c-.09.17-.17.38-.25.65-.08.26-.12.52-.12.78,0,.11,0,.22.02.33.01.11.04.21.08.3.04.09.1.17.17.22.07.06.17.08.29.08.16,0,.28-.06.36-.19.08-.12.18-.3.29-.52.15-.31.29-.57.42-.78s.26-.37.41-.5.31-.21.49-.27.4-.08.65-.08.51.05.76.16c.25.11.47.28.66.51s.35.53.47.89c.12.36.18.79.18,1.3,0,.31-.02.59-.06.85s-.09.47-.15.67c-.06.19-.12.35-.19.49s-.12.23-.16.31l-1.37-.61c.08-.14.18-.35.3-.64.12-.29.18-.64.18-1.04Z" style="fill: #fff;"/>
    <path d="M303.27,7.95c0-.34.05-.64.15-.89s.24-.45.42-.61c.18-.16.39-.28.64-.36s.52-.12.8-.12c.34,0,.67.04,1,.12l3.41.82v1.79l-3.34-.79c-.14-.03-.28-.06-.43-.09-.15-.03-.3-.04-.43-.04-.21,0-.39.05-.53.16-.15.11-.22.31-.22.62,0,.13,0,.25.02.37.02.12.04.23.06.34l4.87,1.16v1.79l-9.02-2.16-.29-1.86,3.01.73c-.03-.16-.06-.32-.08-.49-.02-.16-.04-.33-.04-.49Z" style="fill: #fff;"/>
  </g>
  <g>
    <path d="M654.39,9.7c0-.48.02-.97.06-1.48s.1-.96.19-1.37l8.04,1.92c.09.46.15.93.18,1.43.03.5.05.96.05,1.37,0,.48-.05.89-.15,1.24-.1.35-.23.63-.4.85-.17.22-.37.38-.59.49-.23.11-.47.16-.73.16-.18,0-.36-.02-.55-.05-.19-.04-.38-.11-.57-.22s-.37-.26-.53-.44-.32-.43-.46-.74c-.16.36-.38.62-.65.79-.28.17-.58.25-.92.25-.38,0-.75-.08-1.11-.23-.36-.15-.67-.4-.95-.73-.28-.34-.5-.77-.66-1.31-.16-.54-.25-1.19-.25-1.96ZM658.13,9.53l-2.16-.52c-.02.13-.04.29-.05.49s-.02.38-.02.55c0,.24.02.48.05.71.04.24.1.45.2.64s.23.34.4.46c.17.12.38.18.65.18.11,0,.22-.02.34-.07s.21-.11.3-.21c.09-.1.16-.22.22-.38.06-.16.08-.34.08-.56v-1.3ZM659.53,9.88v1.18c0,.48.1.84.31,1.07.21.24.46.35.74.35.15,0,.28-.03.39-.1.11-.07.19-.16.26-.27.06-.11.11-.24.14-.38s.04-.29.04-.44c0-.17,0-.35-.02-.54s-.03-.34-.04-.43l-1.82-.43Z" style="fill: #fff;"/>
    <path d="M654.49,16.47v-1.78l6.31,1.5v1.79l-6.31-1.51ZM661.57,17.33c0-.25.07-.47.22-.67.15-.2.37-.3.68-.3.17,0,.33.03.47.1.15.07.28.16.38.27s.19.24.26.39.1.31.1.47c0,.25-.07.47-.22.67-.15.2-.38.3-.68.3-.17,0-.33-.03-.47-.1-.15-.07-.28-.16-.38-.27-.11-.11-.19-.24-.26-.39-.06-.15-.1-.31-.1-.47Z" style="fill: #fff;"/>
    <path d="M662.38,19.81l.29,1.86-1.86-.46v1.99l-1.46-.36v-1.98l-2.21-.53c-.18-.05-.36-.08-.52-.09-.16-.01-.3,0-.41.06-.12.05-.21.14-.27.27-.06.13-.1.3-.1.53,0,.19.02.38.05.56.04.18.09.36.15.55l-1.37.13c-.09-.24-.16-.5-.23-.78-.06-.28-.1-.61-.1-1,0-.55.08-.98.25-1.28s.39-.52.67-.65c.29-.13.61-.18.98-.17s.76.07,1.16.17l4.97,1.18Z" style="fill: #fff;"/>
    <path d="M657.01,23.26c.54,0,1.06.09,1.54.26.48.18.9.43,1.26.76.36.33.64.73.85,1.19.21.47.31.99.31,1.57,0,.36-.04.68-.1.97-.07.28-.16.54-.27.77l-1.39-.61c.06-.16.12-.33.17-.5.05-.17.08-.38.08-.63,0-.6-.2-1.07-.61-1.42-.4-.34-.95-.52-1.65-.52-.41,0-.74.09-.99.26-.25.18-.38.5-.38.97,0,.23.02.46.07.67s.11.41.18.58l-1.43.13c-.09-.22-.17-.47-.23-.74-.07-.27-.1-.59-.1-.98,0-.5.07-.92.22-1.26.14-.34.34-.63.58-.85s.53-.39.86-.49c.33-.1.67-.15,1.03-.15Z" style="fill: #fff;"/>
    <path d="M654.32,31.22c0-.42.06-.79.19-1.1.13-.31.31-.57.54-.77.23-.2.51-.36.82-.46.32-.1.67-.16,1.05-.16.48,0,.96.08,1.44.23.48.16.91.39,1.3.69.38.3.7.68.94,1.12.24.44.37.94.37,1.51,0,.42-.06.78-.19,1.1-.13.32-.31.58-.54.78s-.51.36-.82.46-.67.16-1.05.16c-.48,0-.96-.08-1.44-.23-.48-.15-.91-.38-1.29-.67-.38-.3-.7-.67-.94-1.11-.24-.44-.37-.96-.37-1.54ZM659.46,32.11c0-.26-.08-.5-.23-.7-.15-.2-.34-.37-.58-.5-.23-.14-.49-.24-.76-.31-.28-.07-.54-.1-.79-.1-.41,0-.72.06-.94.19-.22.13-.33.36-.33.7,0,.26.08.5.23.7.15.2.34.37.58.5.23.14.49.24.76.31.28.07.54.1.79.1.41,0,.72-.06.94-.19.22-.13.33-.36.33-.7Z" style="fill: #fff;"/>
    <path d="M654.49,37.03v-1.78l6.31,1.5v1.79l-6.31-1.51ZM661.57,37.89c0-.25.07-.47.22-.67.15-.2.37-.3.68-.3.17,0,.33.03.47.1.15.07.28.16.38.27s.19.24.26.39.1.31.1.47c0,.25-.07.47-.22.67-.15.2-.38.3-.68.3-.17,0-.33-.03-.47-.1-.15-.07-.28-.16-.38-.27-.11-.11-.19-.24-.26-.39-.06-.15-.1-.31-.1-.47Z" style="fill: #fff;"/>
    <path d="M660.52,40.1c.04.14.09.29.14.45.05.16.1.35.14.55.04.2.08.43.11.68.03.25.04.54.04.86,0,.94-.27,1.59-.82,1.94-.54.35-1.29.41-2.23.18l-3.41-.82v-1.79l3.34.79c.21.05.41.09.61.11.2.03.37.03.52,0,.15-.03.27-.11.36-.22.09-.12.14-.29.14-.53s-.02-.47-.07-.71l-4.88-1.16v-1.79l6.02,1.45Z" style="fill: #fff;"/>
    <path d="M654.85,51.98c-.16-.33-.29-.69-.38-1.09-.1-.4-.14-.89-.14-1.46,0-.5.08-.95.25-1.36.16-.41.4-.76.7-1.06.3-.29.67-.52,1.11-.68.44-.16.93-.24,1.47-.24.62,0,1.24.11,1.86.33.62.22,1.17.54,1.65.97.48.43.88.95,1.18,1.57.3.62.46,1.33.46,2.14,0,.38-.04.76-.13,1.13s-.24.76-.47,1.17l-1.45-.67c.18-.34.3-.64.36-.9.06-.26.1-.55.1-.85,0-.46-.09-.87-.28-1.23-.19-.36-.43-.68-.75-.94-.32-.26-.68-.46-1.1-.59-.42-.14-.86-.2-1.32-.2-.7,0-1.22.15-1.54.46-.32.31-.48.75-.48,1.33,0,.38.04.74.12,1.06.08.32.18.63.31.91l-1.52.2Z" style="fill: #fff;"/>
    <path d="M657.22,58.78c-.46-.11-.91-.14-1.38-.1-.46.05-.87.14-1.23.28l-.23-1.6c.1-.05.19-.09.28-.13s.19-.08.3-.12c-.18-.22-.34-.47-.46-.74-.12-.27-.18-.58-.18-.91,0-.4.07-.74.21-1.03.14-.28.33-.52.56-.7.24-.18.51-.31.83-.39s.65-.12,1.01-.12c.55,0,1.07.1,1.56.29.49.2.91.47,1.28.82s.65.76.86,1.23c.21.47.31.98.31,1.54,0,.07,0,.2-.01.38,0,.18-.03.39-.05.62-.03.23-.07.48-.14.73-.06.26-.15.5-.26.73l-3.26-.78ZM659.42,57.53c.02-.1.03-.2.04-.28,0-.08.01-.19.01-.31,0-.27-.07-.53-.21-.76-.14-.24-.31-.44-.53-.62-.22-.18-.47-.31-.76-.41-.29-.1-.59-.15-.9-.15-.38,0-.69.06-.91.19s-.34.36-.34.71c0,.18.04.35.11.5.07.15.19.31.36.47.2.02.41.04.63.08.22.04.42.07.61.11l1.9.47Z" style="fill: #fff;"/>
    <path d="M655.76,61.97c0,.41.06.69.17.84.12.15.24.23.38.23.09,0,.16-.01.23-.04.06-.03.12-.07.18-.14.06-.06.11-.15.17-.26.06-.11.13-.26.21-.43.09-.2.18-.39.28-.56.1-.18.22-.33.36-.46.14-.13.3-.24.48-.31.18-.08.39-.11.64-.11.65,0,1.16.24,1.54.71.38.48.56,1.17.56,2.08,0,.43-.05.82-.14,1.15s-.2.61-.31.82l-1.33-.61c.09-.17.17-.38.25-.65.08-.26.12-.52.12-.78,0-.11,0-.22-.02-.33-.01-.11-.04-.21-.08-.3-.04-.09-.1-.17-.17-.22-.07-.06-.17-.08-.29-.08-.16,0-.28.06-.36.19s-.18.3-.29.52c-.15.31-.29.57-.42.78-.13.21-.26.37-.41.5s-.31.21-.49.27c-.18.06-.4.08-.65.08s-.51-.05-.76-.16c-.25-.11-.47-.28-.66-.51-.19-.23-.35-.53-.47-.89-.12-.36-.18-.79-.18-1.3,0-.31.02-.59.06-.85.04-.25.09-.47.15-.67s.12-.35.19-.49c.06-.13.12-.23.16-.31l1.37.61c-.08.14-.18.35-.3.64s-.18.64-.18,1.04Z" style="fill: #fff;"/>
    <path d="M660.91,69.98c0,.34-.05.64-.15.89-.1.25-.24.45-.42.61-.18.16-.39.28-.64.36s-.52.12-.8.12c-.34,0-.67-.04-1-.12l-3.41-.82v-1.79l3.34.79c.14.03.28.06.43.09.15.03.3.04.43.04.21,0,.39-.05.53-.16.15-.11.22-.31.22-.62,0-.13,0-.25-.02-.37-.02-.12-.04-.23-.06-.34l-4.87-1.16v-1.79l9.02,2.16.29,1.86-3.01-.73c.03.16.06.32.08.49s.04.33.04.49Z" style="fill: #fff;"/>
    <path d="M654.39,81.16c0-.48.02-.97.06-1.48s.1-.96.19-1.37l8.04,1.92c.09.46.15.93.18,1.43.03.5.05.96.05,1.37,0,.48-.05.89-.15,1.24-.1.35-.23.63-.4.85-.17.22-.37.38-.59.49-.23.11-.47.16-.73.16-.18,0-.36-.02-.55-.05-.19-.04-.38-.11-.57-.22s-.37-.26-.53-.44-.32-.43-.46-.74c-.16.36-.38.62-.65.79-.28.17-.58.25-.92.25-.38,0-.75-.08-1.11-.23-.36-.15-.67-.4-.95-.73-.28-.34-.5-.77-.66-1.31-.16-.54-.25-1.19-.25-1.96ZM658.13,80.99l-2.16-.52c-.02.13-.04.29-.05.49s-.02.38-.02.55c0,.24.02.48.05.71.04.24.1.45.2.64s.23.34.4.46c.17.12.38.18.65.18.11,0,.22-.02.34-.07s.21-.11.3-.21c.09-.1.16-.22.22-.38.06-.16.08-.34.08-.56v-1.3ZM659.53,81.34v1.18c0,.48.1.84.31,1.07.21.24.46.35.74.35.15,0,.28-.03.39-.1.11-.07.19-.16.26-.27.06-.11.11-.24.14-.38s.04-.29.04-.44c0-.17,0-.35-.02-.54s-.03-.34-.04-.43l-1.82-.43Z" style="fill: #fff;"/>
    <path d="M654.49,87.93v-1.78l6.31,1.5v1.79l-6.31-1.51ZM661.57,88.79c0-.25.07-.47.22-.67.15-.2.37-.3.68-.3.17,0,.33.03.47.1.15.07.28.16.38.27s.19.24.26.39.1.31.1.47c0,.25-.07.47-.22.67-.15.2-.38.3-.68.3-.17,0-.33-.03-.47-.1-.15-.07-.28-.16-.38-.27-.11-.11-.19-.24-.26-.39-.06-.15-.1-.31-.1-.47Z" style="fill: #fff;"/>
    <path d="M662.38,91.26l.29,1.86-1.86-.46v1.99l-1.46-.36v-1.98l-2.21-.53c-.18-.05-.36-.08-.52-.09-.16-.01-.3,0-.41.06-.12.05-.21.14-.27.27-.06.13-.1.3-.1.53,0,.19.02.38.05.56.04.18.09.36.15.55l-1.37.13c-.09-.24-.16-.5-.23-.78-.06-.28-.1-.61-.1-1,0-.55.08-.98.25-1.28s.39-.52.67-.65c.29-.13.61-.18.98-.17s.76.07,1.16.17l4.97,1.18Z" style="fill: #fff;"/>
    <path d="M657.01,94.72c.54,0,1.06.09,1.54.26.48.18.9.43,1.26.76.36.33.64.73.85,1.19.21.47.31.99.31,1.57,0,.36-.04.68-.1.97-.07.28-.16.54-.27.77l-1.39-.61c.06-.16.12-.33.17-.5.05-.17.08-.38.08-.63,0-.6-.2-1.07-.61-1.42-.4-.34-.95-.52-1.65-.52-.41,0-.74.09-.99.26-.25.18-.38.5-.38.97,0,.23.02.46.07.67s.11.41.18.58l-1.43.13c-.09-.22-.17-.47-.23-.74-.07-.27-.1-.59-.1-.98,0-.5.07-.92.22-1.26.14-.34.34-.63.58-.85s.53-.39.86-.49c.33-.1.67-.15,1.03-.15Z" style="fill: #fff;"/>
    <path d="M654.32,102.68c0-.42.06-.79.19-1.1.13-.31.31-.57.54-.77.23-.2.51-.36.82-.46.32-.1.67-.16,1.05-.16.48,0,.96.08,1.44.23.48.16.91.39,1.3.69.38.3.7.68.94,1.12.24.44.37.94.37,1.51,0,.42-.06.78-.19,1.1-.13.32-.31.58-.54.78s-.51.36-.82.46-.67.16-1.05.16c-.48,0-.96-.08-1.44-.23-.48-.15-.91-.38-1.29-.67-.38-.3-.7-.67-.94-1.11-.24-.44-.37-.96-.37-1.54ZM659.46,103.56c0-.26-.08-.5-.23-.7-.15-.2-.34-.37-.58-.5-.23-.14-.49-.24-.76-.31-.28-.07-.54-.1-.79-.1-.41,0-.72.06-.94.19-.22.13-.33.36-.33.7,0,.26.08.5.23.7.15.2.34.37.58.5.23.14.49.24.76.31.28.07.54.1.79.1.41,0,.72-.06.94-.19.22-.13.33-.36.33-.7Z" style="fill: #fff;"/>
    <path d="M654.49,108.48v-1.78l6.31,1.5v1.79l-6.31-1.51ZM661.57,109.35c0-.25.07-.47.22-.67.15-.2.37-.3.68-.3.17,0,.33.03.47.1.15.07.28.16.38.27s.19.24.26.39.1.31.1.47c0,.25-.07.47-.22.67-.15.2-.38.3-.68.3-.17,0-.33-.03-.47-.1-.15-.07-.28-.16-.38-.27-.11-.11-.19-.24-.26-.39-.06-.15-.1-.31-.1-.47Z" style="fill: #fff;"/>
    <path d="M660.52,111.56c.04.14.09.29.14.45.05.16.1.35.14.55.04.2.08.43.11.68.03.25.04.54.04.86,0,.94-.27,1.59-.82,1.94-.54.35-1.29.41-2.23.18l-3.41-.82v-1.79l3.34.79c.21.05.41.09.61.11.2.03.37.03.52,0,.15-.03.27-.11.36-.22.09-.12.14-.29.14-.53s-.02-.47-.07-.71l-4.88-1.16v-1.79l6.02,1.45Z" style="fill: #fff;"/>
    <path d="M654.85,123.44c-.16-.33-.29-.69-.38-1.09-.1-.4-.14-.89-.14-1.46,0-.5.08-.95.25-1.36.16-.41.4-.76.7-1.06.3-.29.67-.52,1.11-.68.44-.16.93-.24,1.47-.24.62,0,1.24.11,1.86.33.62.22,1.17.54,1.65.97.48.43.88.95,1.18,1.57.3.62.46,1.33.46,2.14,0,.38-.04.76-.13,1.13s-.24.76-.47,1.17l-1.45-.67c.18-.34.3-.64.36-.9.06-.26.1-.55.1-.85,0-.46-.09-.87-.28-1.23-.19-.36-.43-.68-.75-.94-.32-.26-.68-.46-1.1-.59-.42-.14-.86-.2-1.32-.2-.7,0-1.22.15-1.54.46-.32.31-.48.75-.48,1.33,0,.38.04.74.12,1.06.08.32.18.63.31.91l-1.52.2Z" style="fill: #fff;"/>
    <path d="M657.22,130.24c-.46-.11-.91-.14-1.38-.1-.46.05-.87.14-1.23.28l-.23-1.6c.1-.05.19-.09.28-.13s.19-.08.3-.12c-.18-.22-.34-.47-.46-.74-.12-.27-.18-.58-.18-.91,0-.4.07-.74.21-1.03.14-.28.33-.52.56-.7.24-.18.51-.31.83-.39s.65-.12,1.01-.12c.55,0,1.07.1,1.56.29.49.2.91.47,1.28.82s.65.76.86,1.23c.21.47.31.98.31,1.54,0,.07,0,.2-.01.38,0,.18-.03.39-.05.62-.03.23-.07.48-.14.73-.06.26-.15.5-.26.73l-3.26-.78ZM659.42,128.99c.02-.1.03-.2.04-.28,0-.08.01-.19.01-.31,0-.27-.07-.53-.21-.76-.14-.24-.31-.44-.53-.62-.22-.18-.47-.31-.76-.41-.29-.1-.59-.15-.9-.15-.38,0-.69.06-.91.19s-.34.36-.34.71c0,.18.04.35.11.5.07.15.19.31.36.47.2.02.41.04.63.08.22.04.42.07.61.11l1.9.47Z" style="fill: #fff;"/>
    <path d="M655.76,133.43c0,.41.06.69.17.84.12.15.24.23.38.23.09,0,.16-.01.23-.04.06-.03.12-.07.18-.14.06-.06.11-.15.17-.26.06-.11.13-.26.21-.43.09-.2.18-.39.28-.56.1-.18.22-.33.36-.46.14-.13.3-.24.48-.31.18-.08.39-.11.64-.11.65,0,1.16.24,1.54.71.38.48.56,1.17.56,2.08,0,.43-.05.82-.14,1.15s-.2.61-.31.82l-1.33-.61c.09-.17.17-.38.25-.65.08-.26.12-.52.12-.78,0-.11,0-.22-.02-.33-.01-.11-.04-.21-.08-.3-.04-.09-.1-.17-.17-.22-.07-.06-.17-.08-.29-.08-.16,0-.28.06-.36.19s-.18.3-.29.52c-.15.31-.29.57-.42.78-.13.21-.26.37-.41.5s-.31.21-.49.27c-.18.06-.4.08-.65.08s-.51-.05-.76-.16c-.25-.11-.47-.28-.66-.51-.19-.23-.35-.53-.47-.89-.12-.36-.18-.79-.18-1.3,0-.31.02-.59.06-.85.04-.25.09-.47.15-.67s.12-.35.19-.49c.06-.13.12-.23.16-.31l1.37.61c-.08.14-.18.35-.3.64s-.18.64-.18,1.04Z" style="fill: #fff;"/>
    <path d="M660.91,141.44c0,.34-.05.64-.15.89-.1.25-.24.45-.42.61-.18.16-.39.28-.64.36s-.52.12-.8.12c-.34,0-.67-.04-1-.12l-3.41-.82v-1.79l3.34.79c.14.03.28.06.43.09.15.03.3.04.43.04.21,0,.39-.05.53-.16.15-.11.22-.31.22-.62,0-.13,0-.25-.02-.37-.02-.12-.04-.23-.06-.34l-4.87-1.16v-1.79l9.02,2.16.29,1.86-3.01-.73c.03.16.06.32.08.49s.04.33.04.49Z" style="fill: #fff;"/>
    <path d="M654.39,152.62c0-.48.02-.97.06-1.48s.1-.96.19-1.37l8.04,1.92c.09.46.15.93.18,1.43.03.5.05.96.05,1.37,0,.48-.05.89-.15,1.24-.1.35-.23.63-.4.85-.17.22-.37.38-.59.49-.23.11-.47.16-.73.16-.18,0-.36-.02-.55-.05-.19-.04-.38-.11-.57-.22s-.37-.26-.53-.44-.32-.43-.46-.74c-.16.36-.38.62-.65.79-.28.17-.58.25-.92.25-.38,0-.75-.08-1.11-.23-.36-.15-.67-.4-.95-.73-.28-.34-.5-.77-.66-1.31-.16-.54-.25-1.19-.25-1.96ZM658.13,152.45l-2.16-.52c-.02.13-.04.29-.05.49s-.02.38-.02.55c0,.24.02.48.05.71.04.24.1.45.2.64s.23.34.4.46c.17.12.38.18.65.18.11,0,.22-.02.34-.07s.21-.11.3-.21c.09-.1.16-.22.22-.38.06-.16.08-.34.08-.56v-1.3ZM659.53,152.8v1.18c0,.48.1.84.31,1.07.21.24.46.35.74.35.15,0,.28-.03.39-.1.11-.07.19-.16.26-.27.06-.11.11-.24.14-.38s.04-.29.04-.44c0-.17,0-.35-.02-.54s-.03-.34-.04-.43l-1.82-.43Z" style="fill: #fff;"/>
    <path d="M654.49,159.39v-1.78l6.31,1.5v1.79l-6.31-1.51ZM661.57,160.25c0-.25.07-.47.22-.67.15-.2.37-.3.68-.3.17,0,.33.03.47.1.15.07.28.16.38.27s.19.24.26.39.1.31.1.47c0,.25-.07.47-.22.67-.15.2-.38.3-.68.3-.17,0-.33-.03-.47-.1-.15-.07-.28-.16-.38-.27-.11-.11-.19-.24-.26-.39-.06-.15-.1-.31-.1-.47Z" style="fill: #fff;"/>
    <path d="M662.38,162.72l.29,1.86-1.86-.46v1.99l-1.46-.36v-1.98l-2.21-.53c-.18-.05-.36-.08-.52-.09-.16-.01-.3,0-.41.06-.12.05-.21.14-.27.27-.06.13-.1.3-.1.53,0,.19.02.38.05.56.04.18.09.36.15.55l-1.37.13c-.09-.24-.16-.5-.23-.78-.06-.28-.1-.61-.1-1,0-.55.08-.98.25-1.28s.39-.52.67-.65c.29-.13.61-.18.98-.17s.76.07,1.16.17l4.97,1.18Z" style="fill: #fff;"/>
    <path d="M657.01,166.18c.54,0,1.06.09,1.54.26.48.18.9.43,1.26.76.36.33.64.73.85,1.19.21.47.31.99.31,1.57,0,.36-.04.68-.1.97-.07.28-.16.54-.27.77l-1.39-.61c.06-.16.12-.33.17-.5.05-.17.08-.38.08-.63,0-.6-.2-1.07-.61-1.42-.4-.34-.95-.52-1.65-.52-.41,0-.74.09-.99.26-.25.18-.38.5-.38.97,0,.23.02.46.07.67s.11.41.18.58l-1.43.13c-.09-.22-.17-.47-.23-.74-.07-.27-.1-.59-.1-.98,0-.5.07-.92.22-1.26.14-.34.34-.63.58-.85s.53-.39.86-.49c.33-.1.67-.15,1.03-.15Z" style="fill: #fff;"/>
    <path d="M654.32,174.13c0-.42.06-.79.19-1.1.13-.31.31-.57.54-.77.23-.2.51-.36.82-.46.32-.1.67-.16,1.05-.16.48,0,.96.08,1.44.23.48.16.91.39,1.3.69.38.3.7.68.94,1.12.24.44.37.94.37,1.51,0,.42-.06.78-.19,1.1-.13.32-.31.58-.54.78s-.51.36-.82.46-.67.16-1.05.16c-.48,0-.96-.08-1.44-.23-.48-.15-.91-.38-1.29-.67-.38-.3-.7-.67-.94-1.11-.24-.44-.37-.96-.37-1.54ZM659.46,175.02c0-.26-.08-.5-.23-.7-.15-.2-.34-.37-.58-.5-.23-.14-.49-.24-.76-.31-.28-.07-.54-.1-.79-.1-.41,0-.72.06-.94.19-.22.13-.33.36-.33.7,0,.26.08.5.23.7.15.2.34.37.58.5.23.14.49.24.76.31.28.07.54.1.79.1.41,0,.72-.06.94-.19.22-.13.33-.36.33-.7Z" style="fill: #fff;"/>
    <path d="M654.49,179.94v-1.78l6.31,1.5v1.79l-6.31-1.51ZM661.57,180.81c0-.25.07-.47.22-.67.15-.2.37-.3.68-.3.17,0,.33.03.47.1.15.07.28.16.38.27s.19.24.26.39.1.31.1.47c0,.25-.07.47-.22.67-.15.2-.38.3-.68.3-.17,0-.33-.03-.47-.1-.15-.07-.28-.16-.38-.27-.11-.11-.19-.24-.26-.39-.06-.15-.1-.31-.1-.47Z" style="fill: #fff;"/>
    <path d="M660.52,183.01c.04.14.09.29.14.45.05.16.1.35.14.55.04.2.08.43.11.68.03.25.04.54.04.86,0,.94-.27,1.59-.82,1.94-.54.35-1.29.41-2.23.18l-3.41-.82v-1.79l3.34.79c.21.05.41.09.61.11.2.03.37.03.52,0,.15-.03.27-.11.36-.22.09-.12.14-.29.14-.53s-.02-.47-.07-.71l-4.88-1.16v-1.79l6.02,1.45Z" style="fill: #fff;"/>
    <path d="M654.85,194.89c-.16-.33-.29-.69-.38-1.09-.1-.4-.14-.89-.14-1.46,0-.5.08-.95.25-1.36.16-.41.4-.76.7-1.06.3-.29.67-.52,1.11-.68.44-.16.93-.24,1.47-.24.62,0,1.24.11,1.86.33.62.22,1.17.54,1.65.97.48.43.88.95,1.18,1.57.3.62.46,1.33.46,2.14,0,.38-.04.76-.13,1.13s-.24.76-.47,1.17l-1.45-.67c.18-.34.3-.64.36-.9.06-.26.1-.55.1-.85,0-.46-.09-.87-.28-1.23-.19-.36-.43-.68-.75-.94-.32-.26-.68-.46-1.1-.59-.42-.14-.86-.2-1.32-.2-.7,0-1.22.15-1.54.46-.32.31-.48.75-.48,1.33,0,.38.04.74.12,1.06.08.32.18.63.31.91l-1.52.2Z" style="fill: #fff;"/>
    <path d="M657.22,201.7c-.46-.11-.91-.14-1.38-.1-.46.05-.87.14-1.23.28l-.23-1.6c.1-.05.19-.09.28-.13s.19-.08.3-.12c-.18-.22-.34-.47-.46-.74-.12-.27-.18-.58-.18-.91,0-.4.07-.74.21-1.03.14-.28.33-.52.56-.7.24-.18.51-.31.83-.39s.65-.12,1.01-.12c.55,0,1.07.1,1.56.29.49.2.91.47,1.28.82s.65.76.86,1.23c.21.47.31.98.31,1.54,0,.07,0,.2-.01.38,0,.18-.03.39-.05.62-.03.23-.07.48-.14.73-.06.26-.15.5-.26.73l-3.26-.78ZM659.42,200.45c.02-.1.03-.2.04-.28,0-.08.01-.19.01-.31,0-.27-.07-.53-.21-.76-.14-.24-.31-.44-.53-.62-.22-.18-.47-.31-.76-.41-.29-.1-.59-.15-.9-.15-.38,0-.69.06-.91.19s-.34.36-.34.71c0,.18.04.35.11.5.07.15.19.31.36.47.2.02.41.04.63.08.22.04.42.07.61.11l1.9.47Z" style="fill: #fff;"/>
    <path d="M655.76,204.89c0,.41.06.69.17.84.12.15.24.23.38.23.09,0,.16-.01.23-.04.06-.03.12-.07.18-.14.06-.06.11-.15.17-.26.06-.11.13-.26.21-.43.09-.2.18-.39.28-.56.1-.18.22-.33.36-.46.14-.13.3-.24.48-.31.18-.08.39-.11.64-.11.65,0,1.16.24,1.54.71.38.48.56,1.17.56,2.08,0,.43-.05.82-.14,1.15s-.2.61-.31.82l-1.33-.61c.09-.17.17-.38.25-.65.08-.26.12-.52.12-.78,0-.11,0-.22-.02-.33-.01-.11-.04-.21-.08-.3-.04-.09-.1-.17-.17-.22-.07-.06-.17-.08-.29-.08-.16,0-.28.06-.36.19s-.18.3-.29.52c-.15.31-.29.57-.42.78-.13.21-.26.37-.41.5s-.31.21-.49.27c-.18.06-.4.08-.65.08s-.51-.05-.76-.16c-.25-.11-.47-.28-.66-.51-.19-.23-.35-.53-.47-.89-.12-.36-.18-.79-.18-1.3,0-.31.02-.59.06-.85.04-.25.09-.47.15-.67s.12-.35.19-.49c.06-.13.12-.23.16-.31l1.37.61c-.08.14-.18.35-.3.64s-.18.64-.18,1.04Z" style="fill: #fff;"/>
    <path d="M660.91,212.89c0,.34-.05.64-.15.89-.1.25-.24.45-.42.61-.18.16-.39.28-.64.36s-.52.12-.8.12c-.34,0-.67-.04-1-.12l-3.41-.82v-1.79l3.34.79c.14.03.28.06.43.09.15.03.3.04.43.04.21,0,.39-.05.53-.16.15-.11.22-.31.22-.62,0-.13,0-.25-.02-.37-.02-.12-.04-.23-.06-.34l-4.87-1.16v-1.79l9.02,2.16.29,1.86-3.01-.73c.03.16.06.32.08.49s.04.33.04.49Z" style="fill: #fff;"/>
    <path d="M654.39,224.08c0-.48.02-.97.06-1.48s.1-.96.19-1.37l8.04,1.92c.09.46.15.93.18,1.43.03.5.05.96.05,1.37,0,.48-.05.89-.15,1.24-.1.35-.23.63-.4.85-.17.22-.37.38-.59.49-.23.11-.47.16-.73.16-.18,0-.36-.02-.55-.05-.19-.04-.38-.11-.57-.22s-.37-.26-.53-.44-.32-.43-.46-.74c-.16.36-.38.62-.65.79-.28.17-.58.25-.92.25-.38,0-.75-.08-1.11-.23-.36-.15-.67-.4-.95-.73-.28-.34-.5-.77-.66-1.31-.16-.54-.25-1.19-.25-1.96ZM658.13,223.91l-2.16-.52c-.02.13-.04.29-.05.49s-.02.38-.02.55c0,.24.02.48.05.71.04.24.1.45.2.64s.23.34.4.46c.17.12.38.18.65.18.11,0,.22-.02.34-.07s.21-.11.3-.21c.09-.1.16-.22.22-.38.06-.16.08-.34.08-.56v-1.3ZM659.53,224.26v1.18c0,.48.1.84.31,1.07.21.24.46.35.74.35.15,0,.28-.03.39-.1.11-.07.19-.16.26-.27.06-.11.11-.24.14-.38s.04-.29.04-.44c0-.17,0-.35-.02-.54s-.03-.34-.04-.43l-1.82-.43Z" style="fill: #fff;"/>
    <path d="M654.49,230.85v-1.78l6.31,1.5v1.79l-6.31-1.51ZM661.57,231.71c0-.25.07-.47.22-.67.15-.2.37-.3.68-.3.17,0,.33.03.47.1.15.07.28.16.38.27s.19.24.26.39.1.31.1.47c0,.25-.07.47-.22.67-.15.2-.38.3-.68.3-.17,0-.33-.03-.47-.1-.15-.07-.28-.16-.38-.27-.11-.11-.19-.24-.26-.39-.06-.15-.1-.31-.1-.47Z" style="fill: #fff;"/>
    <path d="M662.38,234.18l.29,1.86-1.86-.46v1.99l-1.46-.36v-1.98l-2.21-.53c-.18-.05-.36-.08-.52-.09-.16-.01-.3,0-.41.06-.12.05-.21.14-.27.27-.06.13-.1.3-.1.53,0,.19.02.38.05.56.04.18.09.36.15.55l-1.37.13c-.09-.24-.16-.5-.23-.78-.06-.28-.1-.61-.1-1,0-.55.08-.98.25-1.28s.39-.52.67-.65c.29-.13.61-.18.98-.17s.76.07,1.16.17l4.97,1.18Z" style="fill: #fff;"/>
    <path d="M657.01,237.64c.54,0,1.06.09,1.54.26.48.18.9.43,1.26.76.36.33.64.73.85,1.19.21.47.31.99.31,1.57,0,.36-.04.68-.1.97-.07.28-.16.54-.27.77l-1.39-.61c.06-.16.12-.33.17-.5.05-.17.08-.38.08-.63,0-.6-.2-1.07-.61-1.42-.4-.34-.95-.52-1.65-.52-.41,0-.74.09-.99.26-.25.18-.38.5-.38.97,0,.23.02.46.07.67s.11.41.18.58l-1.43.13c-.09-.22-.17-.47-.23-.74-.07-.27-.1-.59-.1-.98,0-.5.07-.92.22-1.26.14-.34.34-.63.58-.85s.53-.39.86-.49c.33-.1.67-.15,1.03-.15Z" style="fill: #fff;"/>
    <path d="M654.32,245.59c0-.42.06-.79.19-1.1.13-.31.31-.57.54-.77.23-.2.51-.36.82-.46.32-.1.67-.16,1.05-.16.48,0,.96.08,1.44.23.48.16.91.39,1.3.69.38.3.7.68.94,1.12.24.44.37.94.37,1.51,0,.42-.06.78-.19,1.1-.13.32-.31.58-.54.78s-.51.36-.82.46-.67.16-1.05.16c-.48,0-.96-.08-1.44-.23-.48-.15-.91-.38-1.29-.67-.38-.3-.7-.67-.94-1.11-.24-.44-.37-.96-.37-1.54ZM659.46,246.48c0-.26-.08-.5-.23-.7-.15-.2-.34-.37-.58-.5-.23-.14-.49-.24-.76-.31-.28-.07-.54-.1-.79-.1-.41,0-.72.06-.94.19-.22.13-.33.36-.33.7,0,.26.08.5.23.7.15.2.34.37.58.5.23.14.49.24.76.31.28.07.54.1.79.1.41,0,.72-.06.94-.19.22-.13.33-.36.33-.7Z" style="fill: #fff;"/>
    <path d="M654.49,251.4v-1.78l6.31,1.5v1.79l-6.31-1.51ZM661.57,252.27c0-.25.07-.47.22-.67.15-.2.37-.3.68-.3.17,0,.33.03.47.1.15.07.28.16.38.27s.19.24.26.39.1.31.1.47c0,.25-.07.47-.22.67-.15.2-.38.3-.68.3-.17,0-.33-.03-.47-.1-.15-.07-.28-.16-.38-.27-.11-.11-.19-.24-.26-.39-.06-.15-.1-.31-.1-.47Z" style="fill: #fff;"/>
    <path d="M660.52,254.47c.04.14.09.29.14.45.05.16.1.35.14.55.04.2.08.43.11.68.03.25.04.54.04.86,0,.94-.27,1.59-.82,1.94-.54.35-1.29.41-2.23.18l-3.41-.82v-1.79l3.34.79c.21.05.41.09.61.11.2.03.37.03.52,0s.27-.11.36-.22c.09-.12.14-.29.14-.53s-.02-.47-.07-.71l-4.88-1.16v-1.79l6.02,1.45Z" style="fill: #fff;"/>
    <path d="M654.85,266.35c-.16-.33-.29-.69-.38-1.09-.1-.4-.14-.89-.14-1.46,0-.5.08-.95.25-1.36.16-.41.4-.76.7-1.06.3-.29.67-.52,1.11-.68.44-.16.93-.24,1.47-.24.62,0,1.24.11,1.86.33.62.22,1.17.54,1.65.97.48.43.88.95,1.18,1.57s.46,1.33.46,2.14c0,.38-.04.76-.13,1.13s-.24.76-.47,1.17l-1.45-.67c.18-.34.3-.64.36-.9.06-.26.1-.55.1-.85,0-.46-.09-.87-.28-1.23-.19-.36-.43-.68-.75-.94-.32-.26-.68-.46-1.1-.59-.42-.14-.86-.2-1.32-.2-.7,0-1.22.15-1.54.46-.32.31-.48.75-.48,1.33,0,.38.04.74.12,1.06s.18.63.31.91l-1.52.2Z" style="fill: #fff;"/>
    <path d="M657.22,273.16c-.46-.11-.91-.14-1.38-.1-.46.05-.87.14-1.23.28l-.23-1.6c.1-.05.19-.09.28-.13s.19-.08.3-.12c-.18-.22-.34-.47-.46-.74-.12-.27-.18-.58-.18-.91,0-.4.07-.74.21-1.03.14-.28.33-.52.56-.7.24-.18.51-.31.83-.39s.65-.12,1.01-.12c.55,0,1.07.1,1.56.29.49.2.91.47,1.28.82.36.35.65.76.86,1.23.21.47.31.98.31,1.54,0,.07,0,.2-.01.38,0,.18-.03.39-.05.62-.03.23-.07.48-.14.73s-.15.5-.26.73l-3.26-.78ZM659.42,271.91c.02-.1.03-.2.04-.28,0-.08.01-.19.01-.31,0-.27-.07-.53-.21-.76-.14-.24-.31-.44-.53-.62-.22-.18-.47-.31-.76-.41-.29-.1-.59-.15-.9-.15-.38,0-.69.06-.91.19s-.34.36-.34.71c0,.18.04.35.11.5.07.15.19.31.36.47.2.02.41.04.63.08.22.04.42.07.61.11l1.9.47Z" style="fill: #fff;"/>
    <path d="M655.76,276.35c0,.41.06.69.17.84.12.15.24.23.38.23.09,0,.16-.01.23-.04.06-.03.12-.07.18-.14.06-.06.11-.15.17-.26.06-.11.13-.26.21-.43.09-.2.18-.39.28-.56.1-.18.22-.33.36-.46.14-.13.3-.24.48-.31.18-.08.39-.11.64-.11.65,0,1.16.24,1.54.71s.56,1.17.56,2.08c0,.43-.05.82-.14,1.15s-.2.61-.31.82l-1.33-.61c.09-.17.17-.38.25-.65s.12-.52.12-.78c0-.11,0-.22-.02-.33-.01-.11-.04-.21-.08-.3s-.1-.17-.17-.22c-.07-.06-.17-.08-.29-.08-.16,0-.28.06-.36.19s-.18.3-.29.52c-.15.31-.29.57-.42.78-.13.21-.26.37-.41.5s-.31.21-.49.27-.4.08-.65.08-.51-.05-.76-.16c-.25-.11-.47-.28-.66-.51-.19-.23-.35-.53-.47-.89-.12-.36-.18-.79-.18-1.3,0-.31.02-.59.06-.85.04-.25.09-.47.15-.67.06-.19.12-.35.19-.49.06-.13.12-.23.16-.31l1.37.61c-.08.14-.18.35-.3.64s-.18.64-.18,1.04Z" style="fill: #fff;"/>
    <path d="M660.91,284.35c0,.34-.05.64-.15.89-.1.25-.24.45-.42.61s-.39.28-.64.36-.52.12-.8.12c-.34,0-.67-.04-1-.12l-3.41-.82v-1.79l3.34.79c.14.03.28.06.43.09.15.03.3.04.43.04.21,0,.39-.05.53-.16.15-.11.22-.31.22-.62,0-.13,0-.25-.02-.37s-.04-.23-.06-.34l-4.87-1.16v-1.79l9.02,2.16.29,1.86-3.01-.73c.03.16.06.32.08.49s.04.33.04.49Z" style="fill: #fff;"/>
    <path d="M654.39,295.54c0-.48.02-.97.06-1.48s.1-.96.19-1.37l8.04,1.92c.09.46.15.93.18,1.43.03.5.05.96.05,1.37,0,.48-.05.89-.15,1.24-.1.35-.23.63-.4.85s-.37.38-.59.49c-.23.11-.47.16-.73.16-.18,0-.36-.02-.55-.05-.19-.04-.38-.11-.57-.22-.19-.11-.37-.26-.53-.44-.17-.19-.32-.43-.46-.74-.16.36-.38.62-.65.79-.28.17-.58.25-.92.25-.38,0-.75-.08-1.11-.23-.36-.15-.67-.4-.95-.73s-.5-.77-.66-1.31c-.16-.54-.25-1.19-.25-1.96ZM658.13,295.37l-2.16-.52c-.02.13-.04.29-.05.49-.01.2-.02.38-.02.55,0,.24.02.48.05.71s.1.45.2.64c.1.19.23.34.4.46.17.12.38.18.65.18.11,0,.22-.02.34-.07s.21-.11.3-.21.16-.22.22-.38.08-.34.08-.56v-1.3ZM659.53,295.72v1.18c0,.48.1.84.31,1.07.21.24.46.35.74.35.15,0,.28-.03.39-.1.11-.07.19-.16.26-.27.06-.11.11-.24.14-.38.03-.14.04-.29.04-.44,0-.17,0-.35-.02-.54-.01-.19-.03-.34-.04-.43l-1.82-.43Z" style="fill: #fff;"/>
    <path d="M654.49,302.3v-1.78l6.31,1.5v1.79l-6.31-1.51ZM661.57,303.17c0-.25.07-.47.22-.67s.37-.3.68-.3c.17,0,.33.03.47.1.15.07.28.16.38.27.11.11.19.24.26.39.06.15.1.31.1.47,0,.25-.07.47-.22.67-.15.2-.38.3-.68.3-.17,0-.33-.03-.47-.1-.15-.07-.28-.16-.38-.27-.11-.11-.19-.24-.26-.39-.06-.15-.1-.31-.1-.47Z" style="fill: #fff;"/>
    <path d="M662.38,305.64l.29,1.86-1.86-.46v1.99l-1.46-.36v-1.98l-2.21-.53c-.18-.05-.36-.08-.52-.09s-.3,0-.41.06c-.12.05-.21.14-.27.27-.06.13-.1.3-.1.53,0,.19.02.38.05.56.04.18.09.36.15.55l-1.37.13c-.09-.24-.16-.5-.23-.78-.06-.28-.1-.61-.1-1,0-.55.08-.98.25-1.28.16-.3.39-.52.67-.65.29-.13.61-.18.98-.17.37.02.76.07,1.16.17l4.97,1.18Z" style="fill: #fff;"/>
    <path d="M657.01,309.1c.54,0,1.06.09,1.54.26.48.18.9.43,1.26.76.36.33.64.73.85,1.19.21.47.31.99.31,1.57,0,.36-.04.68-.1.97-.07.28-.16.54-.27.77l-1.39-.61c.06-.16.12-.33.17-.5.05-.17.08-.38.08-.63,0-.6-.2-1.07-.61-1.42-.4-.34-.95-.52-1.65-.52-.41,0-.74.09-.99.26s-.38.5-.38.97c0,.23.02.46.07.67s.11.41.18.58l-1.43.13c-.09-.22-.17-.47-.23-.74-.07-.27-.1-.59-.1-.98,0-.5.07-.92.22-1.26s.34-.63.58-.85c.24-.22.53-.39.86-.49s.67-.15,1.03-.15Z" style="fill: #fff;"/>
    <path d="M654.32,317.05c0-.42.06-.79.19-1.1.13-.31.31-.57.54-.77.23-.2.51-.36.82-.46.32-.1.67-.16,1.05-.16.48,0,.96.08,1.44.23s.91.39,1.3.69c.38.3.7.68.94,1.12.24.44.37.94.37,1.51,0,.42-.06.78-.19,1.1s-.31.58-.54.78-.51.36-.82.46c-.32.1-.67.16-1.05.16-.48,0-.96-.08-1.44-.23-.48-.15-.91-.38-1.29-.67-.38-.3-.7-.67-.94-1.11-.24-.44-.37-.96-.37-1.54ZM659.46,317.94c0-.26-.08-.5-.23-.7s-.34-.37-.58-.5-.49-.24-.76-.31c-.28-.07-.54-.1-.79-.1-.41,0-.72.06-.94.19-.22.13-.33.36-.33.7,0,.26.08.5.23.7.15.2.34.37.58.5.23.14.49.24.76.31.28.07.54.1.79.1.41,0,.72-.06.94-.19.22-.13.33-.36.33-.7Z" style="fill: #fff;"/>
    <path d="M654.49,322.86v-1.78l6.31,1.5v1.79l-6.31-1.51ZM661.57,323.72c0-.25.07-.47.22-.67s.37-.3.68-.3c.17,0,.33.03.47.1.15.07.28.16.38.27.11.11.19.24.26.39.06.15.1.31.1.47,0,.25-.07.47-.22.67-.15.2-.38.3-.68.3-.17,0-.33-.03-.47-.1-.15-.07-.28-.16-.38-.27-.11-.11-.19-.24-.26-.39-.06-.15-.1-.31-.1-.47Z" style="fill: #fff;"/>
    <path d="M660.52,325.93c.04.14.09.29.14.45.05.16.1.35.14.55.04.2.08.43.11.68.03.25.04.54.04.86,0,.94-.27,1.59-.82,1.94-.54.35-1.29.41-2.23.18l-3.41-.82v-1.79l3.34.79c.21.05.41.09.61.11.2.03.37.03.52,0,.15-.03.27-.11.36-.22s.14-.29.14-.53-.02-.47-.07-.71l-4.88-1.16v-1.79l6.02,1.45Z" style="fill: #fff;"/>
    <path d="M654.85,337.81c-.16-.33-.29-.69-.38-1.09-.1-.4-.14-.89-.14-1.46,0-.5.08-.95.25-1.36s.4-.76.7-1.06c.3-.29.67-.52,1.11-.68.44-.16.93-.24,1.47-.24.62,0,1.24.11,1.86.33.62.22,1.17.54,1.65.97.48.43.88.95,1.18,1.57.3.62.46,1.33.46,2.14,0,.38-.04.76-.13,1.13s-.24.76-.47,1.17l-1.45-.67c.18-.34.3-.64.36-.9.06-.26.1-.55.1-.85,0-.46-.09-.87-.28-1.23-.19-.36-.43-.68-.75-.94-.32-.26-.68-.46-1.1-.59s-.86-.2-1.32-.2c-.7,0-1.22.15-1.54.46s-.48.75-.48,1.33c0,.38.04.74.12,1.06.08.32.18.63.31.91l-1.52.2Z" style="fill: #fff;"/>
    <path d="M657.22,344.61c-.46-.11-.91-.14-1.38-.1-.46.05-.87.14-1.23.28l-.23-1.6c.1-.05.19-.09.28-.13s.19-.08.3-.12c-.18-.22-.34-.47-.46-.74-.12-.27-.18-.58-.18-.91,0-.4.07-.74.21-1.03s.33-.52.56-.7c.24-.18.51-.31.83-.39s.65-.12,1.01-.12c.55,0,1.07.1,1.56.29s.91.47,1.28.82c.36.35.65.76.86,1.23.21.47.31.98.31,1.54,0,.07,0,.2-.01.38s-.03.39-.05.62c-.03.23-.07.48-.14.73-.06.26-.15.5-.26.73l-3.26-.78ZM659.42,343.37c.02-.1.03-.2.04-.28,0-.08.01-.19.01-.31,0-.27-.07-.53-.21-.76-.14-.24-.31-.44-.53-.62-.22-.18-.47-.31-.76-.41-.29-.1-.59-.15-.9-.15-.38,0-.69.06-.91.19s-.34.36-.34.71c0,.18.04.35.11.5.07.15.19.31.36.47.2.02.41.04.63.08.22.04.42.07.61.11l1.9.47Z" style="fill: #fff;"/>
    <path d="M655.76,347.81c0,.41.06.69.17.84.12.15.24.23.38.23.09,0,.16-.01.23-.04.06-.03.12-.07.18-.14.06-.06.11-.15.17-.26.06-.11.13-.26.21-.43.09-.2.18-.39.28-.56.1-.18.22-.33.36-.46.14-.13.3-.24.48-.31.18-.08.39-.11.64-.11.65,0,1.16.24,1.54.71s.56,1.17.56,2.08c0,.43-.05.82-.14,1.15s-.2.61-.31.82l-1.33-.61c.09-.17.17-.38.25-.65s.12-.52.12-.78c0-.11,0-.22-.02-.33-.01-.11-.04-.21-.08-.3s-.1-.17-.17-.22c-.07-.06-.17-.08-.29-.08-.16,0-.28.06-.36.19s-.18.3-.29.52c-.15.31-.29.57-.42.78-.13.21-.26.37-.41.5s-.31.21-.49.27-.4.08-.65.08-.51-.05-.76-.16c-.25-.11-.47-.28-.66-.51-.19-.23-.35-.53-.47-.89-.12-.36-.18-.79-.18-1.3,0-.31.02-.59.06-.85.04-.25.09-.47.15-.67.06-.19.12-.35.19-.49.06-.13.12-.23.16-.31l1.37.61c-.08.14-.18.35-.3.64s-.18.64-.18,1.04Z" style="fill: #fff;"/>
    <path d="M660.91,355.81c0,.34-.05.64-.15.89-.1.25-.24.45-.42.61s-.39.28-.64.36-.52.12-.8.12c-.34,0-.67-.04-1-.12l-3.41-.82v-1.79l3.34.79c.14.03.28.06.43.09.15.03.3.04.43.04.21,0,.39-.05.53-.16.15-.11.22-.31.22-.62,0-.13,0-.25-.02-.37s-.04-.23-.06-.34l-4.87-1.16v-1.79l9.02,2.16.29,1.86-3.01-.73c.03.16.06.32.08.49s.04.33.04.49Z" style="fill: #fff;"/>
    <path d="M654.39,366.99c0-.48.02-.97.06-1.48s.1-.96.19-1.37l8.04,1.92c.09.46.15.93.18,1.43.03.5.05.96.05,1.37,0,.48-.05.89-.15,1.24s-.23.63-.4.85c-.17.22-.37.38-.59.49-.23.11-.47.16-.73.16-.18,0-.36-.02-.55-.05-.19-.04-.38-.11-.57-.22-.19-.11-.37-.26-.53-.44-.17-.19-.32-.43-.46-.74-.16.36-.38.62-.65.79-.28.17-.58.25-.92.25-.38,0-.75-.08-1.11-.23s-.67-.4-.95-.73c-.28-.34-.5-.77-.66-1.31-.16-.54-.25-1.19-.25-1.96ZM658.13,366.83l-2.16-.52c-.02.13-.04.29-.05.49-.01.2-.02.38-.02.55,0,.24.02.48.05.71.04.24.1.45.2.64.1.19.23.34.4.46.17.12.38.18.65.18.11,0,.22-.02.34-.07s.21-.11.3-.21c.09-.1.16-.22.22-.38.06-.16.08-.34.08-.56v-1.3ZM659.53,367.17v1.18c0,.48.1.84.31,1.07.21.24.46.35.74.35.15,0,.28-.03.39-.1.11-.07.19-.16.26-.27s.11-.24.14-.38c.03-.14.04-.29.04-.44,0-.17,0-.35-.02-.54-.01-.19-.03-.34-.04-.43l-1.82-.43Z" style="fill: #fff;"/>
    <path d="M654.49,373.76v-1.78l6.31,1.5v1.79l-6.31-1.51ZM661.57,374.63c0-.25.07-.47.22-.67.15-.2.37-.3.68-.3.17,0,.33.03.47.1.15.07.28.16.38.27.11.11.19.24.26.39.06.15.1.31.1.47,0,.25-.07.47-.22.67-.15.2-.38.3-.68.3-.17,0-.33-.03-.47-.1-.15-.07-.28-.16-.38-.27-.11-.11-.19-.24-.26-.39s-.1-.31-.1-.47Z" style="fill: #fff;"/>
    <path d="M662.38,377.1l.29,1.86-1.86-.46v1.99l-1.46-.36v-1.98l-2.21-.53c-.18-.05-.36-.08-.52-.09-.16-.01-.3,0-.41.06s-.21.14-.27.27-.1.3-.1.53c0,.19.02.38.05.56.04.18.09.36.15.55l-1.37.13c-.09-.24-.16-.5-.23-.78s-.1-.61-.1-1c0-.55.08-.98.25-1.28.16-.3.39-.52.67-.65.29-.13.61-.18.98-.17.37.02.76.07,1.16.17l4.97,1.18Z" style="fill: #fff;"/>
    <path d="M657.01,380.55c.54,0,1.06.09,1.54.26.48.18.9.43,1.26.76.36.33.64.73.85,1.19s.31.99.31,1.57c0,.36-.04.68-.1.97s-.16.54-.27.77l-1.39-.61c.06-.16.12-.33.17-.5.05-.17.08-.38.08-.63,0-.6-.2-1.07-.61-1.42-.4-.34-.95-.52-1.65-.52-.41,0-.74.09-.99.26-.25.18-.38.5-.38.97,0,.23.02.46.07.67s.11.41.18.58l-1.43.13c-.09-.22-.17-.47-.23-.74-.07-.27-.1-.59-.1-.98,0-.5.07-.92.22-1.26.14-.34.34-.63.58-.85.24-.22.53-.39.86-.49.33-.1.67-.15,1.03-.15Z" style="fill: #fff;"/>
    <path d="M654.32,388.51c0-.42.06-.79.19-1.1.13-.31.31-.57.54-.77.23-.2.51-.36.82-.46.32-.1.67-.16,1.05-.16.48,0,.96.08,1.44.23.48.16.91.39,1.3.69.38.3.7.68.94,1.12.24.44.37.94.37,1.51,0,.42-.06.78-.19,1.1-.13.32-.31.58-.54.78s-.51.36-.82.46c-.32.1-.67.16-1.05.16-.48,0-.96-.08-1.44-.23-.48-.15-.91-.38-1.29-.67-.38-.3-.7-.67-.94-1.11-.24-.44-.37-.96-.37-1.54ZM659.46,389.4c0-.26-.08-.5-.23-.7-.15-.2-.34-.37-.58-.5-.23-.14-.49-.24-.76-.31-.28-.07-.54-.1-.79-.1-.41,0-.72.06-.94.19-.22.13-.33.36-.33.7,0,.26.08.5.23.7.15.2.34.37.58.5.23.14.49.24.76.31.28.07.54.1.79.1.41,0,.72-.06.94-.19.22-.13.33-.36.33-.7Z" style="fill: #fff;"/>
    <path d="M654.49,394.32v-1.78l6.31,1.5v1.79l-6.31-1.51ZM661.57,395.18c0-.25.07-.47.22-.67.15-.2.37-.3.68-.3.17,0,.33.03.47.1.15.07.28.16.38.27.11.11.19.24.26.39.06.15.1.31.1.47,0,.25-.07.47-.22.67-.15.2-.38.3-.68.3-.17,0-.33-.03-.47-.1-.15-.07-.28-.16-.38-.27-.11-.11-.19-.24-.26-.39s-.1-.31-.1-.47Z" style="fill: #fff;"/>
    <path d="M660.52,397.39c.04.14.09.29.14.45.05.16.1.35.14.55.04.2.08.43.11.68.03.25.04.54.04.86,0,.94-.27,1.59-.82,1.94-.54.35-1.29.41-2.23.18l-3.41-.82v-1.79l3.34.79c.21.05.41.09.61.11.2.03.37.03.52,0s.27-.11.36-.22c.09-.12.14-.29.14-.53s-.02-.47-.07-.71l-4.88-1.16v-1.79l6.02,1.45Z" style="fill: #fff;"/>
    <path d="M654.85,409.27c-.16-.33-.29-.69-.38-1.09-.1-.4-.14-.89-.14-1.46,0-.5.08-.95.25-1.36.16-.41.4-.76.7-1.06.3-.29.67-.52,1.11-.68.44-.16.93-.24,1.47-.24.62,0,1.24.11,1.86.33.62.22,1.17.54,1.65.97.48.43.88.95,1.18,1.57s.46,1.33.46,2.14c0,.38-.04.76-.13,1.13s-.24.76-.47,1.17l-1.45-.67c.18-.34.3-.64.36-.9.06-.26.1-.55.1-.85,0-.46-.09-.87-.28-1.23-.19-.36-.43-.68-.75-.94-.32-.26-.68-.46-1.1-.59-.42-.14-.86-.2-1.32-.2-.7,0-1.22.15-1.54.46-.32.31-.48.75-.48,1.33,0,.38.04.74.12,1.06s.18.63.31.91l-1.52.2Z" style="fill: #fff;"/>
    <path d="M657.22,416.07c-.46-.11-.91-.14-1.38-.1-.46.05-.87.14-1.23.28l-.23-1.6c.1-.05.19-.09.28-.13s.19-.08.3-.12c-.18-.22-.34-.47-.46-.74-.12-.27-.18-.58-.18-.91,0-.4.07-.74.21-1.03.14-.28.33-.52.56-.7.24-.18.51-.31.83-.39s.65-.12,1.01-.12c.55,0,1.07.1,1.56.29.49.2.91.47,1.28.82.36.35.65.76.86,1.23.21.47.31.98.31,1.54,0,.07,0,.2-.01.38,0,.18-.03.39-.05.62-.03.23-.07.48-.14.73s-.15.5-.26.73l-3.26-.78ZM659.42,414.83c.02-.1.03-.2.04-.28,0-.08.01-.19.01-.31,0-.27-.07-.53-.21-.76-.14-.24-.31-.44-.53-.62-.22-.18-.47-.31-.76-.41-.29-.1-.59-.15-.9-.15-.38,0-.69.06-.91.19s-.34.36-.34.71c0,.18.04.35.11.5.07.15.19.31.36.47.2.02.41.04.63.08.22.04.42.07.61.11l1.9.47Z" style="fill: #fff;"/>
    <path d="M655.76,419.27c0,.41.06.69.17.84.12.15.24.23.38.23.09,0,.16-.01.23-.04s.12-.07.18-.14c.06-.06.11-.15.17-.26.06-.11.13-.26.21-.43.09-.2.18-.39.28-.56.1-.18.22-.33.36-.46.14-.13.3-.24.48-.31s.39-.11.64-.11c.65,0,1.16.24,1.54.71.38.48.56,1.17.56,2.08,0,.43-.05.82-.14,1.15s-.2.61-.31.82l-1.33-.61c.09-.17.17-.38.25-.65.08-.26.12-.52.12-.78,0-.11,0-.22-.02-.33-.01-.11-.04-.21-.08-.3-.04-.09-.1-.17-.17-.22-.07-.06-.17-.08-.29-.08-.16,0-.28.06-.36.19s-.18.3-.29.52c-.15.31-.29.57-.42.78-.13.21-.26.37-.41.5s-.31.21-.49.27c-.18.06-.4.08-.65.08s-.51-.05-.76-.16c-.25-.11-.47-.28-.66-.51-.19-.23-.35-.53-.47-.89-.12-.36-.18-.79-.18-1.3,0-.31.02-.59.06-.85.04-.25.09-.47.15-.67.06-.19.12-.35.19-.49.06-.13.12-.23.16-.31l1.37.61c-.08.14-.18.35-.3.64s-.18.64-.18,1.04Z" style="fill: #fff;"/>
    <path d="M660.91,427.27c0,.34-.05.64-.15.89-.1.25-.24.45-.42.61-.18.16-.39.28-.64.36s-.52.12-.8.12c-.34,0-.67-.04-1-.12l-3.41-.82v-1.79l3.34.79c.14.03.28.06.43.09s.3.04.43.04c.21,0,.39-.05.53-.16.15-.11.22-.31.22-.62,0-.13,0-.25-.02-.37-.02-.12-.04-.23-.06-.34l-4.87-1.16v-1.79l9.02,2.16.29,1.86-3.01-.73c.03.16.06.32.08.49s.04.33.04.49Z" style="fill: #fff;"/>
    <path d="M654.39,438.45c0-.48.02-.97.06-1.48s.1-.96.19-1.37l8.04,1.92c.09.46.15.93.18,1.43.03.5.05.96.05,1.37,0,.48-.05.89-.15,1.24-.1.35-.23.63-.4.85s-.37.38-.59.49c-.23.11-.47.16-.73.16-.18,0-.36-.02-.55-.05-.19-.04-.38-.11-.57-.22-.19-.11-.37-.26-.53-.44-.17-.19-.32-.43-.46-.74-.16.36-.38.62-.65.79-.28.17-.58.25-.92.25-.38,0-.75-.08-1.11-.23-.36-.15-.67-.4-.95-.73s-.5-.77-.66-1.31c-.16-.54-.25-1.19-.25-1.96ZM658.13,438.29l-2.16-.52c-.02.13-.04.29-.05.49-.01.2-.02.38-.02.55,0,.24.02.48.05.71s.1.45.2.64c.1.19.23.34.4.46.17.12.38.18.65.18.11,0,.22-.02.34-.07s.21-.11.3-.21.16-.22.22-.38.08-.34.08-.56v-1.3ZM659.53,438.63v1.18c0,.48.1.84.31,1.07.21.24.46.35.74.35.15,0,.28-.03.39-.1.11-.07.19-.16.26-.27.06-.11.11-.24.14-.38.03-.14.04-.29.04-.44,0-.17,0-.35-.02-.54-.01-.19-.03-.34-.04-.43l-1.82-.43Z" style="fill: #fff;"/>
    <path d="M654.49,445.22v-1.78l6.31,1.5v1.79l-6.31-1.51ZM661.57,446.08c0-.25.07-.47.22-.67s.37-.3.68-.3c.17,0,.33.03.47.1.15.07.28.16.38.27.11.11.19.24.26.39.06.15.1.31.1.47,0,.25-.07.47-.22.67-.15.2-.38.3-.68.3-.17,0-.33-.03-.47-.1-.15-.07-.28-.16-.38-.27-.11-.11-.19-.24-.26-.39-.06-.15-.1-.31-.1-.47Z" style="fill: #fff;"/>
    <path d="M662.38,448.56l.29,1.86-1.86-.46v1.99l-1.46-.36v-1.98l-2.21-.53c-.18-.05-.36-.08-.52-.09s-.3,0-.41.06c-.12.05-.21.14-.27.27-.06.13-.1.3-.1.53,0,.19.02.38.05.56.04.18.09.36.15.55l-1.37.13c-.09-.24-.16-.5-.23-.78-.06-.28-.1-.61-.1-1,0-.55.08-.98.25-1.28.16-.3.39-.52.67-.65.29-.13.61-.18.98-.17.37.02.76.07,1.16.17l4.97,1.18Z" style="fill: #fff;"/>
    <path d="M657.01,452.01c.54,0,1.06.09,1.54.26.48.18.9.43,1.26.76.36.33.64.73.85,1.19.21.47.31.99.31,1.57,0,.36-.04.68-.1.97-.07.28-.16.54-.27.77l-1.39-.61c.06-.16.12-.33.17-.5.05-.17.08-.38.08-.63,0-.6-.2-1.07-.61-1.42-.4-.34-.95-.52-1.65-.52-.41,0-.74.09-.99.26s-.38.5-.38.97c0,.23.02.46.07.67s.11.41.18.58l-1.43.13c-.09-.22-.17-.47-.23-.74-.07-.27-.1-.59-.1-.98,0-.5.07-.92.22-1.26s.34-.63.58-.85c.24-.22.53-.39.86-.49s.67-.15,1.03-.15Z" style="fill: #fff;"/>
    <path d="M654.32,459.97c0-.42.06-.79.19-1.1.13-.31.31-.57.54-.77.23-.2.51-.36.82-.46.32-.1.67-.16,1.05-.16.48,0,.96.08,1.44.23s.91.39,1.3.69c.38.3.7.68.94,1.12.24.44.37.94.37,1.51,0,.42-.06.78-.19,1.1-.13.32-.31.58-.54.78s-.51.36-.82.46c-.32.1-.67.16-1.05.16-.48,0-.96-.08-1.44-.23-.48-.15-.91-.38-1.29-.67-.38-.3-.7-.67-.94-1.11-.24-.44-.37-.96-.37-1.54ZM659.46,460.86c0-.26-.08-.5-.23-.7s-.34-.37-.58-.5-.49-.24-.76-.31c-.28-.07-.54-.1-.79-.1-.41,0-.72.06-.94.19-.22.13-.33.36-.33.7,0,.26.08.5.23.7.15.2.34.37.58.5.23.14.49.24.76.31.28.07.54.1.79.1.41,0,.72-.06.94-.19.22-.13.33-.36.33-.7Z" style="fill: #fff;"/>
    <path d="M654.49,465.78v-1.78l6.31,1.5v1.79l-6.31-1.51ZM661.57,466.64c0-.25.07-.47.22-.67.15-.2.37-.3.68-.3.17,0,.33.03.47.1.15.07.28.16.38.27s.19.24.26.39c.06.15.1.31.1.47,0,.25-.07.47-.22.67-.15.2-.38.3-.68.3-.17,0-.33-.03-.47-.1-.15-.07-.28-.16-.38-.27-.11-.11-.19-.24-.26-.39-.06-.15-.1-.31-.1-.47Z" style="fill: #fff;"/>
    <path d="M660.52,468.85c.04.14.09.29.14.45.05.16.1.35.14.55.04.2.08.43.11.68.03.25.04.54.04.86,0,.94-.27,1.59-.82,1.94-.54.35-1.29.41-2.23.18l-3.41-.82v-1.79l3.34.79c.21.05.41.08.61.11.2.03.37.03.52,0s.27-.11.36-.22c.09-.12.14-.29.14-.53s-.02-.47-.07-.71l-4.88-1.16v-1.79l6.02,1.45Z" style="fill: #fff;"/>
    <path d="M654.85,480.73c-.16-.33-.29-.69-.38-1.09-.1-.4-.14-.89-.14-1.46,0-.5.08-.95.25-1.36s.4-.76.7-1.06c.3-.29.67-.52,1.11-.68.44-.16.93-.24,1.47-.24.62,0,1.24.11,1.86.33.62.22,1.17.54,1.65.97.48.43.88.95,1.18,1.57s.46,1.33.46,2.14c0,.38-.04.76-.13,1.13s-.24.76-.47,1.17l-1.45-.67c.18-.34.3-.64.36-.9.06-.26.1-.55.1-.85,0-.46-.09-.87-.28-1.23-.19-.36-.43-.68-.75-.94-.32-.26-.68-.46-1.1-.59-.42-.14-.86-.2-1.32-.2-.7,0-1.22.15-1.54.46-.32.31-.48.75-.48,1.33,0,.38.04.74.12,1.06s.18.63.31.91l-1.52.2Z" style="fill: #fff;"/>
    <path d="M657.22,487.53c-.46-.11-.91-.14-1.38-.1-.46.05-.87.14-1.23.28l-.23-1.6c.1-.05.19-.09.28-.13s.19-.08.3-.12c-.18-.22-.34-.47-.46-.74-.12-.27-.18-.58-.18-.91,0-.4.07-.74.21-1.03.14-.28.33-.52.56-.7.24-.18.51-.31.83-.39.32-.08.65-.12,1.01-.12.55,0,1.07.1,1.56.29.49.2.91.47,1.28.82.36.35.65.76.86,1.23.21.47.31.98.31,1.54,0,.07,0,.2-.01.38s-.03.39-.05.62c-.03.23-.07.48-.14.73s-.15.5-.26.73l-3.26-.78ZM659.42,486.28c.02-.1.03-.2.04-.28,0-.08.01-.19.01-.31,0-.27-.07-.53-.21-.76-.14-.24-.31-.44-.53-.62-.22-.18-.47-.31-.76-.41-.29-.1-.59-.15-.9-.15-.38,0-.69.06-.91.19s-.34.36-.34.71c0,.18.04.35.11.5.07.15.19.31.36.47.2.02.41.04.63.08.22.04.42.07.61.11l1.9.47Z" style="fill: #fff;"/>
    <path d="M655.76,490.72c0,.41.06.69.17.84.12.15.24.23.38.23.09,0,.16-.01.23-.04s.12-.07.18-.14c.06-.06.11-.15.17-.26.06-.11.13-.26.21-.43.09-.2.18-.39.28-.56.1-.18.22-.33.36-.46.14-.13.3-.24.48-.31s.39-.11.64-.11c.65,0,1.16.24,1.54.71.38.48.56,1.17.56,2.08,0,.43-.05.82-.14,1.15s-.2.61-.31.82l-1.33-.61c.09-.17.17-.38.25-.65.08-.26.12-.52.12-.78,0-.11,0-.22-.02-.33-.01-.11-.04-.21-.08-.3-.04-.09-.1-.17-.17-.22-.07-.06-.17-.08-.29-.08-.16,0-.28.06-.36.19-.08.12-.18.3-.29.52-.15.31-.29.57-.42.78-.13.21-.26.37-.41.5s-.31.21-.49.27-.4.08-.65.08-.51-.05-.76-.16c-.25-.11-.47-.28-.66-.51-.19-.23-.35-.53-.47-.89-.12-.36-.18-.79-.18-1.3,0-.31.02-.59.06-.85.04-.25.09-.47.15-.67.06-.19.12-.35.19-.49.06-.13.12-.23.16-.31l1.37.61c-.08.14-.18.35-.3.64s-.18.64-.18,1.04Z" style="fill: #fff;"/>
    <path d="M660.91,498.73c0,.34-.05.64-.15.89-.1.25-.24.45-.42.61s-.39.28-.64.36-.52.12-.8.12c-.34,0-.67-.04-1-.12l-3.41-.82v-1.79l3.34.79c.14.03.28.06.43.09.15.03.3.04.43.04.21,0,.39-.05.53-.16.15-.11.22-.31.22-.62,0-.13,0-.25-.02-.37s-.04-.23-.06-.34l-4.87-1.16v-1.79l9.02,2.16.29,1.86-3.01-.73c.03.16.06.32.08.49s.04.33.04.49Z" style="fill: #fff;"/>
  </g>
  <g>
    <path d="M386.36,487.07c-2.02,0-4.05-.06-6.04-.19-2.1-.14-4.2-.44-6.26-.87v-35.77c1.69-.33,3.58-.54,5.6-.71,2.02-.17,3.9-.24,5.65-.24,2.35,0,4.51.17,6.48.52,1.97.33,3.66.9,5.08,1.72,1.42.82,2.54,1.88,3.33,3.23s1.21,2.98,1.21,4.92c0,2.95-1.42,5.27-4.26,6.97,2.35.87,3.94,2.1,4.78,3.61.85,1.53,1.28,3.25,1.28,5.16,0,3.88-1.42,6.78-4.24,8.72-2.86,1.99-7.04,2.95-12.62,2.95ZM382.15,464.2h4.05c2.57,0,4.37-.33,5.5-.98,1.09-.65,1.64-1.72,1.64-3.17s-.57-2.54-1.69-3.14c-1.15-.6-2.81-.9-5-.9-.71,0-1.47,0-2.3.03s-1.53.06-2.19.13c0,0,0,8.03,0,8.03h0ZM382.15,470.55v9.53c.6.08,1.26.13,1.97.17s1.5.06,2.35.06c2.49,0,4.48-.35,6.01-1.06s2.3-2.02,2.3-3.94c0-1.69-.63-2.92-1.91-3.64-1.28-.74-3.12-1.09-5.5-1.09h-5.22v-.03h0Z" style="fill: #4d4d4d;"/>
    <path d="M415.05,450.52c0,1.45-.46,2.6-1.42,3.44-.93.85-2.05,1.26-3.33,1.26-1.23.02-2.42-.43-3.33-1.26-.93-.85-1.42-1.97-1.42-3.44s.46-2.6,1.42-3.44c.91-.82,2.1-1.27,3.33-1.26,1.23-.02,2.42.43,3.33,1.26.95.85,1.42,1.99,1.42,3.44ZM414.29,486.61h-7.92v-28.01h7.92v28.01Z" style="fill: #4d4d4d;"/>
    <path d="M418.55,451.63l7.92-1.28v8.25h9.53v6.61h-9.53v9.83c0,1.67.3,3.01.87,3.99s1.78,1.5,3.55,1.5c.88,0,1.76-.08,2.62-.24.85-.15,1.68-.37,2.49-.65l1.12,6.17c-1.04.42-2.11.76-3.2,1.01-1.17.28-2.6.44-4.31.44-2.16,0-3.96-.3-5.39-.87s-2.57-1.39-3.42-2.46c-.85-1.04-1.45-2.32-1.78-3.79-.35-1.63-.53-3.28-.52-4.94v-23.56h.03Z" style="fill: #4d4d4d;"/>
    <path d="M437.14,472.62c-.02-1.94.32-3.88.98-5.71.62-1.73,1.58-3.33,2.84-4.67,1.23-1.34,2.76-2.38,4.53-3.17,1.78-.8,3.79-1.17,6.07-1.17,1.5,0,2.86.13,4.1.41,1.24.27,2.45.65,3.61,1.15l-1.64,6.34c-.8-.29-1.63-.54-2.46-.74-.98-.23-1.98-.34-2.98-.33-2.35,0-4.1.74-5.24,2.19s-1.72,3.36-1.72,5.74c0,2.51.54,4.48,1.61,5.85,1.09,1.39,2.98,2.08,5.65,2.08,1.04,0,2.07-.09,3.09-.28,1.04-.16,2.06-.44,3.03-.85l1.12,6.5c-1.12.45-2.28.79-3.47,1.01-1.52.29-3.05.44-4.59.44-2.57,0-4.76-.39-6.61-1.15-1.86-.76-3.36-1.8-4.57-3.12s-2.05-2.86-2.6-4.65c-.5-1.92-.75-3.89-.75-5.87Z" style="fill: #4d4d4d;"/>
    <path d="M487.03,472.56c0,2.21-.33,4.21-.95,6.04s-1.56,3.38-2.76,4.67c-1.22,1.3-2.71,2.32-4.35,3.01-1.7.71-3.58,1.06-5.65,1.06s-3.94-.35-5.63-1.06c-1.65-.68-3.12-1.71-4.35-3.01-1.21-1.28-2.16-2.86-2.81-4.67-.69-1.83-1.01-3.85-1.01-6.04s.35-4.21,1.04-6.01c.69-1.8,1.64-3.36,2.86-4.62,1.24-1.28,2.72-2.3,4.37-2.98,1.69-.71,3.53-1.06,5.52-1.06s3.88.35,5.57,1.06,3.14,1.69,4.35,2.98c1.24,1.33,2.2,2.9,2.81,4.62.64,1.81.99,3.8.99,6.01ZM478.94,472.56c0-2.46-.49-4.37-1.47-5.76s-2.38-2.1-4.18-2.1-3.23.71-4.21,2.1-1.5,3.33-1.5,5.76.49,4.4,1.5,5.82c.98,1.45,2.4,2.16,4.21,2.16s3.2-.71,4.18-2.16,1.47-3.39,1.47-5.82Z" style="fill: #4d4d4d;"/>
    <path d="M498.9,450.52c0,1.45-.46,2.6-1.42,3.44-.93.85-2.05,1.26-3.33,1.26-1.23.02-2.42-.43-3.33-1.26-.93-.85-1.42-1.97-1.42-3.44s.46-2.6,1.42-3.44c.91-.82,2.1-1.27,3.33-1.26,1.23-.02,2.42.43,3.33,1.26.96.85,1.42,1.99,1.42,3.44ZM498.16,486.61h-7.92v-28.01h7.92v28.01Z" style="fill: #4d4d4d;"/>
    <path d="M502.67,459.56c1.34-.39,3.09-.76,5.22-1.09,2.21-.34,4.45-.52,6.69-.52,2.38,0,4.35.3,5.93.93s2.84,1.5,3.74,2.62c.93,1.15,1.58,2.49,1.97,4.05s.57,3.31.57,5.22v15.82h-7.92v-14.87c0-2.57-.33-4.37-1.01-5.44s-1.94-1.58-3.77-1.58c-.57,0-1.17.03-1.8.08s-1.21.11-1.69.19v21.61h-7.92v-27.03h0Z" style="fill: #4d4d4d;"/>
    <path d="M548.46,487.35c-6.01,0-10.57-1.67-13.71-5-3.14-3.33-4.7-8.06-4.7-14.21,0-3.06.49-5.76,1.45-8.17s2.27-4.42,3.94-6.07c1.69-1.66,3.73-2.94,5.96-3.74,2.3-.85,4.81-1.28,7.51-1.28,1.56,0,2.98.11,4.26.35,1.14.18,2.26.45,3.36.8.82.25,1.63.56,2.4.93.63.33,1.09.57,1.39.74l-2.4,6.69c-1.26-.65-2.59-1.16-3.96-1.53-1.5-.44-3.23-.63-5.14-.63-1.27,0-2.54.22-3.74.63-1.22.44-2.33,1.14-3.25,2.05-.93.93-1.69,2.16-2.27,3.64-.57,1.5-.85,3.31-.85,5.44,0,1.6.18,3.2.54,4.76.39,1.47.98,2.73,1.8,3.79.87,1.1,1.99,1.97,3.28,2.54,1.34.63,2.98.93,4.89.93,1.09,0,2.17-.07,3.25-.22.87-.12,1.73-.28,2.57-.52.67-.17,1.33-.39,1.97-.65.57-.24,1.09-.49,1.53-.69l2.3,6.67c-1.17.71-2.81,1.34-4.94,1.91-2.17.57-4.65.85-7.44.85Z" style="fill: #0ac18e;"/>
    <path d="M573.28,457.86c2.35,0,4.29.28,5.85.8s2.81,1.28,3.74,2.3c.95,1.02,1.63,2.26,1.99,3.61.39,1.42.57,3.01.57,4.72v16.5c-1.15.24-2.71.54-4.72.87s-4.48.52-7.35.52c-1.8,0-3.44-.17-4.92-.49-1.47-.33-2.73-.85-3.79-1.56-1.06-.72-1.9-1.69-2.46-2.84-.57-1.17-.85-2.6-.85-4.31s.33-3.01.98-4.16c.62-1.11,1.52-2.04,2.62-2.71,1.09-.69,2.35-1.17,3.77-1.47,1.46-.31,2.94-.46,4.42-.46,1.04,0,1.94.06,2.73.13.8.08,1.45.19,1.94.35v-.74c0-1.34-.41-2.43-1.23-3.25s-2.24-1.23-4.26-1.23c-1.33,0-2.66.1-3.99.3-1.32.19-2.46.46-3.42.82l-1.01-6.39c.46-.13,1.04-.3,1.72-.46.69-.17,1.45-.3,2.27-.44s1.67-.22,2.57-.33c.96-.03,1.89-.09,2.82-.09ZM573.9,481.06c.8,0,1.53-.03,2.24-.06.57,0,1.13-.07,1.69-.17v-6.01c-.33-.08-.8-.13-1.45-.22-.58-.08-1.16-.11-1.75-.11-.7,0-1.41.05-2.1.13-.65.08-1.23.24-1.72.52-.48.23-.88.58-1.17,1.01-.29.48-.44,1.02-.44,1.58,0,1.23.41,2.1,1.26,2.57.85.53,1.99.75,3.44.75Z" style="fill: #0ac18e;"/>
    <path d="M597.75,480.93c1.45,0,2.49-.13,3.09-.44.6-.28.9-.85.9-1.64,0-.63-.39-1.21-1.17-1.67-.8-.49-1.97-1.01-3.58-1.61-1.23-.46-2.38-.93-3.38-1.45-1.01-.49-1.88-1.09-2.57-1.78-.72-.7-1.27-1.55-1.64-2.49-.39-.95-.57-2.1-.57-3.47,0-2.62.98-4.7,2.92-6.23s4.62-2.3,8.03-2.3c1.64,0,3.28.16,4.89.46,1.56.3,2.81.63,3.72.98l-1.39,6.17c-.99-.34-1.99-.63-3.01-.85-1.2-.26-2.41-.39-3.64-.39-2.49,0-3.72.69-3.72,2.08,0,.29.05.58.17.85.14.28.36.54.63.71.42.28.85.53,1.32.74.68.34,1.38.62,2.1.87,1.75.65,3.17,1.28,4.31,1.91s2.02,1.32,2.68,2.02c.63.7,1.11,1.51,1.39,2.4.28.87.41,1.91.41,3.09,0,2.76-1.04,4.87-3.12,6.26-2.08,1.42-5,2.13-8.8,2.13-2.49,0-4.57-.22-6.2-.63-1.64-.44-2.79-.8-3.44-1.06l1.34-6.45c1.35.53,2.74.95,4.16,1.26,1.36.34,2.76.51,4.16.51Z" style="fill: #0ac18e;"/>
    <path d="M612.6,486.61v-40.03l7.92-1.28v13.42c.67-.21,1.36-.39,2.05-.52.8-.16,1.62-.24,2.43-.24,2.27,0,4.16.3,5.65.93s2.71,1.5,3.61,2.62c.9,1.15,1.53,2.49,1.91,4.05.39,1.56.54,3.31.54,5.22v15.82h-7.92v-14.88c0-2.57-.33-4.37-.98-5.44s-1.88-1.58-3.64-1.58c-.67,0-1.34.06-1.99.19-.63.13-1.17.24-1.67.41v21.29h-7.92v.03h0Z" style="fill: #0ac18e;"/>
    <g>
      <circle cx="346.48" cy="466.78" r="20.9" style="fill: #0ac18e;"/>
      <path id="symbol" d="M352.98,459.79c-1.05-2.38-3.45-2.87-6.4-2.39l-.95-3.66-2.24.58.93,3.66c-.59.15-1.19.28-1.78.44l-.94-3.64-2.24.58.95,3.67c-.48.13-4.5,1.17-4.5,1.17l.62,2.39s1.64-.46,1.63-.42c.9-.23,1.33.22,1.54.65l2.6,10.05c.03.29-.02.8-.65.95.03.02-1.63.42-1.63.42l.24,2.78s3.98-1.02,4.51-1.15l.96,3.71,2.23-.58-.95-3.74c.62-.14,1.21-.29,1.79-.44l.95,3.72,2.24-.58-.95-3.7c3.43-.84,5.86-3,5.36-6.32-.32-1.99-2.5-3.64-4.31-3.82,1.11-1.01,1.68-2.45.99-4.35h0ZM351.91,468.54c.44,3.28-4.11,3.69-5.63,4.08l-1.32-4.91c1.52-.39,6.2-2.06,6.94.83ZM349.16,461.86c.47,2.92-3.43,3.26-4.69,3.59l-1.2-4.46c1.26-.33,4.93-1.83,5.89.87Z" style="fill: #fff;"/>
    </g>
  </g>
  <circle cx="726.11" cy="452.93" r="28.45" style="fill: #fff; stroke: #dc3545; stroke-miterlimit: 10; stroke-width: 7px;"/>
  <path d="M731.16,454.65c0,2.82-2.28,5.1-5.1,5.1s-5.1-2.28-5.1-5.1,2.28-5.1,5.1-5.1,5.1,2.28,5.1,5.1ZM741.6,441.87c2.04,0,3.68,1.65,3.68,3.68v17.85c0,2.17-1.76,3.93-3.93,3.93h-30.57c-2.17,0-3.93-1.76-3.93-3.93v-17.85h0c0-2.04,1.65-3.68,3.68-3.68h7.37l.35-1.47c.53-2.27,2.56-3.88,4.89-3.88h5.85c2.34,0,4.36,1.61,4.89,3.88l.34,1.47h7.37ZM714.54,447.19c0-1.02-.83-1.85-1.85-1.85s-1.85.83-1.85,1.85.83,1.85,1.85,1.85c1.03,0,1.85-.82,1.85-1.85ZM735.16,454.65c0-5.02-4.07-9.09-9.09-9.09s-9.09,4.07-9.09,9.09,4.07,9.09,9.09,9.09,9.09-4.07,9.09-9.09Z"/>
  <rect x="698.22" y="451.25" width="55.7" height="6.8" transform="translate(917.99 1289.54) rotate(-135)" style="fill: #dc3545;"/>
</svg>