<?xml version="1.0" encoding="UTF-8"?>
<!DOCTYPE svg PUBLIC "-//W3C//DTD SVG 1.1//EN" "http://www.w3.org/Graphics/SVG/1.1/DTD/svg11.dtd">
<svg xmlns="http://www.w3.org/2000/svg" version="1.1" width="1563px" height="1563px" style="shape-rendering:geometricPrecision; text-rendering:geometricPrecision; image-rendering:optimizeQuality; fill-rule:evenodd; clip-rule:evenodd" xmlns:xlink="http://www.w3.org/1999/xlink">
<g><path style="opacity:0.992" fill="#fefefe" d="M 125.5,60.5 C 150.836,60.3334 176.169,60.5 201.5,61C 205.701,100.034 227.368,121.534 266.5,125.5C 306.041,121.627 327.374,99.96 330.5,60.5C 356.167,60.5 381.833,60.5 407.5,60.5C 409.641,94.1381 426.974,115.305 459.5,124C 491.787,128.107 515.621,115.941 531,87.5C 534.767,78.8992 536.6,69.8992 536.5,60.5C 562.167,60.5 587.833,60.5 613.5,60.5C 615.518,93.6863 632.518,114.853 664.5,124C 698.615,128.528 723.115,115.362 738,84.5C 740.901,76.7592 742.401,68.7592 742.5,60.5C 768.167,60.5 793.833,60.5 819.5,60.5C 822.636,99.9699 843.969,121.637 883.5,125.5C 922.868,121.465 944.535,99.7984 948.5,60.5C 973.836,60.3334 999.169,60.5 1024.5,61C 1028.7,100.034 1050.37,121.534 1089.5,125.5C 1129.04,121.627 1150.37,99.96 1153.5,60.5C 1179.17,60.5 1204.83,60.5 1230.5,60.5C 1232.64,94.1381 1249.97,115.305 1282.5,124C 1314.75,128.127 1338.58,115.96 1354,87.5C 1357.77,78.8992 1359.6,69.8992 1359.5,60.5C 1385.17,60.5 1410.83,60.5 1436.5,60.5C 1438.63,94.1248 1455.96,115.292 1488.5,124C 1492.85,124.465 1497.18,124.965 1501.5,125.5C 1501.67,150.836 1501.5,176.169 1501,201.5C 1466,204.494 1444.67,223.16 1437,257.5C 1434.57,290.486 1448.4,313.653 1478.5,327C 1485.85,329.511 1493.35,331.011 1501,331.5C 1501.5,356.831 1501.67,382.164 1501.5,407.5C 1468.73,409.442 1447.56,426.108 1438,457.5C 1432.75,491.83 1445.58,516.663 1476.5,532C 1484.52,535.226 1492.85,536.726 1501.5,536.5C 1501.5,562.167 1501.5,587.833 1501.5,613.5C 1468.7,615.475 1447.53,632.142 1438,663.5C 1433,702.69 1449.17,728.523 1486.5,741C 1491.46,741.912 1496.46,742.412 1501.5,742.5C 1501.5,768.167 1501.5,793.833 1501.5,819.5C 1466.06,821.443 1444.56,839.776 1437,874.5C 1434.97,910.28 1450.8,934.113 1484.5,946C 1490.14,947.08 1495.81,947.913 1501.5,948.5C 1501.67,973.836 1501.5,999.169 1501,1024.5C 1466,1027.49 1444.67,1046.16 1437,1080.5C 1434.57,1113.49 1448.4,1136.65 1478.5,1150C 1485.85,1152.51 1493.35,1154.01 1501,1154.5C 1501.5,1179.83 1501.67,1205.16 1501.5,1230.5C 1468.73,1232.44 1447.56,1249.11 1438,1280.5C 1432.75,1314.83 1445.58,1339.66 1476.5,1355C 1484.52,1358.23 1492.85,1359.73 1501.5,1359.5C 1501.5,1385.17 1501.5,1410.83 1501.5,1436.5C 1461.51,1439.82 1439.85,1461.49 1436.5,1501.5C 1410.83,1501.5 1385.17,1501.5 1359.5,1501.5C 1357.53,1468.71 1340.87,1447.54 1309.5,1438C 1269.75,1432.95 1243.92,1449.45 1232,1487.5C 1231.01,1492.12 1230.51,1496.78 1230.5,1501.5C 1204.83,1501.5 1179.17,1501.5 1153.5,1501.5C 1152.37,1473.22 1139.04,1453.05 1113.5,1441C 1076.28,1430.03 1048.45,1441.53 1030,1475.5C 1026.58,1483.84 1024.75,1492.51 1024.5,1501.5C 999.167,1501.5 973.833,1501.5 948.5,1501.5C 945.71,1466.21 927.043,1444.71 892.5,1437C 858.114,1434.74 834.614,1449.57 822,1481.5C 820.058,1488.03 819.225,1494.7 819.5,1501.5C 793.833,1501.5 768.167,1501.5 742.5,1501.5C 740.384,1468.23 723.384,1447.06 691.5,1438C 656.011,1432.99 631.178,1446.82 617,1479.5C 614.476,1486.62 613.309,1493.95 613.5,1501.5C 587.833,1501.5 562.167,1501.5 536.5,1501.5C 535.552,1474.09 522.886,1454.26 498.5,1442C 464.832,1430.22 437.665,1438.72 417,1467.5C 410.716,1477.97 407.55,1489.3 407.5,1501.5C 382.164,1501.67 356.831,1501.5 331.5,1501C 327.233,1461.9 305.567,1440.4 266.5,1436.5C 232.877,1438.62 211.71,1455.96 203,1488.5C 202.8,1492.75 202.3,1496.92 201.5,1501C 176.169,1501.5 150.836,1501.67 125.5,1501.5C 123.394,1468.24 106.394,1447.07 74.5,1438C 69.882,1437.01 65.2153,1436.51 60.5,1436.5C 60.5,1410.83 60.5,1385.17 60.5,1359.5C 94.1213,1357.38 115.288,1340.05 124,1307.5C 128.225,1274.78 115.725,1250.95 86.5,1236C 78.1597,1232.58 69.4931,1230.75 60.5,1230.5C 60.5,1204.83 60.5,1179.17 60.5,1153.5C 99.7173,1150.45 121.384,1129.28 125.5,1090C 121.76,1050.59 100.26,1028.76 61,1024.5C 60.5,999.169 60.3334,973.836 60.5,948.5C 99.3851,944.615 121.052,923.281 125.5,884.5C 124.013,856.325 110.679,836.159 85.5,824C 77.4496,820.89 69.1163,819.39 60.5,819.5C 60.5,793.833 60.5,768.167 60.5,742.5C 94.1213,740.379 115.288,723.046 124,690.5C 128.131,660.264 117.297,637.098 91.5,621C 81.7309,616.141 71.3975,613.641 60.5,613.5C 60.5,587.833 60.5,562.167 60.5,536.5C 99.4272,533.073 121.094,511.907 125.5,473C 123.079,439.464 105.745,418.131 73.5,409C 69.2099,408.077 64.8766,407.577 60.5,407.5C 60.3334,382.164 60.5,356.831 61,331.5C 99.8063,327.36 121.306,305.86 125.5,267C 121.76,227.594 100.26,205.761 61,201.5C 60.5,176.169 60.3334,150.836 60.5,125.5C 99.8321,121.501 121.499,99.8345 125.5,60.5 Z"/></g>
<g><path style="opacity:1" fill="#7ed957" d="M 219.5,164.5 C 241.167,164.5 262.833,164.5 284.5,164.5C 285.674,188.834 297.341,206.001 319.5,216C 351.632,224.842 375.465,214.675 391,185.5C 393.787,178.782 395.287,171.782 395.5,164.5C 417.167,164.5 438.833,164.5 460.5,164.5C 461.988,191.633 475.654,209.466 501.5,218C 529.322,223.001 550.489,213.501 565,189.5C 569.015,181.627 570.848,173.294 570.5,164.5C 592.5,164.5 614.5,164.5 636.5,164.5C 637.598,188.866 649.265,206.033 671.5,216C 702.94,224.86 726.44,215.027 742,186.5C 745.086,179.488 746.586,172.155 746.5,164.5C 768.167,164.5 789.833,164.5 811.5,164.5C 814.727,197.393 832.727,215.726 865.5,219.5C 889.68,219 907.18,208 918,186.5C 920.683,179.403 922.183,172.07 922.5,164.5C 944.167,164.5 965.833,164.5 987.5,164.5C 990.812,197.645 1008.98,215.978 1042,219.5C 1076.13,216.868 1094.97,198.534 1098.5,164.5C 1120.17,164.5 1141.83,164.5 1163.5,164.5C 1164.67,188.834 1176.34,206.001 1198.5,216C 1224.68,223.828 1246.51,217.328 1264,196.5C 1270.4,186.799 1273.9,176.133 1274.5,164.5C 1296.17,164.5 1317.83,164.5 1339.5,164.5C 1341.5,193.338 1356.5,211.505 1384.5,219C 1387.82,219.498 1391.15,219.665 1394.5,219.5C 1394.5,241.167 1394.5,262.833 1394.5,284.5C 1373.26,285.2 1357.09,294.533 1346,312.5C 1335.88,334.67 1337.88,355.67 1352,375.5C 1363.45,387.976 1377.62,394.642 1394.5,395.5C 1394.5,417.167 1394.5,438.833 1394.5,460.5C 1373.26,461.2 1357.09,470.533 1346,488.5C 1335.88,510.67 1337.88,531.67 1352,551.5C 1363.45,563.976 1377.62,570.642 1394.5,571.5C 1394.5,593.167 1394.5,614.833 1394.5,636.5C 1370.29,637.187 1353.12,648.52 1343,670.5C 1334.7,697.143 1341.2,719.309 1362.5,737C 1372.11,743.705 1382.78,746.872 1394.5,746.5C 1394.5,768.167 1394.5,789.833 1394.5,811.5C 1366.49,813.928 1348.32,828.595 1340,855.5C 1336.62,890.084 1351.46,912.251 1384.5,922C 1387.82,922.498 1391.15,922.665 1394.5,922.5C 1394.5,944.167 1394.5,965.833 1394.5,987.5C 1366.13,989.445 1347.96,1004.11 1340,1031.5C 1336.48,1060.97 1347.98,1082.14 1374.5,1095C 1381,1097.14 1387.67,1098.31 1394.5,1098.5C 1394.5,1120.17 1394.5,1141.83 1394.5,1163.5C 1366.13,1165.44 1347.96,1180.11 1340,1207.5C 1336.48,1236.97 1347.98,1258.14 1374.5,1271C 1381,1273.14 1387.67,1274.31 1394.5,1274.5C 1394.5,1296.17 1394.5,1317.83 1394.5,1339.5C 1365.73,1340.98 1347.56,1355.64 1340,1383.5C 1339.5,1387.15 1339.33,1390.82 1339.5,1394.5C 1317.83,1394.5 1296.17,1394.5 1274.5,1394.5C 1272.84,1369.01 1260.18,1351.51 1236.5,1342C 1203.36,1334.15 1179.86,1345.65 1166,1376.5C 1163.94,1382.31 1163.11,1388.31 1163.5,1394.5C 1141.83,1394.5 1120.17,1394.5 1098.5,1394.5C 1096.97,1368.95 1084.31,1351.45 1060.5,1342C 1028.49,1334.09 1005.32,1344.92 991,1374.5C 988.236,1380.89 987.069,1387.56 987.5,1394.5C 965.833,1394.5 944.167,1394.5 922.5,1394.5C 921.751,1371.27 911.084,1354.44 890.5,1344C 857.567,1332.73 832.734,1342.23 816,1372.5C 813.104,1379.54 811.604,1386.87 811.5,1394.5C 789.833,1394.5 768.167,1394.5 746.5,1394.5C 745.192,1367.69 731.859,1349.86 706.5,1341C 673.414,1335.12 650.58,1347.62 638,1378.5C 636.729,1383.75 636.229,1389.09 636.5,1394.5C 614.5,1394.5 592.5,1394.5 570.5,1394.5C 569.818,1370.3 558.485,1353.14 536.5,1343C 503.796,1333.28 479.629,1343.44 464,1373.5C 461.025,1380.18 459.859,1387.18 460.5,1394.5C 438.833,1394.5 417.167,1394.5 395.5,1394.5C 393.837,1369.01 381.17,1351.51 357.5,1342C 324.36,1334.15 300.86,1345.65 287,1376.5C 284.94,1382.32 284.107,1388.32 284.5,1394.5C 262.833,1394.5 241.167,1394.5 219.5,1394.5C 217.394,1365.22 202.061,1347.06 173.5,1340C 170.518,1339.5 167.518,1339.34 164.5,1339.5C 164.5,1317.83 164.5,1296.17 164.5,1274.5C 198.534,1270.97 216.868,1252.13 219.5,1218C 218.26,1194.84 207.26,1178.18 186.5,1168C 179.403,1165.32 172.07,1163.82 164.5,1163.5C 164.5,1141.83 164.5,1120.17 164.5,1098.5C 198.528,1094.97 216.861,1076.14 219.5,1042C 215.945,1008.95 197.612,990.778 164.5,987.5C 164.5,965.833 164.5,944.167 164.5,922.5C 191.805,920.594 209.639,906.594 218,880.5C 222.687,851.04 211.854,829.54 185.5,816C 178.723,813.411 171.723,811.911 164.5,811.5C 164.5,789.833 164.5,768.167 164.5,746.5C 189.202,745.301 206.369,733.301 216,710.5C 224.688,678.379 214.188,654.879 184.5,640C 178.048,637.553 171.382,636.386 164.5,636.5C 164.5,614.5 164.5,592.5 164.5,570.5C 189.202,569.301 206.369,557.301 216,534.5C 224.688,502.379 214.188,478.879 184.5,464C 178.048,461.553 171.382,460.386 164.5,460.5C 164.5,438.833 164.5,417.167 164.5,395.5C 198.534,391.966 216.868,373.132 219.5,339C 218.26,315.844 207.26,299.177 186.5,289C 179.403,286.317 172.07,284.817 164.5,284.5C 164.5,262.833 164.5,241.167 164.5,219.5C 197.85,216.15 216.183,197.817 219.5,164.5 Z"/></g>
<g><path style="opacity:1" fill="#fefefe" d="M 917.5,711.5 C 916.957,711.56 916.624,711.893 916.5,712.5C 924.138,713.497 931.804,713.831 939.5,713.5C 976.336,716.488 1002.17,734.821 1017,768.5C 1028.27,794.445 1032.27,821.445 1029,849.5C 1024.56,876.256 1012.06,898.423 991.5,916C 973.828,930.18 954.495,941.847 933.5,951C 921.023,955.742 908.69,960.742 896.5,966C 905.672,996.017 914.339,1026.18 922.5,1056.5C 904.129,1061.34 885.796,1066.34 867.5,1071.5C 859.793,1042.01 851.46,1012.67 842.5,983.5C 842,983.167 841.5,982.833 841,982.5C 826.977,987.171 812.81,991.338 798.5,995C 807.266,1024.46 815.932,1053.96 824.5,1083.5C 806.422,1089.64 788.089,1094.97 769.5,1099.5C 761.47,1069.72 752.97,1040.05 744,1010.5C 743.586,1010.04 743.086,1009.71 742.5,1009.5C 706.214,1019.99 669.881,1030.32 633.5,1040.5C 630.864,1019.01 628.197,997.506 625.5,976C 625.833,974.833 626.167,973.667 626.5,972.5C 642.005,968.289 657.339,963.456 672.5,958C 678.005,953.489 680.672,947.655 680.5,940.5C 657.424,856.533 633.258,772.866 608,689.5C 602.147,679.484 593.314,674.484 581.5,674.5C 575.4,675.157 569.4,676.324 563.5,678C 552.534,681.358 541.534,684.525 530.5,687.5C 525.372,668.115 520.039,648.782 514.5,629.5C 550.833,619.333 587,608.666 623,597.5C 623.328,594.793 622.995,592.126 622,589.5C 613.856,562.236 606.022,534.903 598.5,507.5C 616.765,502.301 635.099,497.301 653.5,492.5C 661.359,521.27 669.525,549.936 678,578.5C 678.561,579.022 679.228,579.355 680,579.5C 693.746,575.106 707.58,571.106 721.5,567.5C 713.672,538.185 705.339,509.018 696.5,480C 713.741,474.146 731.241,468.979 749,464.5C 750.326,464.755 751.326,465.422 752,466.5C 760.639,495.392 768.806,524.392 776.5,553.5C 809.742,546.195 843.075,545.695 876.5,552C 905.683,561.183 925.85,580.017 937,608.5C 950.121,639.479 947.787,669.146 930,697.5C 925.968,702.361 921.801,707.028 917.5,711.5 Z"/></g>
<g><path style="opacity:1" fill="#7ed957" d="M 772.5,624.5 C 788.796,623.401 804.463,625.901 819.5,632C 841.107,647.489 847.941,667.989 840,693.5C 832.555,706.278 822.388,716.445 809.5,724C 784.142,737.175 757.475,746.675 729.5,752.5C 719.559,716.573 709.226,680.74 698.5,645C 722.391,635.361 747.057,628.527 772.5,624.5 Z"/></g>
<g><path style="opacity:1" fill="#d1f1c3" d="M 917.5,711.5 C 924.833,712.167 932.167,712.833 939.5,713.5C 931.804,713.831 924.138,713.497 916.5,712.5C 916.624,711.893 916.957,711.56 917.5,711.5 Z"/></g>
<g><path style="opacity:1" fill="#7ed957" d="M 837.5,784.5 C 857.449,782.325 876.449,785.492 894.5,794C 916.709,810.688 923.209,832.188 914,858.5C 904.347,874.487 891.18,886.654 874.5,895C 844.437,909.854 813.103,920.354 780.5,926.5C 769.006,887.518 757.672,848.518 746.5,809.5C 746.818,808.353 747.484,807.519 748.5,807C 777.796,797.382 807.463,789.882 837.5,784.5 Z"/></g>
</svg>
