<svg class="svg-icon" style="width: 1em; height: 1em;vertical-align: middle;fill: #82d853;overflow: hidden;" viewBox="0 0 1024 1024" version="1.1" xmlns="http://www.w3.org/2000/svg"><path d="M568.944 494.933c0-17.067-5.689-28.444-17.067-34.133-11.378-11.378-22.756-17.067-39.822-17.067s-28.444 5.689-39.822 17.067c-11.378 11.378-17.067 22.756-17.067 34.133v244.622c0 17.067 5.689 28.444 17.067 34.133 11.378 11.378 22.756 17.067 39.822 17.067s28.444-5.689 39.822-17.067 17.067-22.756 17.067-34.133V494.933z m-56.888-250.311c-17.067 0-34.133 5.689-45.511 17.067-17.067 11.378-22.756 28.444-22.756 45.511s5.689 34.133 17.067 45.511 28.444 17.067 45.511 17.067 34.133-5.689 45.511-17.067 17.067-28.444 17.067-45.511-5.689-34.133-17.067-45.511c-5.689-11.378-22.756-17.067-39.822-17.067z m0 739.556c-62.578 0-125.156-11.378-182.044-34.133s-108.089-56.889-147.911-102.4c-45.511-45.511-73.956-91.022-102.4-147.911-22.756-56.889-34.133-119.467-34.133-182.044s11.378-125.156 34.133-182.044 56.889-108.089 102.4-147.911c45.511-45.511 91.022-73.956 147.911-102.4 56.889-22.756 119.467-34.133 182.044-34.133S637.212 62.58 694.1 85.335s108.089 56.889 147.911 102.4c45.511 45.511 73.956 91.022 102.4 147.911 22.756 56.889 34.133 119.467 34.133 182.044s-11.378 125.156-34.133 182.044-56.889 108.089-102.4 147.911C796.5 893.156 750.989 921.601 694.1 950.045c-56.889 22.756-119.467 34.133-182.044 34.133z"  /></svg>