<?xml version="1.0" encoding="UTF-8" standalone="no"?>
<svg
   xmlns:dc="http://purl.org/dc/elements/1.1/"
   xmlns:cc="http://creativecommons.org/ns#"
   xmlns:rdf="http://www.w3.org/1999/02/22-rdf-syntax-ns#"
   xmlns:svg="http://www.w3.org/2000/svg"
   xmlns="http://www.w3.org/2000/svg"
   version="1.1"
   id="svg952"
   width="682.66669"
   height="682.66669"
   viewBox="0 0 682.66669 682.66669">
  <metadata
     id="metadata958">
    <rdf:RDF>
      <cc:Work
         rdf:about="">
        <dc:format>image/svg+xml</dc:format>
        <dc:type
           rdf:resource="http://purl.org/dc/dcmitype/StillImage" />
        <dc:title></dc:title>
      </cc:Work>
    </rdf:RDF>
  </metadata>
  <defs
     id="defs956" />
  <g
     id="g960">
    <g
       id="g1576"
       transform="scale(1.3348346,1.3333082)"
       style="fill:#ffffff;fill-opacity:1">
      <path
         d="M 256,0 C 114.6,0 0,114.6 0,256 0,397.4 114.6,512 256,512 397.4,512 512,397.4 512,256 512,114.6 397.4,0 256,0 Z m 125.7,175.4 -42,198 c -3.1,14 -11.5,17.4 -23.1,10.8 l -64,-47.2 -30.9,29.7 c -3.4,3.4 -6.3,6.3 -12.9,6.3 L 213.3,307.9 332,200.8 c 5.2,-4.5 -1.1,-7.1 -8,-2.6 l -146.6,92.3 -63.2,-19.7 c -13.7,-4.3 -14,-13.7 2.9,-20.3 L 364,155.2 c 11.4,-4.1 21.4,2.8 17.7,20.2 z"
         id="path1574"
         style="fill:#ffffff;fill-opacity:1" />
    </g>
    <path
       style="fill:#000000;stroke-width:1.33333"
       d="m 426.54755,513.22018 c -2.93334,-1.33453 -24.17035,-16.3486 -47.19338,-33.36457 -23.02302,-17.01599 -42.63489,-30.76092 -43.58195,-30.5443 -0.94704,0.21662 -11.81002,10.0459 -24.13996,21.84283 -22.65822,21.67876 -26.2504,24.55103 -30.7045,24.55103 -2.3908,0 -2.39387,-1.02788 -0.106,-35.66667 1.29565,-19.61667 2.70285,-38.78207 3.1271,-42.58979 l 0.77136,-6.92312 79.91367,-72.12091 c 54.94295,-49.58521 79.91366,-72.95348 79.91366,-74.7854 0,-3.74427 -3.32093,-4.58832 -9.07675,-2.30695 -2.70779,1.07326 -48.81296,29.59584 -102.45594,63.38351 l -97.53269,61.43214 -43.97782,-13.74502 c -24.18778,-7.55974 -45.55513,-14.7785 -47.48297,-16.04168 -3.61176,-2.3665 -5.63691,-7.21736 -4.38028,-10.49208 0.39297,-1.02405 2.84925,-3.49018 5.4584,-5.48028 7.32596,-5.58779 340.93034,-133.9971 348.1213,-133.9971 8.75971,0 15.32675,7.48414 15.32675,17.46712 0,6.05178 -57.08425,274.48284 -59.60471,280.28315 -2.7776,6.39208 -8.85229,11.59196 -13.4976,11.5538 -1.9604,-0.0161 -5.96436,-1.12118 -8.89769,-2.45571 z"
       id="path1525" />
  </g>
</svg>
